<?xml version="1.0" standalone="no"?>
<!DOCTYPE svg PUBLIC "-//W3C//DTD SVG 1.1//EN" "http://www.w3.org/Graphics/SVG/1.1/DTD/svg11.dtd" >
<svg>
<metadata>
Created by FontForge 20090914 at Fri Aug 20 08:50:40 2021
 By www-data
Typeface &#194;&#169; (your company). 2020. All Rights Reserved
</metadata>
<defs>
<font id="CottonCandies" horiz-adv-x="647" >
  <font-face 
    font-family="Cotton Candies"
    font-weight="400"
    font-stretch="normal"
    units-per-em="2048"
    panose-1="2 0 6 0 0 0 0 0 0 0"
    ascent="1638"
    descent="-410"
    x-height="788"
    cap-height="1704"
    bbox="-2100 -669 2641 2059"
    underline-thickness="150"
    underline-position="-142"
    unicode-range="U+001D-U+FB44"
  />
<missing-glyph horiz-adv-x="1024" 
d="M100 0v1434h824v-1434h-824zM150 50h724v1334h-724v-1334zM325 1148c20.667 18.667 40.002 32.998 58.002 42.998c35.333 20 72.666 30 111.999 30c61.333 0 110.666 -15.833 147.999 -47.5s56 -74.167 56 -127.5c0 -32.667 -7.66699 -65.5 -23 -98.5
s-44.333 -76.167 -87 -129.5c-42 -53.333 -75 -97.333 -99 -132s-36 -67.667 -36 -99c0 -25.333 8 -69.666 24 -132.999h-32c-23.333 64.667 -35 114 -35 148c0 50.667 27.167 123.334 81.5 218.001s81.5 167 81.5 217c0 38 -11 68 -33 90s-52.333 33 -91 33
c-25.333 0 -48.333 -5.66699 -69 -17c-17.333 -10 -36 -23.333 -56 -40v45zM389.002 333.998l57 57.999c7.33301 6.66699 14 10 20 10c6.66699 0 14 -3.66699 22 -11l56 -60c6 -7.33301 9 -14 9 -20c0 -7.33301 -3.33301 -14.666 -10 -21.999l-56 -62
c-9.33301 -9.33301 -16.333 -14 -21 -14c-7.33301 0 -14 3.33301 -20 10l-61 71c-4.66699 6 -7 12 -7 18c0 6.66699 3.66699 14 11 22z" />
    <glyph glyph-name="a_r" unicode="ar" horiz-adv-x="1154" 
d="M681 874l10.999 -0.00292969c16.667 0 34.667 -6.66699 54 -20c40.667 -12.667 77 -31.334 109 -56.001c37.333 -31.333 63 -60.666 77 -87.999c18.667 -38 28 -65.333 28 -82v-18c0 -56 -25.667 -148 -77 -276c-26.667 -72.667 -40 -124.667 -40 -156v-3
c0 -0.666992 -0.666992 -1 -2 -1c3.33301 -24.667 8.33301 -37 15 -37c6 0 15.333 11 28 33l214 331c30 44.667 55.667 70.334 77 77.001c16.667 6 30.334 9 41.001 9c13.333 0 22.666 -4.66699 27.999 -14v-11c-7.33301 -11.333 -27 -36 -59 -74l-197 -288
c-28 -42.667 -62.667 -84.667 -104 -126c-21.333 -14 -44 -21 -68 -21c-60.667 0 -99.334 22.333 -116.001 67c-2.66699 12 -4 21 -4 27v21c0 45.333 30.333 142.333 91 291c27.333 68.667 41 113.667 41 135v12c0 20.667 -24 57.334 -72 110.001l-14 13
c-14 -45.333 -34.667 -100 -62 -164c-46 -102 -100 -195 -162 -279c-60.667 -72.667 -111.334 -109 -152.001 -109h-12c-29.333 0 -57.666 20 -84.999 60c-16.667 30.667 -25 68.334 -25 113.001v6c-72 -95.333 -123 -143.333 -153 -144c-76.667 0 -127.667 28.333 -153 85
c-8.66699 25.333 -13 49 -13 71c0 92 30.333 192.333 91 301c52.667 84 117.334 126 194.001 126c40 0 76.667 -14.667 110 -44c15.333 37.333 39.333 56 72 56h18c55.333 -8.66699 83 -26 83 -52c-79.333 -207.333 -120 -347.333 -122 -420c0 -29.333 8 -44 24 -44
c34.667 5.33301 82.667 58 144 158c66.667 113.333 100 205.333 100 276c0 40 -14.667 67.667 -44 83c-3.33301 6.66699 -5 11.667 -5 15c0 21.333 24.667 38 74 50c4.66699 0.666992 10.334 1 17.001 1zM62.999 352.997c3.33301 -36 11.333 -54 24 -54
c23.333 0 71 68.333 143 205c0 2 18.333 37.333 55 106c-12.667 66.667 -31 100 -55 100c-40 0 -88.667 -89 -146 -267c-9.33301 -28.667 -16.333 -58.667 -21 -90z" />
    <glyph glyph-name="b_r" unicode="br" horiz-adv-x="1151" 
d="M172 1204l25 -0.00195312c31.333 0 54.333 -12.333 69 -37c0 -3.33301 0.333008 -6 1 -8c-28 -59.333 -56.667 -135.666 -86 -228.999c-28 -96 -52.333 -197.333 -73 -304v-2h1c48 85.333 105.667 143 173 173c15.333 5.33301 31.666 9 48.999 11
c52.667 0 96.667 -28 132 -84c13.333 -30.667 20 -64 20 -100c0 -88 -33 -186.333 -99 -295h1c32 20 69.333 59 112 117c98 144 147 252 147 324v12c0 28 -13.333 50.333 -40 67c-4 4.66699 -6 8.66699 -6 12v5c0 22 26.333 38.667 79 50l18 2
c21.333 0 40.666 -7 57.999 -21c25.333 -4.66699 62 -23 110 -55c34 -28.667 56.333 -52 67 -70c29.333 -44.667 44 -82 44 -112v-9c0 -58.667 -26.333 -152 -79 -280c-28 -79.333 -42 -134.333 -42 -165c0 -25.333 6.33301 -38 19 -38
c30.667 46 108.334 170.667 233.001 374c30.667 50 58.334 78 83.001 84c11.333 2.66699 19.666 4 24.999 4c20 -2 30 -8.33301 30 -19v-1c0 -10.667 -13.333 -30.334 -40 -59.001c-46 -60.667 -114 -165.667 -204 -315c-31.333 -49.333 -64.666 -91.666 -99.999 -126.999
c-19.333 -16 -41.666 -24 -66.999 -24h-13c-52 0 -88 20 -108 60c-4.66699 18 -7 33.667 -7 47c0 50.667 31.333 152 94 304c27.333 69.333 41 116.666 41 141.999v1c0 28 -27 69.667 -81 125l-6 5h-2c-4.66699 -30.667 -27.334 -87.667 -68.001 -171
c-34 -64 -79.333 -130.667 -136 -200c-145.333 -164.667 -289.333 -247 -432 -247h-9c-13.333 0 -23.666 14.333 -30.999 43c0 14.667 12.333 24.667 37 30c56 16.667 108 59.334 156 128.001c66 100 99 198.667 99 296c0 34 -9 57 -27 69c-6.66699 2 -12.667 3 -18 3
c-40.667 0 -92.334 -45.667 -155.001 -137c-24 -36.667 -47.333 -84 -70 -142c-20 -64.667 -30 -115.667 -30 -153c-6.66699 -16 -16.667 -24 -30 -24c0 -2 -5.33301 -3 -16 -3c-34.667 0 -57.667 8 -69 24l-1 9v25c0 154.667 29.667 367.334 89 638.001
c30 116 56.333 194.333 79 235c18 8 36 12 54 12z" />
    <glyph glyph-name="e_r" unicode="er" horiz-adv-x="997" 
d="M539 888c15.333 0 35.3281 -7.66699 59.9951 -23c90.667 -32.667 151.667 -82.667 183 -150c16 -33.333 24 -59 24 -77c0 -58.667 -25.667 -152 -77 -280c-26.667 -71.333 -40 -125.666 -40 -162.999c2.66699 -19.333 8.66699 -29 18 -29c30.667 43.333 110 167 238 371
c28.667 45.333 65.334 68 110.001 68c14.667 0 24.334 -6 29.001 -18c0 -8 -24.333 -40.333 -73 -97c-104 -154 -180.333 -264.333 -229 -331c-37.333 -50 -75.666 -75 -114.999 -75c-80.667 0 -121 36 -121 108c0 48 38 166.667 114 356
c7.33301 21.333 12.666 44.666 15.999 69.999c0 28.667 -28.667 70.667 -86 126c-36.667 -120.667 -112.667 -251 -228 -391c-102 -108.667 -188.667 -163 -260 -163c-66.667 0 -119 40.667 -157 122c-8.66699 25.333 -13 53 -13 83v25c0 114 47 220.667 141 320
c46 44 97.667 66 155 66c52.667 0 92.334 -23.667 119.001 -71c6 -17.333 9 -32.666 9 -45.999v-16c0 -98.667 -52.333 -176.334 -157 -233.001c-49.333 -20.667 -89.666 -31 -120.999 -31v-18c0 -76.667 18.333 -115 55 -115h13c42.667 0 107.334 50.667 194.001 152
c100 133.333 150 239.333 150 318c0 34 -15.333 60.667 -46 80l-2 11c16 34 48.333 51 97 51zM94.9951 481h11.001c60 0 100 29 120 87c7.33301 17.333 11 37 11 59v16c0 25.333 -6 42 -18 50h-2c-24.667 0 -65.334 -70.667 -122.001 -212z" />
    <glyph glyph-name="f_r" unicode="fr" horiz-adv-x="987" 
d="M286 1020l12.9961 0.000976562c42 0 70.667 -16.333 86 -49v-2c0 -14.667 -23 -26.334 -69 -35.001c-52.667 -25.333 -102.667 -92.333 -150 -201c-32 -72.667 -62.667 -183.667 -92 -333c68 5.33301 145 34.666 231 87.999c119.333 84.667 179 162.667 179 234
c0 36.667 -20.667 72 -62 106v9c0 24.667 30.333 41.667 91 51h6c14.667 0 60.334 -19.333 137.001 -58c85.333 -62.667 128 -129.667 128 -201c0 -54 -28 -151 -84 -291c-20 -59.333 -30 -103.333 -30 -132v-14c0 -14 5 -22.667 15 -26c8.66699 8.66699 64 91 166 247
c44.667 77.333 83.667 133.333 117 168c20.667 16 44.667 24 72 24c14.667 -4 22 -8.33301 22 -13v-7c0 -6.66699 -22.667 -36.667 -68 -90c-107.333 -159.333 -189.666 -277 -246.999 -353c-30.667 -38.667 -66 -58 -106 -58c-78 0 -117 34.667 -117 104
c0 50 37.333 167 112 351c12 36 18 61.667 18 77v9c0 22.667 -28 62.334 -84 119.001c-33.333 -114.667 -93 -203 -179 -265c-69.333 -50 -150 -88.333 -242 -115c70.667 -54.667 106 -120.667 106 -198v-31c0 -76 -31 -151.667 -93 -227c-40 -40 -76 -60 -108 -60h-18
c-63.333 0 -103.666 56.667 -120.999 170c-7.33301 42.667 -11 90.334 -11 143.001c0 223.333 47.667 439.666 143 648.999c78.667 140 158.334 210 239.001 210zM59.9961 327.001c-11.333 -66.667 -19.333 -154.333 -24 -263c0 -74.667 11 -112 33 -112s49.333 33 82 99
c16 36.667 24 70.667 24 102v13c0 72 -38.333 125.667 -115 161z" />
    <glyph glyph-name="i_r" unicode="ir" horiz-adv-x="877" 
d="M413 878c15.333 0 35 -7.66992 59 -23.0029c91.333 -33.333 152.333 -83.333 183 -150c16.667 -33.333 25 -59 25 -77c0 -59.333 -28 -158.666 -84 -297.999c-22 -64 -33 -111.667 -33 -143c1.33301 -20.667 7 -31 17 -31c32 44.667 101.333 154.334 208 329.001
c42 70.667 78.667 106 110 106c0 2.66699 9.66699 4 29 4c14.667 -4 22 -8.33301 22 -13v-7c0 -7.33301 -15.333 -28.666 -46 -63.999c-31.333 -41.333 -108 -154 -230 -338c-46.667 -61.333 -79.667 -92 -99 -92c0 -3.33301 -11 -5.66602 -33 -6.99902
c-81.333 0 -122 35.333 -122 106c0 50 32.333 153.667 97 311c22 57.333 33 96.333 33 117c0 28.667 -28.667 70.667 -86 126c-52 -168 -137.333 -321 -256 -459c-56.667 -57.333 -107.334 -86 -152.001 -86c-52 0 -91.667 31 -119 93c-7.33301 24 -11 51 -11 81v20
c0 85.333 22 187.666 66 306.999c12 8.66699 26 13 42 13h15c42 0 70 -15.333 84 -46v-2c-50 -150 -75 -256 -75 -318c0 -30.667 9.66699 -47.667 29 -51c49.333 0 121.333 82.333 216 247c41.333 81.333 62 149 62 203c0 33.333 -15.333 60 -46 80l-3 11
c16.667 34 49.334 51 98.001 51z" />
    <glyph glyph-name="l_l" unicode="ll" horiz-adv-x="602" 
d="M216 1321c60.667 -8 91 -24.001 91 -48.001v-2c-148 -461.333 -222 -792.333 -222 -993v-3c0 -1.33301 -0.666992 -2 -2 -2l2 -4v-41c0 -31.333 8 -50.333 24 -57h6c52 0 153.667 294.667 305 884c28 88 52 168 72 240c16.667 16 30.667 24 42 24
c6 0 11.667 0.666992 17 2c61.333 -8.66699 92 -24.667 92 -48c-150 -468 -225 -805 -225 -1011c0 -86.667 7.33301 -130 22 -130c13.333 -24 20 -40 20 -48v-2c0 -12 -6 -18 -18 -18h-9c-31.333 0 -64 16 -98 48c-34.667 46.667 -52 116.334 -52 209.001h-2
c-54 -140.667 -112.667 -211 -176 -211h-5c-80.667 0 -127.667 69.667 -141 209c-2 28 -3 47 -3 57c0 206 69.667 515.333 209 928c15.333 11.333 32.333 17 51 17z" />
    <glyph glyph-name="o_r" unicode="or" horiz-adv-x="1070" 
d="M610 879c15.333 0 31.334 -5.99902 48.001 -17.999c62 -20.667 109 -49 141 -85c31.333 -30.667 53.333 -63.334 66 -98.001c7.33301 -22 11 -40.333 11 -55c0 -60.667 -27.667 -158 -83 -292c-24 -71.333 -36 -122 -36 -152c2.66699 -22.667 8.33398 -34 17.001 -34
c2.66699 0 13 14 31 42c116.667 186.667 194 307.667 232 363c25.333 28 52.666 42 81.999 42h9c18 -1.33301 27 -6.33301 27 -15v-6c0 -6 -18 -29.333 -54 -70l-205 -302c-26.667 -40 -58.334 -78.333 -95.001 -115c-21.333 -14 -41.333 -21 -60 -21h-15
c-54 0 -90.333 20.333 -109 61c-4 17.333 -6 32.333 -6 45c0 51.333 35 161 105 329c18.667 51.333 28 87 28 107v6c0 25.333 -33.667 71.333 -101 138c-12 -50 -30.333 -101 -55 -153c-17.333 -30 -38.666 -59.667 -63.999 -89
c-48.667 -46.667 -96.334 -78.667 -143.001 -96c-36 -12 -55.333 -19.333 -58 -22c-12.667 -30 -39.667 -68.333 -81 -115c-57.333 -52 -112 -78 -164 -78h-12c-50 0 -91 30 -123 90c-16 41.333 -24 76.333 -24 105v26c0 56 17.333 108.667 52 158c0 60 27.333 118 82 174
c40 34 83.667 51 131 51c82 0 137.667 -30.667 167 -92c12.667 -28.667 19 -62.334 19 -101.001c0 -38 -8 -87.333 -24 -148h2c92 41.333 160 114.333 204 219c6 21.333 9 38.333 9 51v7c0 32.667 -16.333 58.334 -49 77.001c-3.33301 4 -5 8.66699 -5 14v1
c0 22 26.333 39 79 51h24zM101.001 614.001c31.333 -12.667 47 -25.666 47 -38.999v-6c0 -7.33301 -10.667 -18 -32 -32c-12 -15.333 -18 -24.333 -18 -27c8 -26.667 24.667 -49 50 -67c18.667 -8 37 -12 55 -12h8c26 75.333 39 137.666 39 186.999v14
c0 42.667 -10 77 -30 103l-8 1c-18.667 0 -43.334 -17.333 -74.001 -52c-15.333 -20 -27.666 -43.333 -36.999 -70zM68.001 408.002v-27.999c0 -36.667 8 -68.334 24 -95.001c4.66699 -5.33301 9 -8 13 -8h3c20.667 0 46 31 76 93c-28 0 -66.667 12.667 -116 38z" />
    <glyph glyph-name="t_t" unicode="tt" 
d="M230 1343l23.0039 -0.000976562c56 -8 84 -24.333 84 -49l-31 -100h2c55.333 6 117.666 11.333 186.999 16c17.333 74 29 111 35 111c10.667 14.667 26.334 22 47.001 22h18c56 -8 84 -24.333 84 -49c0 -4 -8.66699 -31.333 -26 -82l11 -2h4
c126.667 0 218.667 -22.333 276 -67c6 -8 9 -14.667 9 -20c0 -23.333 -34.333 -38.666 -103 -45.999c-4.66699 0 -29 6.66699 -73 20c-26.667 2.66699 -64.334 4.66699 -113.001 6c-14.667 -1.33301 -30.334 -2 -47.001 -2c-111.333 -374 -167 -657.667 -167 -851
c0 -76.667 6.66699 -115 20 -115c15.333 -26 23 -44 23 -54c0 -12 -8.33301 -18.667 -25 -20c-46 10 -78.667 25 -98 45c-38 46 -57 119.333 -57 220h-3c-54.667 -144 -114.334 -216 -179.001 -216h-7c-71.333 0 -116.666 55 -135.999 165c-6 22.667 -9 59.667 -9 111v11
c0 146.667 40 359 120 637h-2c-70.667 -13.333 -134.334 -28 -191.001 -44h-4c-39.333 0 -74.333 21.333 -105 64v16c0 20.667 33.333 37.667 100 51c46 14.667 127.667 31.667 245 51c30.667 108 50.667 162 60 162c11.333 6 20.666 9 27.999 9zM108.004 247.999
c0 -46 6.66797 -68.999 20.001 -68.999c2 -4.66699 6.66699 -7 14 -7c44.667 0 126 217 244 651c31.333 123.333 55 211.666 71 264.999h-2c-104.667 -10.667 -168.334 -19.667 -191.001 -27c-104 -354 -156 -625 -156 -813z" />
    <glyph glyph-name="p_r" unicode="pr" horiz-adv-x="1159" 
d="M680 871l10.998 -0.000976562c18.667 0 35.334 -6 50.001 -18c42.667 -13.333 78.667 -31.666 108 -54.999c48 -33.333 82.667 -82.666 104 -147.999c2.66699 -10 4 -19 4 -27v-7c0 -58 -25.333 -148.333 -76 -271c-27.333 -76 -41 -131.667 -41 -167
c1.33301 -21.333 7.33301 -32 18 -32c34 45.333 92.333 134 175 266c43.333 66.667 75.666 113.334 96.999 140.001c23.333 24 48.666 36 75.999 36h2c12 0 20 -4.33301 24 -13v-4c0 -9.33301 -12.333 -26.666 -37 -51.999c-45.333 -58.667 -114.666 -160 -207.999 -304
c-31.333 -47.333 -65 -89 -101 -125c-20 -17.333 -44 -26 -72 -26c-44.667 0 -78.667 13.667 -102 41c-10.667 18 -16 37.667 -16 59v7c0 48 26.667 137 80 267c34.667 84.667 52 138.334 52 161.001c0 30.667 -29 74 -87 130c-17.333 -59.333 -38.666 -112 -63.999 -158
c-26 -46.667 -60.667 -96.334 -104 -149.001c-64.667 -68 -106 -106 -124 -114c-60.667 -48.667 -131.667 -81.667 -213 -99c-62.667 -9.33301 -103.667 -14 -123 -14h-9c-26 0 -43.333 5 -52 15c-24.667 -134.667 -37 -240.667 -37 -318v-44
c0 -14.667 -12.333 -24.334 -37 -29.001c-2.66699 -0.666992 -7.66699 -1 -15 -1h-10c-35.333 0 -63 12.667 -83 38c-1.33301 2.66699 -2 5.66699 -2 9v30c0 169.333 38 393.333 114 672c36.667 118 69.667 204.333 99 259c10.667 10.667 27 16 49 16h6
c33.333 0 60.333 -11 81 -33c4.66699 -4.66699 7 -10.667 7 -18c18.667 4 36.334 6 53.001 6c84 0 147.333 -29.333 190 -88c18.667 -30.667 28 -63 28 -97v-18c0 -70.667 -32 -151 -96 -241v-2c50.667 43.333 93.667 87.666 129 132.999c79.333 101.333 119 180 119 236v6
c0 34 -15.333 59.667 -46 77c-5.33301 5.33301 -8 10.666 -8 15.999v2c0 20.667 24.333 37 73 49c4 0.666992 8.66699 1 14 1zM57.998 243.999c4 5.33301 22.3311 13.665 54.998 24.998c38 16.667 81.667 52.334 131 107.001c70 89.333 105 172.333 105 249
c0 41.333 -11 72 -33 92v1h-6c-25.333 -1.33301 -57.666 -18.666 -96.999 -51.999c-39.333 -42 -66.666 -84.667 -81.999 -128c-18 -46.667 -42 -142.667 -72 -288z" />
    <glyph glyph-name="u_r" unicode="ur" horiz-adv-x="1148" 
d="M681 888h11.9971c14.667 0 30.667 -6.66699 48 -20c21.333 -2.66699 57.333 -20.334 108 -53.001c48.667 -41.333 80.334 -80.666 95.001 -117.999c10.667 -28.667 16 -51.334 16 -68.001c0 -58.667 -26.667 -153.667 -80 -285c-26 -73.333 -39 -126 -39 -158v-13
c1.33301 -18 7.33301 -27 18 -27c29.333 40 112.333 166.667 249 380c33.333 45.333 61 68 83 68c0 2 4 3.33301 12 4h13c13.333 0 20 -5 20 -15v-4c0 -7.33301 -17.333 -30 -52 -68l-201 -304c-29.333 -44.667 -62 -85 -98 -121c-19.333 -15.333 -41.333 -23 -66 -23h-10
c-58 0 -95 21.667 -111 65c-3.33301 11.333 -5 21.333 -5 30v18c0 48.667 33.667 155 101 319c21.333 54 32 92.667 32 116v6c0 25.333 -29 67 -87 125h-1c-23.333 -78.667 -61.666 -170.667 -114.999 -276c-94 -176 -171 -264 -231 -264c-32.667 0 -69 13 -109 39
c-23.333 20.667 -35 46 -35 76c-37.333 -49.333 -74 -86.333 -110 -111c-15.333 -14.667 -33.333 -22 -54 -22h-7c-67.333 0 -113.666 28.667 -138.999 86c-4.66699 20 -7 35.667 -7 47v27c0 92 37.667 234 113 426c11.333 14.667 29 22 53 22
c44.667 0 76.334 -14.333 95.001 -43c0 -2.66699 0.333008 -5 1 -7c-72.667 -199.333 -110.334 -342.666 -113.001 -429.999c0 -16 3.33301 -25 10 -27c29.333 14 94.333 131 195 351c43.333 104.667 71 157 83 157c0 3.33301 6.33301 5 19 5h7c22 0 45.333 -8.66699 70 -26
c6 -7.33301 9.66699 -14.666 11 -21.999c-59.333 -202.667 -89 -339.334 -89 -410.001c0 -36.667 7.66699 -55 23 -55c36 0 90.333 75.333 163 226c40.667 94 61 172 61 234c0 34.667 -14.333 60.667 -43 78c-2 4 -3 8.66699 -3 14c0 22.667 25.333 39 76 49
c0 1.33301 6 2 18 2z" />
    <glyph glyph-name="c_r" unicode="cr" horiz-adv-x="1038" 
d="M584 901c20 0 38.666 -6.33398 55.999 -19.001c82 -27.333 143 -72.666 183 -135.999c22 -37.333 34 -68.666 36 -93.999v-20c0 -54 -27 -147 -81 -279c-24 -68 -36.667 -119.333 -38 -154c0 -24.667 6.33301 -37 19 -37c28.667 41.333 97 152.333 205 333
c28 45.333 50.667 75.666 68 90.999c20.667 16.667 43 25 67 25c13.333 0 21.333 -5.33301 24 -16c0 -8 -13.667 -27.667 -41 -59c-47.333 -62.667 -112.333 -163.334 -195 -302.001c-23.333 -38.667 -52.333 -78 -87 -118c-24 -25.333 -53 -38 -87 -38
c-26.667 0 -54 7.33301 -82 22c-24.667 20 -37 44 -37 72v10c0 2.66699 -0.333008 4.66699 -1 6c0 47.333 33.333 152.333 100 315c22 58 33 98 33 120v7c0 24 -27.333 64.333 -82 121l-4 3h-2c0 -21.333 -25 -80.666 -75 -177.999c-32.667 -60 -76.667 -123.667 -132 -191
c-116.667 -136 -228.667 -204 -336 -204c-62 0 -115 29.333 -159 88c-18.667 32 -28 67.333 -28 106c0 84.667 35 177 105 277c78.667 99.333 159.667 149 243 149h25c52.667 0 86 -15.667 100 -47c3.33301 -12 5 -20 5 -24c0 -14.667 -13.333 -61 -40 -139
c-6 -36.667 -13.667 -55 -23 -55c-10 -5.33301 -24 -8 -42 -8c-50 2.66699 -80.667 17.667 -92 45v3c0 15.333 8.33301 48 25 98c-47.333 -46 -81.666 -90.333 -102.999 -133c-34 -71.333 -51 -128.666 -51 -171.999v-25c0 -47.333 16.667 -79 50 -95c11.333 -4 23 -6 35 -6
c68 0 150.333 64.667 247 194c92.667 138 139 246.667 139 326c0 33.333 -12.333 56.666 -37 69.999c-3.33301 4 -5 9 -5 15v3c0 10.667 10.667 21.667 32 33c22 11.333 43 17 63 17z" />
    <glyph glyph-name=".notdef" horiz-adv-x="1024" 
d="M100 0v1434h824v-1434h-824zM150 50h724v1334h-724v-1334zM325 1148c20.667 18.667 40.002 32.998 58.002 42.998c35.333 20 72.666 30 111.999 30c61.333 0 110.666 -15.833 147.999 -47.5s56 -74.167 56 -127.5c0 -32.667 -7.66699 -65.5 -23 -98.5
s-44.333 -76.167 -87 -129.5c-42 -53.333 -75 -97.333 -99 -132s-36 -67.667 -36 -99c0 -25.333 8 -69.666 24 -132.999h-32c-23.333 64.667 -35 114 -35 148c0 50.667 27.167 123.334 81.5 218.001s81.5 167 81.5 217c0 38 -11 68 -33 90s-52.333 33 -91 33
c-25.333 0 -48.333 -5.66699 -69 -17c-17.333 -10 -36 -23.333 -56 -40v45zM389.002 333.998l57 57.999c7.33301 6.66699 14 10 20 10c6.66699 0 14 -3.66699 22 -11l56 -60c6 -7.33301 9 -14 9 -20c0 -7.33301 -3.33301 -14.666 -10 -21.999l-56 -62
c-9.33301 -9.33301 -16.333 -14 -21 -14c-7.33301 0 -14 3.33301 -20 10l-61 71c-4.66699 6 -7 12 -7 18c0 6.66699 3.66699 14 11 22z" />
    <glyph glyph-name=".notdef" horiz-adv-x="1024" 
d="M100 0v1434h824v-1434h-824zM150 50h724v1334h-724v-1334zM325 1148c20.667 18.667 40.002 32.998 58.002 42.998c35.333 20 72.666 30 111.999 30c61.333 0 110.666 -15.833 147.999 -47.5s56 -74.167 56 -127.5c0 -32.667 -7.66699 -65.5 -23 -98.5
s-44.333 -76.167 -87 -129.5c-42 -53.333 -75 -97.333 -99 -132s-36 -67.667 -36 -99c0 -25.333 8 -69.666 24 -132.999h-32c-23.333 64.667 -35 114 -35 148c0 50.667 27.167 123.334 81.5 218.001s81.5 167 81.5 217c0 38 -11 68 -33 90s-52.333 33 -91 33
c-25.333 0 -48.333 -5.66699 -69 -17c-17.333 -10 -36 -23.333 -56 -40v45zM389.002 333.998l57 57.999c7.33301 6.66699 14 10 20 10c6.66699 0 14 -3.66699 22 -11l56 -60c6 -7.33301 9 -14 9 -20c0 -7.33301 -3.33301 -14.666 -10 -21.999l-56 -62
c-9.33301 -9.33301 -16.333 -14 -21 -14c-7.33301 0 -14 3.33301 -20 10l-61 71c-4.66699 6 -7 12 -7 18c0 6.66699 3.66699 14 11 22z" />
    <glyph glyph-name="space" unicode=" " horiz-adv-x="508" 
 />
    <glyph glyph-name="space" unicode="&#xa0;" horiz-adv-x="508" 
 />
    <glyph glyph-name="exclam" unicode="!" horiz-adv-x="409" 
d="M275 1292c61.333 -6.66699 92 -22.334 92 -47.001c-70 -192.667 -149.333 -488.667 -238 -888c0 -33.333 -9.33301 -55.666 -28 -66.999h-16c-23.333 14 -35 38.333 -35 73v35c0 140 46.333 404.333 139 793c18 67.333 39.333 101 64 101h22zM75 245
c32 0 54.667 -20.334 68 -61.001v-21c0 -36 -18.333 -60.333 -55 -73h-24c-34 0 -57.333 21 -70 63v24c0 34.667 22.667 57.334 68 68.001h13z" />
    <glyph glyph-name="quotedbl" unicode="&#x22;" horiz-adv-x="360" 
d="M121 1496l14.001 -1.99805c35.333 -4.66699 49.666 -29.334 42.999 -74.001l-4 -32c-8.66699 -56 -37.334 -86.667 -86.001 -92l-14 2c-20 3.33301 -33 12.666 -39 27.999l2 10c32.667 12.667 52 39.667 58 81l2 15c4 24 3 40.667 -3 50l1 4
c4.66699 8.66699 13.334 12 26.001 10zM261.001 1496l14.001 -1.99805c35.333 -4.66699 49.666 -29.334 42.999 -74.001l-4 -32c-8.66699 -56 -37.334 -86.667 -86.001 -92l-14 2c-20 3.33301 -33 12.666 -39 27.999l2 10c32.667 12.667 52 39.667 58 81l2 15
c4 24 3 40.667 -3 50l1 4c4.66699 8.66699 13.334 12 26.001 10z" />
    <glyph glyph-name="numbersign" unicode="#" horiz-adv-x="750" 
d="M303 796l16 0.000976562c48 -6.66699 72 -21 72 -43l-32 -86h75c12 48 31 72 57 72h16c48 -6 72 -19.333 72 -40v-3c0 -4.66699 -5.33301 -19 -16 -43c91.333 -12.667 137 -27.667 137 -45v-16c-10 -12.667 -24.333 -19 -43 -19c-75.333 10.667 -115.666 16 -120.999 16
c-23.333 -78.667 -35 -119 -35 -121h16c80.667 -4 121 -20 121 -48v-3c-6 -14 -17.667 -21 -35 -21h-8c-50 5.33301 -78.667 8 -86 8h-8c-8.66699 -0.666992 -13 -2.33398 -13 -5.00098c-8.66699 -90 -16 -135 -22 -135c-6 -5.33301 -12 -8 -18 -8h-22
c-24.667 0 -43.334 12.667 -56.001 38c5.33301 50.667 8 83.667 8 99c-68 -6.66699 -102 -13.667 -102 -21c-10.667 -47.333 -16 -89.333 -16 -126c0 -6.66699 0.666992 -15 2 -25c-3.33301 -14 -14 -21 -32 -21h-8c-42.667 0 -64 18.667 -64 56v33c0 12 1 31.667 3 59
l-19 -3h-3c-48 6.66699 -72 21 -72 43c0 15.333 36.667 31.333 110 48c0 11.333 8 53.333 24 126h-3c-21.333 -12.667 -39.333 -19 -54 -19c-44.667 0 -71.334 14.333 -80.001 43v6c16.667 19.333 60.334 39 131.001 59c25.333 0 38 11.667 38 35
c22.667 71.333 39.667 107 51 107zM335 597.001l-40.001 -142c48 6 78.333 10.333 91 13c3.33301 29.333 11.333 73.333 24 132h-8c-15.333 0 -37.666 -1 -66.999 -3z" />
    <glyph glyph-name="dollar" unicode="$" horiz-adv-x="880" 
d="M531 1297l25.999 -0.000976562c43.333 -8 65 -23.333 65 -46l-23 -69c64.667 0 124.667 -30.333 180 -91c24 -42 36 -89 36 -141c-11.333 -13.333 -28.666 -20 -51.999 -20h-16c-56.667 6 -85 24.667 -85 56c0 70 -21 109.333 -63 118c-19.333 0 -29 -11 -29 -33
c-24 -100.667 -51.333 -223 -82 -367c133.333 -38 200 -87 200 -147c0 -99.333 -88.333 -197.666 -265 -294.999c-24 0 -36 -26 -36 -78c-2.66699 -1.33301 -4 -11.333 -4 -30c6.66699 -2 10 -8.33301 10 -19c0 -20 -15.333 -30 -46 -30c-42.667 0 -66.667 15.333 -72 46
c-2 8.66699 -3 17.334 -3 26.001c2 19.333 3 31.333 3 36c-23.333 -6.66699 -59.333 -11 -108 -13c-60 7.33301 -92.667 23.666 -98 48.999v10c0 20 42.667 30 128 30c60.667 17.333 91 30.333 91 39c0 14.667 19.667 128 59 340h-3c-155.333 49.333 -233 118.333 -233 207
c0 74 69 153.667 207 239c28.667 19.333 78.667 40 150 62c14 80.667 35 121 63 121zM264.999 851.999c0 -40.667 34 -74.667 102 -102l65 295c-111.333 -68.667 -167 -133 -167 -193zM471.999 622.999c-4.66699 -8.66699 -19 -79.667 -43 -213
c70 60.667 105 116.334 105 167.001c0 13.333 -20.667 28.666 -62 45.999z" />
    <glyph glyph-name="percent" unicode="%" horiz-adv-x="856" 
d="M421 1278l54.002 -0.00195312c170 0 273.667 -28.667 311 -86c2 -3.33301 3 -7.33301 3 -12v-3c0 -30 -124.667 -218.333 -374 -565c-137.333 -207.333 -206 -325.666 -206 -354.999c-14.667 -26 -26.334 -69.333 -35.001 -130c-8.66699 -8 -19.334 -12 -32.001 -12h-6
c-38 6.66699 -57 20.334 -57 41.001c0 127.333 152 405.333 456 834l121 199c-36 12.667 -94 19 -174 19c-15.333 0 -49.333 -2 -102 -6c4.66699 -22 8 -45.333 10 -70c0 -106.667 -44.333 -191 -133 -253c-21.333 -8.66699 -39.333 -13 -54 -13h-4
c-88.667 9.33301 -133 47.333 -133 114v19c0 96 40.333 174.333 121 235c0 11.333 48.667 24 146 38c24 4 53.333 6 88 6zM199.002 985.998v-6h4c36 60 54 115 54 165c-38.667 -54.667 -58 -107.667 -58 -159zM529.002 478.998c68 0 113.333 -24.332 136 -72.999
c4.66699 -16 7 -30.667 7 -44c0 -50.667 -27.667 -113 -83 -187c-32 -32 -66.667 -48 -104 -48c-88.667 11.333 -133 54.666 -133 129.999v7c0 97.333 38 165 114 203c18 8 39 12 63 12zM475.002 247.999c2 -4 3 -8.33301 3 -13h10c28.667 28 51 81 67 159v12h-7
c-32.667 -30 -57 -78.667 -73 -146v-12z" />
    <glyph glyph-name="ampersand" unicode="&#x26;" horiz-adv-x="865" 
d="M438 1287c42.667 0 73.3369 -12.667 92.0039 -38c-2 -12 -3 -37.333 -3 -76c26 -3.33301 58.667 -23.333 98 -60c27.333 -35.333 41 -76.333 41 -123c-9.33301 -110 -24 -165 -44 -165l-22 -3h-32c-50.667 10 -76 26.667 -76 50c16.667 52.667 25 99.334 25 140.001
c0 42 -12.667 73.667 -38 95c-68 0 -131.333 -49.667 -190 -149c-16.667 -45.333 -25 -83.333 -25 -114v-26c0 -69.333 36 -111.333 108 -126c21.333 -19.333 32.666 -32 33.999 -38v-23c0 -4 -26.333 -23 -79 -57c-76 -80.667 -114 -156.667 -114 -228
c0 -34 14.667 -51 44 -51c59.333 0 124 55 194 165c20.667 31.333 37.667 90.666 51 177.999c19.333 27.333 49.666 41 90.999 41h32c76 0 126.667 -19 152 -57v-16c-8.66699 -14.667 -22.334 -22 -41.001 -22h-22c-13.333 0 -35.666 5.33301 -66.999 16h-6
c-23.333 0 -35 -17 -35 -51c-39.333 -125.333 -102.666 -215 -189.999 -269c-38 -26 -63.333 -39 -76 -39c-4.66699 -84 -13.334 -126 -26.001 -126c-6.66699 -4.66699 -21.334 -8 -44.001 -10c-42 0 -72.667 13.667 -92 41c4.66699 27.333 8 56 10 86
c-40 0 -77 26.333 -111 79c-8.66699 17.333 -13 35.333 -13 54v3c0 98 59.333 193.333 178 286c-82.667 50.667 -124 115 -124 193v41c0 110 63.333 200 190 270c31.333 12.667 52.666 19 63.999 19c0 71.333 11.333 107 34 107c11.333 2 22 3 32 3z" />
    <glyph glyph-name="quotesingle" unicode="'" horiz-adv-x="220" 
d="M121 1496l14.001 -1.99805c35.333 -4.66699 49.666 -29.334 42.999 -74.001l-4 -32c-8.66699 -56 -37.334 -86.667 -86.001 -92l-14 2c-20 3.33301 -33 12.666 -39 27.999l2 10c32.667 12.667 52 39.667 58 81l2 15c4 24 3 40.667 -3 50l1 4
c4.66699 8.66699 13.334 12 26.001 10z" />
    <glyph glyph-name="parenleft" unicode="(" horiz-adv-x="884" 
d="M470 -495c-54 0 -102.667 36.334 -146 109.001c-160.667 224.667 -241 484 -241 778v23c0 340 104 673 312 999c34.667 54.667 95.667 131 183 229c39.333 41.333 68 62 86 62h32c46 0 80.333 -19 103 -57v-10c0 -9.33301 -21.333 -34 -64 -74
c-118.667 -136 -197 -243.333 -235 -322c-66.667 -114 -121 -236.667 -163 -368c-59.333 -182.667 -89 -361 -89 -535c0 -304.667 90.667 -567.334 272 -788.001l4 -16c0 -18 -18 -28 -54 -30z" />
    <glyph glyph-name="parenright" unicode=")" horiz-adv-x="806" 
d="M412 1705c54 0 102.667 -36.001 146 -108.001c160.667 -225.333 241 -485 241 -779v-23c0 -339.333 -104 -672 -312 -998c-34.667 -55.333 -95.667 -131.666 -183 -228.999c-39.333 -42 -68 -63 -86 -63h-32c-46 0 -80.333 19.333 -103 58v9c0 9.33301 21.333 34 64 74
c118.667 136.667 197 244 235 322c66.667 114 121 237 163 369c59.333 182 89 360.333 89 535c0 304 -90.667 566.333 -272 787l-4 16c0 18 18 28 54 30z" />
    <glyph glyph-name="asterisk" unicode="*" horiz-adv-x="353" 
d="M167 1594l15.001 -0.000976562c19.333 0 29 -11.667 29 -35h3c0 9.33301 7 14 21 14h9c15.333 0 27 -5.66699 35 -17v-6c-2.66699 -6 -14.334 -19.667 -35.001 -41c37.333 0 56 -6 56 -18v-6c-2.66699 -7.33301 -11.667 -11 -27 -11h-47
c25.333 -23.333 38 -36.333 38 -39v-8c-2 -6 -7.66699 -9 -17 -9h-15c-8.66699 0 -19.334 5.66699 -32.001 17h-3v-8c0 -24 -7 -36 -21 -36h-14c-20 0 -30 12 -30 36v3c-7.33301 -4 -15 -6 -23 -6c-25.333 0 -38 8.66699 -38 26c11.333 10 19 15 23 15v6
c-29.333 4.66699 -44 11.334 -44 20.001v6c0 8 17.667 12 53 12h17l-38 41v6c0 2.66699 4 6.66699 12 12h15c12.667 0 24.334 -5 35.001 -15c0 27.333 7.66699 41 23 41z" />
    <glyph glyph-name="plus" unicode="+" horiz-adv-x="779" 
d="M370 792h20.001c40.667 0 66 -13.333 76 -40c0 -26 -5.33301 -94 -16 -204h168c42 0 74 -14.667 96 -44v-20c0 -18.667 -40 -28 -120 -28h-152c-12 -162.667 -21.333 -244 -28 -244c-10 -5.33301 -20.667 -8 -32 -8h-24c-30.667 0 -53.334 13.333 -68.001 40l20 212h-28
c-38.667 0 -82.667 -1.33301 -132 -4c-61.333 14.667 -92 30.667 -92 48v16c0 21.333 64 32 192 32h68c8.66699 157.333 18 236 28 236c8.66699 5.33301 16.667 8 24 8z" />
    <glyph glyph-name="comma" unicode="," horiz-adv-x="225" 
d="M103 255l14.001 -0.000976562c35.333 0 53 -22.667 53 -68v-32c0 -56 -23.667 -90.333 -71 -103h-14c-20 0 -34.333 7 -43 21v11c30.667 17.333 46 47 46 89v14c0 24.667 -3.33301 41.334 -10 50.001v4c3.33301 9.33301 11.666 14 24.999 14z" />
    <glyph glyph-name="hyphenminus" unicode="-" horiz-adv-x="617" 
d="M171 592h318.001c35.333 0 61.666 -13.333 78.999 -40v-16c0 -18.667 -39.333 -28 -118 -28h-294c-10 0 -23 -1.33301 -39 -4c-48 0 -76.667 18.667 -86 56v4c0 18.667 46.667 28 140 28z" />
    <glyph glyph-name="hyphenminus" unicode="&#xad;" horiz-adv-x="617" 
d="M171 592h318.001c35.333 0 61.666 -13.333 78.999 -40v-16c0 -18.667 -39.333 -28 -118 -28h-294c-10 0 -23 -1.33301 -39 -4c-48 0 -76.667 18.667 -86 56v4c0 18.667 46.667 28 140 28z" />
    <glyph glyph-name="period" unicode="." horiz-adv-x="197" 
d="M97 242c26.667 0 45.667 -16.668 57 -50.001v-19c0 -29.333 -15.333 -49.333 -46 -60h-20c-28 0 -47.333 17.333 -58 52v21c0 28.667 18.667 47.334 56 56.001h11z" />
    <glyph glyph-name="slash" unicode="/" horiz-adv-x="756" 
d="M597 1303l22.001 1.00195c36.667 2 64 -9.33301 82 -34l1 -22c-68.667 -98 -147.334 -247.333 -236.001 -448c-131.333 -300 -241.666 -567 -330.999 -801l-15 -14l-42 -2c-13.333 -0.666992 -22.333 4.66602 -27 15.999l-1 13c-3.33301 84.667 102 384.667 316 900
c109.333 249.333 178.666 377.666 207.999 384.999z" />
    <glyph glyph-name="zero" unicode="0" horiz-adv-x="824" 
d="M513 1249l14.999 -0.000976562c139.333 0 209 -94.667 209 -284v-10c0 -2.66699 0.333008 -5 1 -7c-0.666992 -2.66699 -1 -5 -1 -7v-8c0 -126.667 -25.667 -270 -77 -430c-27.333 -77.333 -58.666 -144.666 -93.999 -201.999c-16.667 -28 -42.667 -60.667 -78 -98
c-60 -58 -122 -87 -186 -87h-8c-78 0 -138 34.333 -180 103c-29.333 54 -44 119 -44 195v35c0 111.333 23.667 242.333 71 393c28 81.333 61.333 153 100 215c18.667 30 47 65 85 105l38 32c53.333 36.667 103 55 149 55zM213.999 394.999
c0 -87.333 14.667 -148.001 44 -182.001c11.333 -10.667 24.666 -16 39.999 -16c98 0 183.667 127.667 257 383c41.333 164.667 62 307.334 62 428.001c0 87.333 -10.667 140.333 -32 159c-4 3.33301 -17.333 5 -40 5c-49.333 0 -101.666 -44 -156.999 -132
c-33.333 -52 -68 -129.667 -104 -233c-46.667 -146 -70 -283.333 -70 -412z" />
    <glyph glyph-name="one" unicode="1" horiz-adv-x="552" 
d="M400 1280h9.00098c40 0 67 -20.333 81 -61c2.66699 -10.667 4 -20.334 4 -29.001c0 -40 -18.667 -110.667 -56 -212c-86.667 -254.667 -151.667 -454.667 -195 -600c-34.667 -120 -52 -202.333 -52 -247v-7c-3.33301 -16 -16 -24 -38 -24h-9c-28 0 -50.333 11 -67 33
c-2 5.33301 -3.33301 13.333 -4 24c0 92.667 63.333 344.667 190 756c35.333 104.667 53 163.334 53 176.001v6c0 1.33301 -0.666992 2.33301 -2 3c-8 -3.33301 -20 -16 -36 -38c-30.667 -44.667 -54.334 -77.667 -71.001 -99c-12 -8.66699 -27.667 -13 -47 -13
c-33.333 0 -61 10.667 -83 32c-5.33301 6 -8 11.667 -8 17c0 6 16.333 28.333 49 67c86 106.667 152.667 172.667 200 198c26 12 53.333 18 82 18z" />
    <glyph glyph-name="two" unicode="2" horiz-adv-x="914" 
d="M568 1264c91.333 0 164.002 -26.335 218.002 -79.002c30 -34 45 -74.333 45 -121v-10c0 -80 -39.667 -177.333 -119 -292c-28 -38 -69.667 -86.667 -125 -146c-50 -52 -112.667 -114 -188 -186c-117.333 -115.333 -176 -185.666 -176 -210.999
c0 -3.33301 3.33301 -5.66602 10 -6.99902l9 1h1c15.333 0 94 5 236 15c22.667 0.666992 39 1 49 1c78.667 0 137.667 -12.667 177 -38c8 -8 12 -15 12 -21c0 -17.333 -17.667 -28 -53 -32h-4c-18.667 0 -41.334 6 -68.001 18c-19.333 5.33301 -43 8 -71 8h-2
c-30 0 -112.667 -7.66699 -248 -23c-17.333 -2 -37 -3 -59 -3h-1c-88.667 0 -133 27.667 -133 83v5c0 51.333 60.333 133.333 181 246c130.667 125.333 209.334 204 236.001 236c54.667 62.667 92.667 112.667 114 150c19.333 29.333 38.666 68.666 57.999 117.999
c14 40.667 21 75.334 21 104.001v5c0 45.333 -18 76 -54 92c-12 5.33301 -26 8 -42 8h-7c-45.333 0 -94.666 -19.333 -147.999 -58c-45.333 -34.667 -76 -78.667 -92 -132c-2 -11.333 -4 -28.333 -6 -51c-9.33301 -14 -26.333 -21 -51 -21h-3
c-36.667 0 -65.334 11 -86.001 33c-2.66699 4 -4.66699 9 -6 15l1 4v3c0 60 28.333 118.667 85 176c48 41.333 95 69 141 83c49.333 18 98.666 27 147.999 27z" />
    <glyph glyph-name="three" unicode="3" horiz-adv-x="892" 
d="M541 1290l15.999 -0.00292969c61.333 0 120 -23 176 -69c54 -52 81 -111.667 81 -179v-4c0 -92.667 -37 -173.667 -111 -243c-29.333 -25.333 -54.333 -43.666 -75 -54.999c-10 -5.33301 -15 -8.66602 -15 -9.99902c112.667 -70 169 -153 169 -249
c0 -79.333 -43 -158 -129 -236c-103.333 -83.333 -208.333 -125 -315 -125c-92 0 -163.667 37 -215 111c-13.333 20.667 -25 46.334 -35 77.001c-12 44.667 -18 84 -18 118c0 8 8.66699 15.333 26 22c8.66699 1.33301 17 2 25 2h6c34.667 0 63 -10 85 -30
c5.33301 -4 8 -18.333 8 -43c0 -23.333 6.66699 -52.333 20 -87c24.667 -51.333 65.667 -77 123 -77s117.333 25 180 75c35.333 34 55 56.333 59 67c28 42 42 82.667 42 122v8c0 76 -48.333 143 -145 201c-17.333 9.33301 -36.333 19 -57 29
c-5.33301 11.333 -8 20.666 -8 27.999c0 16.667 10 28.334 30 35.001c39.333 18.667 78.333 43.334 117 74.001c71.333 62.667 107 127.334 107 194.001v13c0 54.667 -18 96.667 -54 126c-16.667 12.667 -34.667 19 -54 19h-5c-43.333 0 -86.666 -31 -129.999 -93l-31 -56
c-11.333 -10.667 -28.333 -16 -51 -16c-38.667 0 -68.667 12.333 -90 37c-2.66699 6 -4 10 -4 12c4.66699 19.333 23.667 50.666 57 93.999c32.667 35.333 55.667 55.666 69 60.999c47.333 31.333 96 47 146 47z" />
    <glyph glyph-name="four" unicode="4" horiz-adv-x="860" 
d="M398 1278l4 -1.00098h5c33.333 0 61 -11.333 83 -34c3.33301 -6 5 -10.667 5 -14v0c-8.66699 -64 -57.667 -189.667 -147 -377l-127 -250c1.33301 -0.666992 2.33301 -1 3 -1c8.66699 0 91 8 247 24c20.667 1.33301 35.667 2 45 2c38 218 77.667 405.333 119 562
c10 12.667 28.333 19 55 19c36 0 65 -11.333 87 -34c3.33301 -6 5 -10.333 5 -13v-3c-41.333 -141.333 -84 -310.666 -128 -507.999c0 -2 -2.33301 -12.333 -7 -31c37.333 -4.66699 75 -19.667 113 -45c16.667 -13.333 25 -24 25 -32v-6c-6 -17.333 -23.333 -26 -52 -26h-5
c-32 0 -60.333 10 -85 30c-4.66699 2 -8 3 -10 3h-1c-32.667 -172 -49 -310.333 -49 -415c-2 -8 -6.33301 -14 -13 -18c-7.33301 -4 -16 -6 -26 -6h-6c-24.667 0 -45.667 8.66699 -63 26c-6 7.33301 -9 14.666 -9 21.999c0 96.667 12 227.334 36 392.001v0
c-134 -14.667 -217 -22 -249 -22c-85.333 0 -143 18.333 -173 55c-7.33301 11.333 -11 22.333 -11 33c0 14 6.33301 31.667 19 53c77.333 150 139 276.333 185 379c32.667 72 57 141.333 73 208c0 10 10 18 30 24z" />
    <glyph glyph-name="five" unicode="5" horiz-adv-x="951" 
d="M243 1282h506c50 0 84.667 -13 104 -39c2.66699 -4.66699 4 -8.33398 4 -11.001v-6c-3.33301 -17.333 -23 -27 -59 -29c-51.333 0.666992 -92.666 1 -123.999 1h-287c-30.667 0 -73.334 -0.333008 -128.001 -1c-26 0 -52.667 9.33301 -80 28
c-8.66699 8.66699 -13 17.334 -13 26.001c0 15.333 16.667 25.333 50 30c6.66699 0.666992 15.667 1 27 1zM312 1184c38.667 0 68.0029 -8.66797 88.0029 -26.001c4 -4 6 -8.33301 6 -13v-3c-40.667 -112 -61.667 -194 -63 -246c42 10 84 15 126 15
c63.333 0 122.666 -15.333 177.999 -46c84 -52 126 -133.667 126 -245c0 -82.667 -22 -168.667 -66 -258c-15.333 -29.333 -37 -60.666 -65 -93.999c-90 -97.333 -195.667 -146 -317 -146h-8c-69.333 0 -139.333 17 -210 51c-19.333 13.333 -29 24 -29 32
c0 7.33301 8.33301 12 25 14c20.667 0 50.667 -8.66699 90 -26c24.667 -9.33301 51 -14 79 -14c78.667 0 153.667 44 225 132c37.333 51.333 62.666 94.666 75.999 129.999c32 72.667 48 143.334 48 212.001c0 114 -46 171 -138 171c-34 0 -79 -9.66699 -135 -29
c-12.667 -2.66699 -23.334 -4 -32.001 -4c-36.667 0 -69 10.333 -97 31c-19.333 17.333 -29 42.333 -29 75v10c0 54.667 16 135.667 48 243c4 10 11 18 21 24c16 6.66699 33.667 10 53 10z" />
    <glyph glyph-name="six" unicode="6" horiz-adv-x="768" 
d="M532 1291l8.99805 0.00195312c27.333 0 52.333 -8.33301 75 -25c8.66699 -8.66699 13 -15.667 13 -21v-3c0 -10 -8.66699 -18.667 -26 -26c-118 -70.667 -215.667 -200.667 -293 -390l-19 -51c42 12.667 80.333 19 115 19c78.667 0 145.667 -24 201 -72
c22 -22 35.333 -37.333 40 -46c11.333 -16.667 19.666 -32.334 24.999 -47.001c16.667 -41.333 25 -83 25 -125v-12c0 -62.667 -15 -123 -45 -181c-10.667 -20.667 -27.667 -44 -51 -70c-19.333 -20.667 -36 -36 -50 -46c-68 -48.667 -138 -73 -210 -73h-4
c-62 0 -116 20 -162 60c-63.333 58 -95 143.667 -95 257v19c0 98 21 211.667 63 341c26.667 74.667 56.334 141.334 89.001 200.001c22.667 41.333 52.667 85.666 90 132.999c14.667 19.333 34.334 41.333 59.001 66c30 27.333 57 48.666 81 63.999
c28.667 18.667 49.334 28 62.001 28c2 0.666992 4.66699 1 8 1zM227.998 432.002c0 -118 26.3311 -191 78.998 -219c14.667 -6.66699 28.334 -10 41.001 -10h8c36.667 0 77.334 19.667 122.001 59c26 26.667 41.333 45 46 55c10.667 16 18.667 29.667 24 41
c24.667 51.333 37 105.333 37 162c0 73.333 -20.667 130.333 -62 171c-27.333 23.333 -59 35 -95 35c-52.667 0 -111.667 -23 -177 -69c-15.333 -78.667 -23 -153.667 -23 -225z" />
    <glyph glyph-name="seven" unicode="7" horiz-adv-x="862" 
d="M482 1282c144 0 235.332 -28.9961 273.999 -86.9961c8.66699 -14.667 13 -30 13 -46v-3c0 -27.333 -12.667 -61.333 -38 -102c-61.333 -108.667 -122 -233 -182 -373c60.667 -6.66699 97 -11.334 109 -14.001c21.333 -6.66699 35.666 -15.334 42.999 -26.001
c3.33301 -5.33301 5 -9.66602 5 -12.999c0 -14.667 -13 -24.667 -39 -30c-7.33301 -1.33301 -14.666 -2 -21.999 -2s-49.666 4.33301 -126.999 13l-197 -475c-4.66699 -8.66699 -14 -15 -28 -19c-10 -2.66699 -18.667 -4 -26 -4h-10c-24.667 0 -47.334 7 -68.001 21
c-9.33301 8 -14 16 -14 24c0 3.33301 7 21.666 21 54.999l169 410v0c-78.667 4.66699 -118 7.66699 -118 9c-4.66699 0 -15 4 -31 12c-15.333 9.33301 -23 19 -23 29c0 16.667 16.333 27 49 31c2.66699 0.666992 6.33398 1 11.001 1c13.333 0 61.333 -2.66699 144 -8
c72.667 168.667 141.667 308.667 207 420c12.667 23.333 19 42.666 19 57.999c0 18 -10.667 30.333 -32 37c-18 6.66699 -42.333 10 -73 10h-14c-70.667 0 -179.667 -15.333 -327 -46c-7.33301 -0.666992 -12.333 -1 -15 -1c-28.667 0 -53.667 8 -75 24
c-8 7.33301 -12 14.333 -12 21c0 17.333 19.667 28.666 59 33.999c132.667 26.667 248.667 40 348 40z" />
    <glyph glyph-name="eight" unicode="8" horiz-adv-x="855" 
d="M538 1283l14.001 -0.000976562c56 0 106.333 -17 151 -51c37.333 -32 56 -72.667 56 -122v-9c0 -76 -40.667 -187 -122 -333c-42.667 -77.333 -73 -135.333 -91 -174c44 -100 66 -184 66 -252v-11c0 -66.667 -21 -121 -63 -163c-50 -44.667 -119.333 -67 -208 -67h-11
c-68.667 0 -126.334 17.333 -173.001 52c-48 34.667 -72 85.667 -72 153c0 60.667 19.333 132.334 58 215.001c14.667 30.667 34.667 64.667 60 102c11.333 16 26.666 34.667 45.999 56c24.667 24.667 43.334 40 56.001 46c2.66699 1.33301 4 2.33301 4 3
c-54 76 -85.333 142.667 -94 200c-1.33301 15.333 -2 28.333 -2 39v2c0 69.333 29.667 138.333 89 207c28 26.667 51.667 45.667 71 57c58 33.333 113 50 165 50zM373.001 950.999c0 -74.667 33.999 -160.667 101.999 -258v0h1c33.333 69.333 62.333 133 87 191
c46 115.333 69 197.333 69 246v2v2v4v3c0 30 -10.333 49.333 -31 58c-5.33301 2 -10.666 3 -15.999 3h-2c-39.333 0 -82 -20.667 -128 -62c-54.667 -55.333 -82 -118.333 -82 -189zM195 290.999c0 -51.333 18.998 -84.665 56.998 -99.998c15.333 -5.33301 30.333 -8 45 -8
h13c42.667 0 78.334 14.333 107.001 43c28 33.333 42 75.666 42 126.999v5h1l-1 1v6c0 64 -26.667 153 -80 267l-20 38h-1c-19.333 -22.667 -35.666 -45.334 -48.999 -68.001c-34 -55.333 -61.667 -111 -83 -167c-20.667 -56 -31 -104 -31 -144z" />
    <glyph glyph-name="nine" unicode="9" horiz-adv-x="866" 
d="M484 1290c50 0 94.3369 -14.666 133.004 -43.999c12.667 17.333 25.334 28.333 38.001 33c22 6.66699 40.667 10 56 10c36 0 60.333 -18.667 73 -56c2.66699 -16 4 -39.667 4 -71v-23c0 -120 -15.667 -254 -47 -402c-24 -100.667 -50.667 -184.334 -80 -251.001
c-26.667 -60.667 -57.667 -116.334 -93 -167.001c-12.667 -18.667 -33.334 -43 -62.001 -73c-30 -29.333 -56 -50.666 -78 -63.999c-68.667 -44 -140.334 -66 -215.001 -66h-7h-2h-4h-6c-27.333 0 -49 4 -65 12c-8.66699 4 -13 8 -13 12v1c0 10.667 18.333 19.667 55 27
c6 0.666992 12.333 1 19 1h4c18 -2.66699 32.667 -4 44 -4c120 0 216.667 113.333 290 340c28 81.333 53.667 189 77 323c6 37.333 11 73.333 15 108v1h-1c-36.667 -72 -78.334 -141.667 -125.001 -209c-84.667 -119.333 -167.334 -179 -248.001 -179
c-35.333 0 -69.333 10.667 -102 32c-16 14 -25.667 24.333 -29 31c-23.333 36 -35 80.333 -35 133v14c0 84 31.333 182.667 94 296c17.333 30 39 62 65 96c8 11.333 26.333 31 55 59c31.333 26.667 57.666 45 78.999 55c32.667 16.667 69.667 25 111 25zM234.004 736.001
c0 -48.667 10.333 -81 31 -97c3.33301 -1.33301 5.66602 -2 6.99902 -2v0c23.333 0.666992 67 49 131 145c67.333 100 131.666 207.333 192.999 322c-8 7.33301 -19.333 21 -34 41c-24.667 33.333 -40.667 54.333 -48 63h-1c-17.333 -1.33301 -41.666 -15 -72.999 -41
c-33.333 -32.667 -57 -59.667 -71 -81c-29.333 -39.333 -54.666 -82 -75.999 -128c-39.333 -82.667 -59 -156.667 -59 -222z" />
    <glyph glyph-name="colon" unicode=":" horiz-adv-x="342" 
d="M194 729c26.667 0 45.667 -16.668 57 -50.001v-19c0 -29.333 -15.333 -49.333 -46 -60h-20c-28 0 -47.333 17.333 -58 52v21c0 28.667 18.667 47.334 56 56.001h11zM144 378.999c26.667 0 45.667 -16.668 57 -50.001v-19c0 -29.333 -15.333 -49.333 -46 -60h-20
c-28 0 -47.333 17.333 -58 52v21c0 28.667 18.667 47.334 56 56.001h11z" />
    <glyph glyph-name="semicolon" unicode=";" horiz-adv-x="353" 
d="M194 729c26.667 0 45.667 -16.668 57 -50.001v-19c0 -29.333 -15.333 -49.333 -46 -60h-20c-28 0 -47.333 17.333 -58 52v21c0 28.667 18.667 47.334 56 56.001h11zM152 403.999l13.999 -3c35.333 -6.66699 48.666 -32.334 39.999 -77.001l-7 -31
c-10.667 -55.333 -40.667 -84.666 -90 -87.999l-14 3c-19.333 4 -31.666 13.667 -36.999 29l2 11c33.333 10.667 54 36.667 62 78l3 14c4.66699 24 4.33398 41 -0.999023 51l1 4c6 8 15 11 27 9z" />
    <glyph glyph-name="less" unicode="&#x3c;" horiz-adv-x="721" 
d="M591 806c29.333 0 53.667 -12.666 73 -37.999v-18c-38 -28.667 -192 -134 -462 -316l-17 -17c250.667 -144 376 -233.667 376 -269c-13.333 -14 -29 -21 -47 -21h-26c-26 0 -74.333 31.333 -145 94c-173.333 99.333 -277 160.666 -311 183.999l-9 12
c0 26 95.333 103 286 231c152 105.333 236 158 252 158h30z" />
    <glyph glyph-name="equal" unicode="=" horiz-adv-x="687" 
d="M221 652h318.001c35.333 0 61.666 -13.333 78.999 -40v-16c0 -18.667 -39.333 -28 -118 -28h-294c-10 0 -23 -1.33301 -39 -4c-48 0 -76.667 18.667 -86 56v4c0 18.667 46.667 28 140 28zM221.001 432h318.001c35.333 0 61.666 -13.333 78.999 -40v-16
c0 -18.667 -39.333 -28 -118 -28h-294c-10 0 -23 -1.33301 -39 -4c-48 0 -76.667 18.667 -86 56v4c0 18.667 46.667 28 140 28z" />
    <glyph glyph-name="greater" unicode="&#x3e;" horiz-adv-x="733" 
d="M228 816l25.999 0.000976562c30 0 81.667 -36 155 -108c171.333 -118.667 276.333 -196.334 315 -233.001v-13c-40.667 -42 -151.334 -113.667 -332.001 -215c-132.667 -78 -201.667 -117 -207 -117h-35c-29.333 0 -53.666 13 -72.999 39v17
c46.667 36.667 199 128.667 457 276c24.667 14.667 39 22 43 22c-21.333 18.667 -137.666 102 -348.999 250c-31.333 26.667 -47 46.667 -47 60c13.333 14.667 29 22 47 22z" />
    <glyph glyph-name="question" unicode="?" horiz-adv-x="800" 
d="M406 1300l31 -0.000976562c106 0 192.333 -42.667 259 -128c22.667 -37.333 34 -72.666 34 -105.999v-28c0 -78.667 -76.667 -217 -230 -415c-100 -139.333 -150 -243 -150 -311c-8.66699 -16.667 -19 -25 -31 -25h-16c-30 0 -49.667 15.333 -59 46c0 78 53 203 159 375
c116.667 176.667 175 299 175 367c0 71.333 -34.333 118.333 -103 141c-7.33301 0 -12.666 1 -15.999 3c-69.333 0 -134.666 -46.667 -195.999 -140c-20.667 -42 -38.334 -89 -53.001 -141c-12.667 -10 -30.334 -15 -53.001 -15c-52.667 0 -85 16.667 -97 50v3
c28 112.667 75.667 195.667 143 249c65.333 50 133 75 203 75zM265 244.999c32 0 54.667 -20.334 68 -61.001v-21c0 -36 -18.333 -60.333 -55 -73h-24c-34 0 -57.333 21 -70 63v24c0 34.667 22.667 57.334 68 68.001h13z" />
    <glyph glyph-name="at" unicode="@" horiz-adv-x="1503" 
d="M784 1297l53 -0.000976562c170 0 314.333 -50.333 433 -151c110.667 -108 166 -242.667 166 -404v-36c0 -124.667 -37.333 -252 -112 -382c-52 -83.333 -123 -140 -213 -170c-44 -14.667 -80.667 -22 -110 -22h-22c-87.333 0 -145.333 35.667 -174 107
c-10 25.333 -15 57 -15 95c-74 -97.333 -126.333 -146 -157 -146h-2c-76.667 0 -127.667 26.667 -153 80c-11.333 22.667 -17 52 -17 88c0 93.333 33.333 198 100 314c53.333 80.667 117.666 121 192.999 121c44 0 82.333 -14.667 115 -44c17.333 38 43.333 57 78 57h13
c38 0 67 -14.333 87 -43c1.33301 -2 2 -4.66699 2 -8c-59.333 -193.333 -89 -343.666 -89 -450.999c4.66699 -68 16.667 -102 36 -102c0 -1.33301 3 -2 9 -2h8c36 0 93.333 52.667 172 158c74 125.333 111 249 111 371v30c0 169.333 -58.667 298.333 -176 387
c-75.333 52.667 -169.666 79 -282.999 79c-201.333 0 -367.666 -107 -498.999 -321c-82.667 -151.333 -124 -310 -124 -476v-13c0 -243.333 83 -422 249 -536c76.667 -45.333 161.667 -68 255 -68c158.667 0 306 63.333 442 190c30 36.667 53.333 55 70 55
c5.33301 1.33301 11 2 17 2c56.667 -8 85 -23 85 -45v-4c0 -9.33301 -24 -36.333 -72 -81c-102 -86.667 -209 -142.667 -321 -168c-60.667 -15.333 -117.334 -23 -170.001 -23h-40c-182 0 -340 64.333 -474 193c-74 84.667 -123 169 -147 253
c-22.667 86 -34 161.333 -34 226v55c0 186 56 366 168 540c22 33.333 66 81.333 132 144c129.333 100.667 266 151 410 151zM605 329.999c0 -35.333 8.66602 -53 25.999 -53c16.667 6 39.334 30.667 68.001 74c46 80.667 90.667 163.667 134 249
c-12.667 59.333 -24.667 89 -36 89c0 4.66699 -6.66699 7 -20 7c-37.333 0 -87.333 -89.333 -150 -268c-14.667 -48 -22 -80.667 -22 -98z" />
    <glyph glyph-name="A" unicode="A" horiz-adv-x="1444" 
d="M1300 1689l33.002 2.00195c60.667 2 114.667 -24.333 162 -79c16.667 -26 26 -60 28 -102l1 -33c5.33301 -122.667 -70.667 -450 -228 -982c-78 -298.667 -114.333 -505.334 -109 -620.001c0 -4.66699 -1 -9 -3 -13l14 -96c-4.66699 -15.333 -17.334 -23.333 -38.001 -24
c-91.333 11.333 -138.666 54.333 -141.999 129c-3.33301 27.333 -5 43.666 -5 48.999c-6 130.667 33 352 117 664c-10 4 -27.667 5.33301 -53 4h-7c-94.667 -4 -224.667 -35 -390 -93c-190.667 -434.667 -282.334 -734.334 -275.001 -899.001
c0.666992 -9.33301 6 -32 16 -68l1 -10c0 -3.33301 -6.33301 -10.333 -19 -21l-23 -1c-50.667 -2 -93.667 24.667 -129 80c-8 24.667 -12.333 47.667 -13 69c-6.66699 149.333 58.666 398 195.999 746c-101.333 -46 -189.333 -102.667 -264 -170l-23 -7
c-30 -1.33301 -67 14.667 -111 48c-14 16.667 -21.333 29.334 -22 38.001v7c0.666992 28.667 64.667 77.667 192 147c79.333 47.333 186.333 97.333 321 150c117.333 273.333 278 556 482 848c129.333 155.333 226.333 234.333 291 237zM769.002 674.002
l2.99805 -0.000976562c68 16 133.667 25.333 197 28c60 2.66699 122 -5.66602 186 -24.999c44 160.667 102.667 358.334 176 593.001c30.667 108.667 45.334 181 44.001 217l-1 27c-0.666992 15.333 -7.66699 22.666 -21 21.999c-50 -13.333 -139.333 -114.333 -268 -303
c-129.333 -196 -234.666 -382.333 -315.999 -559z" />
    <glyph glyph-name="B" unicode="B" horiz-adv-x="1463" 
d="M904 1699l24.0029 0.00390625c151.333 0 273.666 -50.667 366.999 -152c28.667 -44.667 43 -88.334 43 -131.001v-26c0 -139.333 -121.667 -348.333 -365 -627h16c9.33301 0 17.333 1 24 3c90 0 170 -34.667 240 -104c46 -60 69 -126.667 69 -200v-24
c0 -136.667 -77.333 -310 -232 -520c-215.333 -262.667 -413.333 -394 -594 -394h-32c-92.667 0 -164.667 34.667 -216 104c-21.333 36 -32 75 -32 117c0 133.333 81.667 249.666 245 348.999c50.667 28.667 89 43 115 43h8c3.33301 -0.666992 5 -2.33398 5 -5.00098v-6
c-13.333 -15.333 -41 -38.333 -83 -69c-102.667 -97.333 -154 -203 -154 -317c6 -62 26.333 -93 61 -93c0 -2 5.33301 -3 16 -3h3c98.667 0 224.667 78.333 378 235c126.667 147.333 216.667 281.333 270 402c46 103.333 69 183.333 69 240c0 64 -25.667 96 -77 96
c-70 0 -184 -52.333 -342 -157c-74.667 -52 -163.334 -122.333 -266.001 -211l-27 -3h-16c-52 0 -98 25 -138 75c-7.33301 12 -11 22.667 -11 32c108.667 464 210 805 304 1023c6.66699 10.667 20 16 40 16h2c48 0 93.333 -27.333 136 -82c2 -12.667 4 -20.667 6 -24
c-66 -147.333 -141.667 -387.333 -227 -720c57.333 50.667 127.666 121.667 210.999 213c289.333 320 434 547.667 434 683c0 70.667 -48.667 106 -146 106c-134 0 -280 -47 -438 -141c-50.667 -30.667 -118 -89.334 -202 -176.001c-95.333 -118 -162 -230.667 -200 -338
c-8.66699 -25.333 -23 -38 -43 -38h-5c-54 0 -100.333 27.667 -139 83c-3.33301 6 -5 11.333 -5 16v8c-0 24 36.333 101.333 109 232c34.667 56 81 115.333 139 178c96.667 96 175.667 158.333 237 187c139.333 80 279 120 419 120z" />
    <glyph glyph-name="C" unicode="C" horiz-adv-x="1400" 
d="M1021 1695l15 -0.00195312c44 0 91.333 -18 142 -54c49.333 -40 74 -100.667 74 -182c0 -119.333 -54 -322.666 -162 -609.999l-119 -285c-8 -12.667 -19.333 -19 -34 -19h-12c-34 0 -71.667 17.333 -113 52c-21.333 22 -32 39.667 -32 53v8c0 4 20.333 53.333 61 148
c67.333 163.333 119 304.666 155 423.999c40 136 60 235.667 60 299v5l1 8c-118 -33.333 -240.333 -126.333 -367 -279c-75.333 -94 -139 -186.667 -191 -278c-56.667 -100.667 -106.667 -202.667 -150 -306c-48 -118 -84.333 -227.333 -109 -328
c-30.667 -128 -46 -237.333 -46 -328v-30c0 -132 29.333 -231.333 88 -298c32 -32 74 -48 126 -48c142 0 324 117 546 351c85.333 94 152 173.667 200 239c108.667 140.667 183 253.667 223 339c5.33301 10.667 9 13.334 11 8.00098l9 1c34 8.66699 60.333 -5 79 -41l-4 -11
l-5 -15c-8 -18.667 -22 -43.667 -42 -75c-56.667 -95.333 -131 -202.666 -223 -321.999c-58.667 -74.667 -128.667 -154 -210 -238c-95.333 -92.667 -168 -156.334 -218 -191.001c-144.667 -105.333 -267.667 -158 -369 -158h-21c-66.667 0 -138 31 -214 93
c-40.667 40.667 -67.667 73.334 -81 98.001c-59.333 102 -89 216 -89 342v34c-0 201.333 59.333 443 178 725c47.333 109.333 111 228.333 191 357c45.333 69.333 97.333 138.333 156 207c71.333 79.333 126.333 133.333 165 162c122 95.333 232.333 143 331 143z" />
    <glyph glyph-name="D" unicode="D" horiz-adv-x="1870" 
d="M1097 1699l51.9951 0.000976562c168.667 0 329.667 -58.667 483 -176c131.333 -116.667 197 -255.667 197 -417v-47c0 -188 -75.333 -410.333 -226 -667c-72 -116.667 -177 -250.334 -315 -401.001c-137.333 -140 -237 -229.333 -299 -268
c-180 -129.333 -336.333 -194 -469 -194h-21c-123.333 0 -218 51.667 -284 155c-15.333 29.333 -23 61.666 -23 96.999v10c0 186 154.667 451 464 795c10.667 0 23.667 43 39 129c63.333 250.667 114.333 439.667 153 567c14 14 28 21 42 21h15
c62 0 109.333 -23.667 142 -71l3 -16c0 -6 -34.333 -122.333 -103 -349c196.667 163.333 332.334 250 407.001 260c32 0 55.667 -20 71 -60v-13c-2 -5.33301 -38.667 -25.666 -110 -60.999c-101.333 -64 -212.666 -148 -333.999 -252
c-70 -64.667 -105 -100.334 -105 -107.001l-181 -625c-14 -19.333 -33 -29 -57 -29h-14c-39.333 0 -64.666 16.667 -75.999 50v5c0 11.333 21 114.666 63 309.999c-60.667 -72.667 -115.667 -155 -165 -247c-59.333 -114.667 -89 -213.334 -89 -296.001
c6.66699 -91.333 23.334 -137 50.001 -137c28 -3.33301 49 -5 63 -5c209.333 0 468 186.333 776 559c191.333 248.667 312 460.334 362 635.001c30 105.333 45 199.666 45 282.999v11c0 183.333 -78.667 308.333 -236 375c-52 22.667 -111.333 34 -178 34h-21
c-217.333 0 -445 -87.333 -683 -262c-106.667 -88.667 -186 -171.667 -238 -249c-42.667 -63.333 -77.667 -124.666 -105 -183.999c-10.667 -10.667 -22.334 -16 -35.001 -16h-13c-46.667 0 -92 27.333 -136 82c-5.33301 8.66699 -8 17.334 -8 26.001v8
c27.333 72.667 84.333 164.334 171 275.001c108.667 116 183 185 223 207c94.667 69.333 187.334 123 278.001 161c160.667 62.667 302.334 94 425.001 94z" />
    <glyph glyph-name="E" unicode="E" horiz-adv-x="1457" 
d="M1219 1703l26.998 0.00195312c137.333 0 206 -37.667 206 -113c0 -22.667 -19.667 -67.334 -59 -134.001c-109.333 -190.667 -164 -357 -164 -499v-20c0 -13.333 -8 -23 -24 -29c-4.66699 -1.33301 -12.334 -2 -23.001 -2h-3c-41.333 0 -85.666 23 -132.999 69
c-12 17.333 -18 32 -18 44v30c0 134.667 51.333 297.334 154 488.001h-2c-167.333 -45.333 -317.333 -123.666 -450 -234.999c-55.333 -51.333 -91.666 -91 -108.999 -119c-54 -83.333 -81 -161.333 -81 -234c0 -63.333 26.667 -116.666 80 -159.999
c24.667 -18 55.667 -33.333 93 -46c25.333 -6.66699 56.333 -13.334 93 -20.001c30 -16 45 -43 45 -81c0 -26 -9.66699 -41.333 -29 -46c-87.333 -15.333 -183.666 -62 -288.999 -140c-28.667 -22 -66.334 -57 -113.001 -105c-68.667 -77.333 -115.667 -143 -141 -197
c-52 -96.667 -78 -185 -78 -265v-18c0 -70.667 24.667 -126.334 74 -167.001c15.333 -13.333 43.333 -26.333 84 -39c40.667 -10.667 77.334 -16 110.001 -16h5c3.33301 0 6 -0.333008 8 -1c192.667 0 396.667 130.667 612 392c81.333 104 156 213.667 224 329
c42.667 74.667 80.334 145.667 113.001 213c3.33301 8 9.66602 12.667 18.999 14c44 2.66699 73.667 -11 89 -41l-1 -11l-4 -12c-10 -30.667 -43 -96.334 -99 -197.001c-62 -106.667 -137.333 -218.334 -226 -335.001c-49.333 -62.667 -108.666 -128 -177.999 -196
c-90.667 -84.667 -169 -145 -235 -181c-112 -62 -213 -93 -303 -93h-30c-112.667 0 -222.334 45.333 -329.001 136c-50.667 50.667 -81.334 91 -92.001 121c-28 55.333 -42 109.666 -42 162.999v26c0 139.333 67 293 201 461c62 66.667 110.333 113.667 145 141
c68.667 50.667 126.334 86.667 173.001 108c6.66699 3.33301 11 5 13 5v3c-70.667 43.333 -121.667 109 -153 197c-9.33301 35.333 -14 67.333 -14 96c0 120 59 249 177 387c62.667 66.667 111 111.334 145 134.001c56.667 41.333 106.667 73 150 95
c134 66.667 261.333 100 382 100z" />
    <glyph glyph-name="F" unicode="F" horiz-adv-x="1347" 
d="M1289 1706h78.0029c265.333 0 479.666 -80.333 642.999 -241v-23c-20.667 -34.667 -48 -52 -82 -52c-4 0 -40 26 -108 78c-104.667 59.333 -226 89 -364 89c-308 0 -648.333 -82.667 -1021 -248c-75.333 -36.667 -137.333 -75.334 -186 -116.001
c206.667 -101.333 349 -247.333 427 -438v-11h4c64 214 137 404.667 219 572c38.667 76.667 67 115 85 115h15c61.333 0 112.333 -32 153 -96c2 -4.66699 3 -9.66699 3 -15c0 -12.667 -26 -63.667 -78 -153c-70 -138 -151.667 -342.333 -245 -613
c58 2.66699 101.333 4 130 4h7c178.667 -10 268 -32.333 268 -67c3.33301 0 9.66602 -12.333 18.999 -37c0 -14.667 -10 -22 -30 -22c-30.667 7.33301 -51.667 11 -63 11c-90 0 -217.667 -19.667 -383 -59c-89.333 -296 -134 -529 -134 -699v-7
c0 -22.667 3.66699 -63.667 11 -123c0 -10 -4.66699 -17.333 -14 -22h-23c-40.667 0 -79 33.333 -115 100c-7.33301 44.667 -11 84.334 -11 119.001v41c0 123.333 21 289.333 63 498c4 0 7.66699 14.667 11 44c-66 -22 -103 -33 -111 -33h-4c-58 0 -105 31 -141 93v18
c0 22 95.333 56.667 286 104c0 176 -85.333 338.333 -256 487c-66.667 48 -159.667 96.333 -279 145c-42 31.333 -63 57.333 -63 78v15c0 58 131.333 145.667 394 263c349.333 134 647.666 201 894.999 201z" />
    <glyph glyph-name="G" unicode="G" horiz-adv-x="1334" 
d="M1188 1713l17.998 -0.000976562c39.333 0 81.333 -21.667 126 -65c15.333 -17.333 23 -32.666 23 -45.999v-10c-67.333 -166 -138 -422.667 -212 -770c-8.66699 -18.667 -20.334 -28 -35.001 -28h-20c-50 0 -98 29.333 -144 88l-7 25
c50.667 233.333 98.334 424.666 143.001 573.999h-2c-215.333 -77.333 -424.333 -295.333 -627 -654c-160 -304 -240 -556.667 -240 -758v-3c0 -164.667 48 -266 144 -304c22 -5.33301 37 -8 45 -8c108 0 222.333 89 343 267c66 97.333 144.667 260.333 236 489
c10.667 11.333 26 17 46 17c50 0 97.667 -27.667 143 -83c6.66699 -10.667 10 -19 10 -25v-15c-14.667 -34 -55 -218 -121 -552c-33.333 -162.667 -50 -264 -50 -304c-10.667 -13.333 -21.667 -20 -33 -20h-17c-42.667 0 -85.667 21.667 -129 65
c-14.667 16.667 -22 31.667 -22 45c4.66699 34.667 26.334 134.667 65.001 300c-212 -201.333 -400 -302 -564 -302c-128 0 -220.333 73.667 -277 221c-20 66 -30 134 -30 204v46c0 234.667 84.667 512.334 254 833.001c59.333 105.333 135 216 227 332
c216 252 420 378 612 378c8.66699 0 22.667 -0.666992 42 -2c12.667 43.333 30.334 65 53.001 65z" />
    <glyph glyph-name="H" unicode="H" horiz-adv-x="1562" 
d="M1475 1698l12.999 0.000976562c51.333 0 99 -29 143 -87l5 -18v-10c-85.333 -252 -165.666 -588 -240.999 -1008c-42.667 -254 -64 -462.667 -64 -626v-44c0 -156 23 -275.667 69 -359c-6 -15.333 -18.667 -23 -38 -23h-18c-67.333 0 -111 33.333 -131 100
c-40.667 96 -61 235.333 -61 418v21c0 124 10 273.333 30 448l-30 3h-18c-129.333 0 -313.333 -42 -552 -126c-24 -164.667 -36 -296.334 -36 -395.001v-48c0 -131.333 23.333 -234 70 -308v-5c0 -7.33301 -16.333 -13.333 -49 -18c-66 0 -108 24 -126 72
c-48 93.333 -72 221.333 -72 384v46c0 60 2.66699 121.667 8 185c-73.333 -34 -137.333 -72.333 -192 -115c-14.667 -17.333 -30 -26 -46 -26c-52 0 -97.333 28.333 -136 85l-3 15v13c41.333 45.333 113 93.333 215 144c53.333 26 114.333 52.333 183 79
c27.333 190.667 62.333 377 105 559c58 226.667 109.333 394.334 154 503.001c11.333 12 25 18 41 18c54 0 104.333 -30 151 -90c3.33301 -14 5 -23.333 5 -28c-60.667 -152 -127.334 -385.333 -200.001 -700c-13.333 -52 -26 -114.667 -38 -188c158 46.667 292 70 402 70
c52 0 112 -7.66699 180 -23v2c54 355.333 114.667 648.666 182 879.999c39.333 130 63.333 195 72 195c10.667 3.33301 18.334 5 23.001 5z" />
    <glyph glyph-name="I" unicode="I" horiz-adv-x="756" 
d="M880 1704l46.998 0.00390625c86 0 162.333 -15.667 229 -47c13.333 -14 20 -29.667 20 -47v-8c0 -30.667 -14.667 -48.334 -44 -53.001c-29.333 10.667 -64.333 16 -105 16c-66 0 -160.667 -9.66699 -284 -29v-2c42 -18.667 70.667 -44.334 86 -77.001l4 -15
c-233.333 -843.333 -350 -1369.33 -350 -1578c0 -50.667 7.66699 -81.334 23 -92.001h2c42.667 1.33301 68.667 2 78 2c102 0 182.333 -16.333 241 -49c16 -16 24 -36.667 24 -62c0 -24.667 -10.667 -40.334 -32 -47.001h-11c-29.333 11.333 -60 17 -92 17
c-161.333 0 -342 -35.667 -542 -107h-20c-37.333 0 -77.666 22 -120.999 66c-13.333 17.333 -20 32.333 -20 45c0 19.333 32 37 96 53c59.333 21.333 150 43 272 65c-35.333 69.333 -53 169.666 -53 300.999c0 320 103 806.667 309 1460h-2
c-86.667 -19.333 -163.667 -40.666 -231 -63.999h-7c-55.333 0 -105.666 28.667 -150.999 86c-2.66699 11.333 -4 18.333 -4 21v8c0 17.333 28 32.333 84 45c215.333 61.333 400 92 554 92z" />
    <glyph glyph-name="J" unicode="J" horiz-adv-x="1339" 
d="M1195 1686c82 -1.33301 133.665 -30.668 154.998 -88.001l-2 -123c-13.333 -754.667 -157.666 -1321 -432.999 -1699c-147.333 -167.333 -294 -250 -440 -248l-43 1c-138 2.66699 -258.333 85.334 -361 248.001c-42.667 82 -63 164.667 -61 248v47
c3.33301 189.333 120.333 367.333 351 534c84 58.667 177.667 87 281 85l33 -5v-10c-104 -52.667 -188.667 -108 -254 -166c-132 -126.667 -199.333 -270.667 -202 -432c-3.33301 -188 67 -318.667 211 -392c23.333 -7.33301 45.333 -11 66 -11h14
c158.667 -3.33301 300.667 166.334 426 509.001c110.667 364 171 816 181 1356l-5 1c-249.333 -74.667 -423.666 -111.334 -522.999 -110.001l-29 1c-42 0.666992 -72.667 43.667 -92 129c0.666992 38 35.667 56.333 105 55c125.333 -2 306 21.667 542 71z" />
    <glyph glyph-name="K" unicode="K" horiz-adv-x="999" 
d="M375 1691l22.002 0.00292969c95.333 -14.667 143 -44 143 -88c-137.333 -589.333 -206 -904.333 -206 -945h3c138.667 56.667 277.334 131.667 416.001 225c62 38.667 155.333 117 280 235c142 152 252.333 290 331 414c18.667 36.667 38.667 55 60 55
c50 0 100.333 -28.333 151 -85c5.33301 -9.33301 8 -18.333 8 -27v-3c0 -12.667 -20 -45.667 -60 -99c-32 -54 -103.333 -147 -214 -279c-137.333 -146 -229.333 -233.667 -276 -263c-140.667 -92.667 -310.667 -177.667 -510 -255
c-67.333 -27.333 -139.333 -49.333 -216 -66c-2 -17.333 -4 -27.333 -6 -30c141.333 -146.667 245.666 -243.334 312.999 -290.001c239.333 -190 476.666 -315 711.999 -375c45.333 -44 68 -79.667 68 -107v-17c-4.66699 -8.66699 -12 -13 -22 -13
c-141.333 28 -346.666 117.333 -615.999 268c-150.667 82.667 -311.334 194 -482.001 334c-27.333 -210.667 -41 -391.334 -41 -542.001c0 -21.333 1 -90 3 -206c-10 -18 -25.667 -27 -47 -27h-19c-50.667 0 -81 24.667 -91 74c-3.33301 35.333 -5 103 -5 203v8
c0 207.333 12.667 425.666 38 654.999c-70 87.333 -107.333 149.333 -112 186v11c0 17.333 12.667 27.333 38 30h9c27.333 0 55.333 -9 84 -27h6v2c49.333 365.333 107.666 692.333 174.999 981c4.66699 42 25.667 63 63 63z" />
    <glyph glyph-name="L" unicode="L" horiz-adv-x="1128" 
d="M592 1711l33.0039 -2.00195c143.333 -9.33301 242.666 -101 297.999 -275c21.333 -68 29 -147.667 23 -239l-2 -24c0 -4.66699 0.666992 -8.66699 2 -12c-2 -3.33301 -3 -7.33301 -3 -12l-2 -21c-16.667 -264.667 -146.334 -659 -389.001 -1183h3
c232 64.667 438.333 91 619 79c130 -8 247 -38.333 351 -91c20 -20.667 29.333 -46 28 -76l-1 -12c-1.33301 -15.333 -8 -25.666 -20 -30.999l-15 1c-80 32.667 -151.333 51 -214 55l-38 3c-274.667 17.333 -608.334 -62.334 -1001 -239.001
c-52 -25.333 -104.667 -57.666 -158 -96.999l-18 -2l-8 1c-52 3.33301 -97 33 -135 89c-4.66699 10 -7 18 -7 24l1 9c1.33301 21.333 48 55 140 101c55.333 30.667 122.666 61 201.999 91l-1 21c0 6 43.667 100.333 131 283c211.333 471.333 325 831 341 1079l2 39
c10 152.667 -11.667 248 -65 286c-4 0.666992 -7.66699 2 -11 4c-38.667 2.66699 -93.667 -18.666 -165 -63.999c-106 -72.667 -187 -189.334 -243 -350.001c-10 -30.667 -19 -79.667 -27 -147c-8 -117.333 18 -237 78 -359c1.33301 -3.33301 2 -7.33301 2 -12
c-10 -7.33301 -24 -10.333 -42 -9c-68 4 -116.333 27 -145 69c-64.667 134.667 -92.667 268.334 -84 401.001c13.333 208.667 106.333 386 279 532c92.667 65.333 179.667 95.333 261 90z" />
    <glyph glyph-name="M" unicode="M" horiz-adv-x="1958" 
d="M1853 1715h35.0029c22.667 -16.667 34 -39.334 34 -68.001v-63c-16 -129.333 -46.667 -305 -92 -527c-37.333 -204.667 -56.666 -410.667 -57.999 -618v-35c-2 -240.667 31.333 -469.667 100 -687c0 -30 -35 -65.333 -105 -106c-26 -8 -45.333 -12 -58 -12
c-25.333 0.666992 -45.666 43.334 -60.999 128.001c-40.667 162.667 -60.334 322.667 -59.001 480v118c2 290.667 54.667 659.334 158 1106c2.66699 17.333 4 34.333 4 51v16c0 5.33301 -2.66699 8 -8 8h-7c-46 -45.333 -106 -141.333 -180 -288l-485 -1016
c-32.667 -26 -69 -39 -109 -39c-40.667 6.66699 -61 21.334 -61 44.001c62 512 93.667 862 95 1050v55c1.33301 142.667 -16.334 214.334 -53.001 215.001c-67.333 -4.66699 -203 -297.334 -407 -878.001l-373 -1100c-18 -12.667 -35 -19 -51 -19h-27
c-64 7.33301 -96 28.666 -96 63.999v8c149.333 808 224.666 1321.67 225.999 1541c0 40.667 -6 112 -18 214c18.667 42 58.667 63 120 63l19 -1c54 0 81 -26.333 81 -79l-1 -64c-0.666992 -108 -29 -337.667 -85 -689v-4h4c204 501.333 350 803 438 905
c100.667 118.667 195 177.667 283 177c51.333 -0.666992 84.666 -19.334 99.999 -56.001c20.667 -60 30.667 -134.333 30 -223v-83c-0.666992 -106.667 -17.334 -302 -50.001 -586v-4h4c329.333 669.333 567 1003.33 713 1002z" />
    <glyph glyph-name="N" unicode="N" horiz-adv-x="1450" 
d="M1295 1671c47.333 0 71.0029 -36.665 71.0029 -109.998c0 -15.333 -23.667 -200 -71 -554c-26.667 -244.667 -40 -450.334 -40 -617.001c0 -388.667 52.667 -639 158 -751v-12c0 -32.667 -38 -56.334 -114 -71.001c-10.667 -2.66699 -21.334 -4 -32.001 -4
c-101.333 0 -166 151.667 -194 455c0 25.333 -1.33301 72.666 -4 141.999c0 319.333 45 732 135 1238l11 90l-4 18c-86 14.667 -252 -229.666 -498 -732.999c-160.667 -325.333 -338.334 -727.333 -533.001 -1206c-24.667 -21.333 -57.667 -32 -99 -32h-8
c-36 0 -61 12 -75 36c55.333 159.333 113.333 427 174 803c63.333 398.667 95 696.334 95 893.001c0 52 44.667 82.333 134 91h28c39.333 -6.66699 59 -18.334 59 -35.001c0 -156.667 -34.333 -460 -103 -910v-4h4c161.333 343.333 326 648 494 914
c163.333 239.333 300.666 359 411.999 359z" />
    <glyph glyph-name="O" unicode="O" horiz-adv-x="1485" 
d="M787 1698h32.002c118.667 0 241.667 -53.667 369 -161c128.667 -135.333 193 -311.666 193 -528.999v-53c0 -250.667 -73.333 -535.334 -220 -854.001c-51.333 -107.333 -120.333 -216.666 -207 -327.999c-141.333 -160 -267.333 -240 -378 -240h-41
c-162.667 0 -292.334 84 -389.001 252c-54.667 118.667 -82 248.334 -82 389.001v61c0 211.333 53.667 448.333 161 711c172 355.333 371 533 597 533c53.333 0 101 -29.333 143 -88c4 -6.66699 6 -12.667 6 -18v-17c0 -16 -38 -26.667 -114 -32
c-124 -41.333 -229.333 -127.333 -316 -258c-64 -90.667 -128.333 -228 -193 -412c-56.667 -196.667 -85 -370.334 -85 -521.001v-29c0 -198 42 -333.667 126 -407c20 -12 39.667 -18 59 -18h11c140.667 0 296.667 149.333 468 448c170 335.333 255 642.666 255 921.999v40
c0 163.333 -39 294.333 -117 393c-48 48.667 -102.667 73 -164 73h-6c-124.667 0 -280.667 -79 -468 -237c-114 -118 -182.333 -208.667 -205 -272c-20.667 -58.667 -38 -88 -52 -88h-15c-58.667 0 -108.334 29.333 -149.001 88c-4 6 -6 11.667 -6 17v9
c14 74 70.667 170.667 170 290c117.333 118 199 187 245 207c139.333 86 263.333 129 372 129z" />
    <glyph glyph-name="P" unicode="P" horiz-adv-x="1564" 
d="M1124 1702l70 -0.000976562c170.667 0 319 -70 445 -210c52 -78.667 78 -158 78 -238v-40c0 -191.333 -117 -426.666 -351 -705.999c-236.667 -245.333 -452.667 -368 -648 -368c-90.667 31.333 -136 65 -136 101l105 24c108 26 259 129.667 453 311
c257.333 286 386 532.333 386 739v24c0 145.333 -85.667 218 -257 218c-268.667 0 -529 -119.667 -781 -359c-198 -214 -297 -464.333 -297 -751v-44c-9.33301 -16.667 -25 -25 -47 -25c-46 0 -92.667 29.667 -140 89l-4 20v85c0 272 106.667 523.667 320 755
c154.667 147.333 307 248 457 302c135.333 48.667 251 73 347 73zM667 1282l20.001 -0.00195312c55.333 0 104.666 -20 147.999 -60c5.33301 -8.66699 8 -16.667 8 -24c-118 -311.333 -226 -682.666 -324 -1114c-36.667 -163.333 -73 -343.666 -109 -540.999
c-14.667 -16 -30.334 -24 -47.001 -24h-20c-47.333 0 -83.666 20.333 -108.999 61v8c0 96.667 54.667 403.334 164 920.001c68 269.333 142.333 520.666 223 753.999c14 13.333 29.333 20 46 20z" />
    <glyph glyph-name="Q" unicode="Q" horiz-adv-x="1358" 
d="M712 1698l43.001 0.00292969c111.333 0 226.666 -54.333 345.999 -163c108.667 -121.333 163 -281.333 163 -480v-14c0 -312.667 -98 -636 -294 -970c-38.667 -55.333 -67.667 -95.333 -87 -120c70 12 146 18 228 18h26c108.667 0 180 -15.667 214 -47
c22 -29.333 33 -52.333 33 -69v-18c-6 -12 -15.667 -18 -29 -18c-53.333 9.33301 -99.333 14 -138 14c-238.667 0 -524.334 -66.667 -857.001 -200c-77.333 -40.667 -136.666 -75.667 -177.999 -105h-22c-56 0 -102 30.333 -138 91c-2.66699 4 -4 8.66699 -4 14
c0 31.333 86 83.666 258 156.999v3c-78.667 45.333 -139.334 133.666 -182.001 264.999c-24 81.333 -36 160 -36 236v69c0 247.333 71.333 506.666 214 777.999c146.667 232 303 348 469 348h18c47.333 0 91 -30 131 -90c0 -6 1 -11 3 -15c0 -26.667 -33.667 -40 -101 -40
c-59.333 -10 -132 -56 -218 -138c-94 -115.333 -160.667 -229 -200 -341c-84.667 -205.333 -127 -409 -127 -611c0 -194 40 -321 120 -381c23.333 -7.33301 39 -11 47 -11c136.667 0 283.334 144 440.001 432c147.333 293.333 221 569.333 221 828
c0 178.667 -40 308.334 -120 389.001c-36.667 34 -77.667 51 -123 51h-26c-103.333 0 -240 -71.333 -410 -214c-97.333 -98.667 -160.333 -182.334 -189 -251.001c-13.333 -50.667 -31.333 -76 -54 -76h-8c-56.667 0 -103.667 29 -141 87c-2.66699 4 -4 8.66699 -4 14v11
c18 88 95.333 202 232 342c182 150 342 225 480 225z" />
    <glyph glyph-name="R" unicode="R" horiz-adv-x="1663" 
d="M1128 1681l62.999 0.00195312c176 0 325.667 -57 449 -171c78 -88.667 117 -182 117 -280v-62c0 -160.667 -96.667 -343.334 -290 -548.001c-183.333 -164 -336.333 -269.667 -459 -317c-45.333 -27.333 -124.333 -56.333 -237 -87
c182.667 -222.667 326.334 -366.667 431.001 -432c68.667 -41.333 154.667 -74.333 258 -99c26 -32 39 -58.333 39 -79v-8c0 -3.33301 -3.66699 -7 -11 -11c-118.667 0 -267 54.667 -445 164c-63.333 45.333 -141 113 -233 203c-132 144.667 -198 222.334 -198 233.001
c-2.66699 9.33301 -4 19 -4 29c0 70.667 19 106 57 106c141.333 0 351 130.667 629 392c167.333 178 251 351.333 251 520c0 182 -86 291 -258 327c-35.333 2.66699 -59 4 -71 4c-251.333 0 -495 -114 -731 -342c-111.333 -134.667 -183.333 -255.667 -216 -363
c-35.333 -112.667 -53 -223 -53 -331c0 -46.667 2.33301 -86.667 7 -120c0 -24.667 -27 -40.334 -81 -47.001c-89.333 8 -134 38 -134 90c-2.66699 13.333 -4 36.333 -4 69v62c0 294 122.667 557 368 789c156.667 145.333 362.667 244.666 618 297.999
c58 7.33301 104 11 138 11zM762.999 1288c76 -6 121 -27.665 135 -64.998v-15c-88 -219.333 -183.667 -506.333 -287 -861c-59.333 -210.667 -112.666 -475 -159.999 -793c-15.333 -16.667 -30 -25 -44 -25h-33c-74.667 11.333 -112 35.666 -112 72.999
c43.333 309.333 95.333 586.666 156 831.999c77.333 296.667 167 573 269 829c19.333 16.667 44.666 25 75.999 25z" />
    <glyph glyph-name="S" unicode="S" horiz-adv-x="1268" 
d="M1198 1689l15.001 0.00195312c52.667 0 102 -30 148 -90c3.33301 -10.667 5 -18 5 -22v-10c-55.333 -140 -108 -315.333 -158 -526c-24 -111.333 -40.333 -167 -49 -167c-8.66699 -5.33301 -16.667 -8 -24 -8h-17c-46 0 -92.333 27 -139 81c-8 13.333 -12 25.333 -12 36
l87 373c3.33301 16 5 30.333 5 43v17c-2 22.667 -12.333 34 -31 34c-104 -8 -228.333 -61.333 -373 -160c-154 -112 -231 -220.667 -231 -326c0 -78 44.667 -147 134 -207c45.333 -30.667 150 -80.334 314 -149.001c140.667 -69.333 211 -147 211 -233v-10
c0 -139.333 -94 -309 -282 -509c-188 -172 -355 -258 -501 -258h-22c-137.333 0 -224.333 40.667 -261 122c-4.66699 17.333 -7 34.333 -7 51v12c0 110 90 248.667 270 416c102.667 79.333 175 120 217 122h24c16.667 -2 25 -9.33301 25 -22
c0 -10.667 -15.667 -19.667 -47 -27c-118 -63.333 -207 -183.333 -267 -360c-11.333 -46 -17.333 -80 -18 -102c5.33301 -60 24 -90 56 -90h13c80 0 213 102 399 306c116.667 148 175 273 175 375c0 62 -86.667 125.333 -260 190c-132 57.333 -224.667 110 -278 158
c-81.333 71.333 -122 156 -122 254c0 123.333 102.333 258 307 404c182.667 112 345.667 168 489 168c39.333 -0.666992 81.666 -7.33398 126.999 -20.001c29.333 88 50.333 132 63 132z" />
    <glyph glyph-name="T" unicode="T" horiz-adv-x="1181" 
d="M1344 1698l80.002 4.00293c268 14 485 -52.667 651 -200l1 -14c0.666992 -12 -26.666 -23 -81.999 -33c-36.667 -2 -71.334 13 -104.001 45c-106 48 -232 68.333 -378 61c-362 -18.667 -757.667 -138.334 -1187 -359.001c-48 -30.667 -77.333 -51.667 -88 -63
c225.333 -76.667 405.333 -227.667 540 -453c8 -12 13 -17.667 15 -17c44.667 202 97.667 379.333 159 532c62.667 144 104 216.667 124 218l21 1c54 2.66699 103 -25.333 147 -84c2.66699 -4 4 -8.66699 4 -14l1 -11c0 -6 -27.667 -62 -83 -168
c-66.667 -141.333 -131.334 -351 -194.001 -629c-66 -368 -91.667 -693.333 -77 -976c-10.667 -15.333 -22.334 -23.333 -35.001 -24h-11c-58.667 -3.33301 -101.334 24.667 -128.001 84c-2.66699 51.333 3.33301 261.666 18 630.999c1.33301 20.667 1 56 -1 106
c-17.333 337.333 -174.333 561 -471 671c-129.333 32 -209.666 55.667 -240.999 71c-25.333 21.333 -43.333 41.333 -54 60l-1 21c-3.33301 62 142.334 160.667 437.001 296c365.333 149.333 677.666 230.666 936.999 243.999z" />
    <glyph glyph-name="U" unicode="U" horiz-adv-x="1322" 
d="M370 1702l31.999 1.00098c84.667 2.66699 143.667 -19.666 177 -66.999l1 -16c0 -8.66699 -38 -129 -114 -361c-184 -584 -271.667 -1002.33 -263 -1255c4 -116 31 -196.333 81 -241c23.333 -18.667 50.666 -27.334 81.999 -26.001l16 1
c197.333 6 429.333 403.333 696 1192c22 68 57.333 185.333 106 352c23.333 30.667 48.333 46.667 75 48c60 -15.333 90.667 -37.333 92 -66c0 -11.333 -41.667 -190 -125 -536c-82 -383.333 -119.667 -678.333 -113 -885c4.66699 -124.667 28.334 -217.334 71.001 -278.001
v-8c0 -5.33301 -2.66699 -8 -8 -8l-20 -1c-64.667 -2 -118 55.667 -160 173c-21.333 67.333 -33.666 147 -36.999 239c-2 72.667 1.33301 143 10 211v4h-5c-178.667 -363.333 -355 -547.666 -529 -552.999l-17 -1c-180.667 -6 -302.667 90 -366 288
c-21.333 70.667 -33.333 147.667 -36 231l-3 73c-10.667 327.333 88.333 817.666 297 1471c17.333 11.333 37.333 17.333 60 18z" />
    <glyph glyph-name="V" unicode="V" horiz-adv-x="1030" 
d="M1426 1705h33.0029c70 0 132 -27 186 -81v-8c0 -8 -35 -21.667 -105 -41c-108 -59.333 -216 -171.666 -324 -336.999c-216.667 -320 -445.334 -841.667 -686.001 -1565c-36.667 -95.333 -66.334 -145.333 -89.001 -150h-28c-94 0 -179.333 65 -256 195
c-100 185.333 -150 522 -150 1010c0 318 21.667 577.333 65 778c11.333 10.667 22.333 16 33 16h12c55.333 0 104 -29.667 146 -89c2.66699 -4.66699 4 -10 4 -16c-40.667 -222.667 -61 -481 -61 -775c0 -420.667 39.333 -728.667 118 -924h4
c229.333 769.333 457.666 1324.67 684.999 1666c159.333 214 297 321 413 321z" />
    <glyph glyph-name="W" unicode="W" horiz-adv-x="2157" 
d="M1727 1705l27.0039 -1.00293c136 -5.33301 242 -134 318 -386c25.333 -110.667 35.666 -228.334 30.999 -353.001l-4 -80c-10.667 -282 -84.667 -583.333 -222 -904c-141.333 -264 -299.333 -392.667 -474 -386c-185.333 7.33301 -302.666 193 -351.999 557
c-14.667 152.667 -21 255.334 -19 308.001h-4c-111.333 -321.333 -218.666 -554.333 -321.999 -699c-122 -158.667 -233.333 -236 -334 -232l-36 2c-116.667 4.66699 -210.334 72 -281.001 202c-52 112 -74 266 -66 462l1 22c16 408.667 125.333 812.334 328 1211
c48 89.333 110.333 165.333 187 228c15.333 8.66699 35 12.334 59 11.001h9c75.333 -3.33301 121.666 -30.333 138.999 -81l-1 -18c-104.667 -87.333 -206.334 -260 -305.001 -518c-108 -319.333 -166.667 -598.666 -176 -837.999l-1 -9
c0 -9.33301 -1.66699 -13.666 -5 -12.999l4 -23l-2 -62c-8.66699 -206.667 26.666 -356.334 105.999 -449.001c5.33301 -3.33301 11.333 -5.33301 18 -6h4c157.333 -6 370.333 384.667 639 1172c55.333 208.667 101 312.334 137 311.001
c5.33301 2.66699 12.666 3.66699 21.999 3h9c68 -10.667 101 -38.667 99 -84c9.33301 -0.666992 11.666 -207 6.99902 -619c16 -463.333 78 -697.333 186 -702c73.333 -2.66699 170.333 125.666 291 384.999c104 295.333 161.333 583.666 172 864.999
c14.667 360.667 -60.666 586.334 -225.999 677.001c-29.333 11.333 -44 19.333 -44 24v4c0.666992 12 27.667 18.333 81 19z" />
    <glyph glyph-name="X" unicode="X" horiz-adv-x="1030" 
d="M1508 1707l28.001 -0.000976562c52.667 0 95.667 -20.667 129 -62v-24c0 -3.33301 -49.333 -35 -148 -95c-200.667 -176 -352.667 -334.333 -456 -475c-120.667 -152.667 -233.334 -308.334 -338.001 -467.001c108.667 -260 264 -499.333 466 -718
c7.33301 -11.333 66 -68.333 176 -171v-10c0 -13.333 -30 -22.666 -90 -27.999c-53.333 0 -104 27 -152 81c-198 192 -328 345.667 -390 461c-43.333 55.333 -84.666 122 -123.999 200h-10c-174.667 -287.333 -298.334 -525.333 -371.001 -714
c-22 -85.333 -45.667 -128 -71 -128c-37.333 -25.333 -75.333 -38 -114 -38h-14c-16.667 0 -26.334 4.66699 -29.001 14v10c44.667 210.667 211 564 499 1060c-145.333 339.333 -218 634.333 -218 885v38c0 32 31.667 48 95 48c85.333 -14 128 -39.333 128 -76
c0 -208 41.333 -438 124 -690h9c72.667 123.333 204.334 299.333 395.001 528c219.333 230.667 378 354.334 476 371.001z" />
    <glyph glyph-name="Y" unicode="Y" horiz-adv-x="1449" 
d="M1210 1214v-9h5v9h-5zM1301 1709c82 0 129.332 -29.999 141.999 -89.999c6 -26.667 9 -61.334 9 -104.001v-95c0 -351.333 -104 -756.333 -312 -1215c-86 -178.667 -199.667 -339.667 -341 -483c-108.667 -106.667 -223.667 -172.667 -345 -198
c-12 -3.33301 -24.667 -5 -38 -5h-38c-52 0 -88 12.667 -108 38v9c2.66699 12 62.334 31 179.001 57c203.333 84.667 378.333 294.334 525 629.001c70.667 157.333 138.667 383 204 677c22 119.333 36 210.666 42 273.999v9h-4c-300 -712.667 -566.667 -1069 -800 -1069h-4
c-209.333 0 -340.333 112 -393 336c-12.667 61.333 -19 119.666 -19 174.999v71c0 308 86.667 601.333 260 880c21.333 38 56 57 104 57c94.667 -11.333 142 -36.666 142 -75.999c-5.33301 -18.667 -29 -62.667 -71 -132c-138.667 -354 -208 -653.667 -208 -899v-29
c0 -173.333 42.667 -260 128 -260c154 0 412.333 440 775 1320c33.333 82 84 123 152 123h19z" />
    <glyph glyph-name="Z" unicode="Z" horiz-adv-x="1669" 
d="M1115 1705l65.9941 -0.00195312c178.667 0 310.334 -64.667 395.001 -194c19.333 -49.333 29 -96.666 29 -141.999c0 -149.333 -95 -332.333 -285 -549c-7.33301 -13.333 -39 -52.333 -95 -117h7c150.667 0 271.334 -41.333 362.001 -124v-11
c0 -12.667 -26.667 -23.667 -80 -33c-7.33301 0 -38 11 -92 33c-27.333 4.66699 -54 7 -80 7c-86 0 -172.667 -8.33301 -260 -25c0 -9.33301 -234 -248.333 -702 -717h4c266 112 498.667 168 698 168c185.333 0 369.333 -51 552 -153l4 -19v-7
c-23.333 -26.667 -64.666 -40 -123.999 -40h-26c-133.333 60.667 -261.333 91 -384 91c-228 0 -536.333 -110.667 -925 -332c-28 -10 -50 -15 -66 -15h-18c-35.333 0 -67 23 -95 69v15c0 32 140 186.667 420 464c140 142.667 267 278 381 406v4
c-60 -16.667 -130.667 -44.667 -212 -84c-38 -29.333 -62.333 -44 -73 -44h-8c-57.333 0 -103.666 30.333 -138.999 91v19c16.667 28 86.334 67 209.001 117c140.667 48.667 277 84 409 106c263.333 318 395 548.333 395 691v40c0 92.667 -48.667 146.334 -146 161.001h-59
c-150.667 0 -338.334 -69.667 -563.001 -209c-122.667 -90.667 -214 -183.334 -274 -278.001c-29.333 -68 -64.666 -102 -105.999 -102h-15c-90 12.667 -135 38.334 -135 77.001c100.667 222 310.334 403.667 629.001 545c161.333 60.667 295.333 91 402 91z" />
    <glyph glyph-name="bracketleft" unicode="[" horiz-adv-x="985" 
d="M621 1702c118.667 0 191.332 -7.33203 217.999 -21.999c24.667 -12.667 37 -28 37 -46c-8 -20.667 -27.667 -31 -59 -31c-79.333 4.66699 -127 7 -143 7c-113.333 -3.33301 -170 -10 -170 -20c-45.333 -120 -106.333 -424.667 -183 -914
c-54 -350 -101.667 -704.333 -143 -1063h2c20.667 2.66699 54 4 100 4h46c114.667 0 177 -9.33301 187 -28c14.667 -8.66699 22 -18.334 22 -29.001v-4c0 -16 -15.333 -27 -46 -33c-75.333 1.33301 -126.666 2 -153.999 2c-16 0 -82.333 -3 -199 -9
c-75.333 0 -120 16.333 -134 49l-2 13v2c0 56.667 39 363.334 117 920.001c79.333 541.333 149.666 913.333 210.999 1116c4.66699 19.333 15.667 34.666 33 45.999c50.667 26.667 137.334 40 260.001 40z" />
    <glyph glyph-name="backslash" unicode="\" horiz-adv-x="747" 
d="M155 1303l23.001 -6.00195c29.333 -7.33301 98.666 -135.666 207.999 -384.999c214 -515.333 319.333 -815.333 316 -900l-1 -13c-4.66699 -11.333 -13.667 -16.666 -27 -15.999l-42 2l-15 14c-89.333 234 -199.666 501 -330.999 801
c-88.667 200.667 -167.334 350 -236.001 448l1 22c18 24.667 45.333 36 82 34z" />
    <glyph glyph-name="bracketright" unicode="]" horiz-adv-x="934" 
d="M665 1702l38.001 0.00195312c143.333 0 215 -25.667 215 -77c0 -87.333 -53.333 -501.333 -160 -1242c-64 -410.667 -121.333 -684.334 -172 -821.001c-29.333 -32 -98.333 -48 -207 -48h-31c-129.333 0 -205.666 13.333 -228.999 40
c-7.33301 9.33301 -11 16.666 -11 21.999v6c6.66699 22 28 33 64 33c50.667 -6 97 -9 139 -9h39c50 0 75 6 75 18c72 234 152 686.667 240 1358c34 240.667 59.667 450 77 628h-20c-56.667 0 -134.334 -1.66699 -233.001 -5c-64.667 10.667 -97 29.667 -97 57v3
c0 23.333 39.667 35 119 35c47.333 1.33301 98.666 2 153.999 2z" />
    <glyph glyph-name="asciicircum" unicode="^" horiz-adv-x="498" 
d="M263 1607l14.001 0.000976562c40 0.666992 66.667 -18 80 -56c76.667 -114.667 115 -172.667 115 -174v-10c-6.66699 -12 -19 -18.333 -37 -19h-13c-45.333 -0.666992 -76 25.666 -92 78.999l-43 90h-2c-6.66699 -7.33301 -43 -60 -109 -158
c-9.33301 -10.667 -22.333 -16 -39 -16h-10c-46 5.33301 -69.333 17.333 -70 36v8c67.333 86 127.666 157 180.999 213c6 4 14.333 6.33301 25 7z" />
    <glyph glyph-name="underscore" unicode="_" horiz-adv-x="895" 
d="M249 242h497c55.333 0 96.333 -13.333 123 -40v-16c0 -18.667 -61.333 -28 -184 -28h-458c-16 0 -36.667 -1.33301 -62 -4c-75.333 0 -120 18.667 -134 56v4c0 18.667 72.667 28 218 28z" />
    <glyph glyph-name="grave" unicode="`" horiz-adv-x="359" 
d="M118 1568c9.33301 4 16.6641 5.33496 21.9971 4.00195c9.33301 4 19 -1.66699 29 -17c24 -29.333 58.333 -63.333 103 -102c34.667 -24.667 52.334 -39.667 53.001 -45l1 -4c-1.33301 -12 -9.66602 -20.667 -24.999 -26l-12 -5c-8 -2.66699 -16.667 -4.66699 -26 -6
c-12 -4.66699 -46.333 6.33301 -103 33c-69.333 41.333 -108.333 72.666 -117 93.999l-1 5l1 8c14.667 27.333 36.334 46.666 65.001 57.999z" />
    <glyph glyph-name="a" unicode="a" 
d="M411 819l19.998 0.00195312c56 -8.66699 84 -25.334 84 -50.001v-2c-68 -176.667 -102 -319.667 -102 -429v-13c0 -20.667 3 -42 9 -64h11c31.333 29.333 66.333 79.333 105 150c60.667 116 93.334 176.667 98.001 182c10.667 4.66699 19 7 25 7
c20 -6.66699 30 -13.334 30 -20.001v-9c-125.333 -266 -228.666 -399 -309.999 -399h-11c-48 0 -83 36.333 -105 109c-4.66699 20.667 -7 39.667 -7 57v16h-2c-68.667 -98.667 -122.667 -148 -162 -148c-72.667 0 -122.667 28 -150 84c-9.33301 23.333 -14 46.333 -14 69v20
c0 88 31 187.667 93 299c55.333 86.667 122.333 130 201 130c36.667 0 74 -14.667 112 -44c1.33301 0 2 1 2 3c16.667 34.667 41 52 73 52zM84.998 350.002l0.000976562 -14c0 -26 6.66699 -39 20 -39c30 18 56.667 49.333 80 94c31.333 47.333 72.333 118 123 212
c-10.667 71.333 -27.334 107 -50.001 107c-42.667 0 -96.667 -99.667 -162 -299c-7.33301 -28 -11 -48.333 -11 -61z" />
    <glyph glyph-name="b" unicode="b" horiz-adv-x="697" 
d="M190 1241h16.999c40 0 68.333 -15.333 85 -46v-5c0 -3.33301 -17 -44 -51 -122c-40.667 -107.333 -80.334 -253 -119.001 -437c-2.66699 -11.333 -4 -17.333 -4 -18c84 123.333 165.333 185 244 185c48.667 0 92.334 -23 131.001 -69
c27.333 -35.333 41 -80.666 41 -135.999c0 -96.667 -34 -202.334 -102 -317.001h4c68 51.333 118 106.333 150 165c18.667 28.667 49.334 81 92.001 157c10.667 8.66699 20 13 28 13h14c20 -5.33301 30 -14 30 -26v-8c-10.667 -35.333 -44 -96 -100 -182
c-29.333 -42 -75 -94.333 -137 -157c-135.333 -118.667 -260.333 -178 -375 -178h-34c-8.66699 0 -18.667 9.66699 -30 29c-3.33301 5.33301 -5 12.666 -5 21.999v1c0 17.333 16.333 29 49 35c54.667 18.667 111 70.334 169 155.001c68.667 118 103 217.333 103 298v26
c0 39.333 -15.333 67.666 -46 84.999l-11 3c-54.667 0 -121.334 -90 -200.001 -270c-31.333 -66 -54.333 -146 -69 -240c-12.667 -14 -30.667 -21 -54 -21c-46.667 4.66699 -70 20.334 -70 47.001v38c0 166.667 38.333 408.667 115 726c26.667 98 53.334 175 80.001 231
c14 10.667 32.333 16 55 16z" />
    <glyph glyph-name="c" unicode="c" horiz-adv-x="528" 
d="M262 796l28.001 -0.000976562c71.333 0 107 -24.667 107 -74c-6.66699 -30 -21.667 -81.667 -45 -155c0 -30 -20 -45 -60 -45c-52.667 3.33301 -84 19 -94 47v4c4 25.333 11.667 55.333 23 90h-2c-50.667 -50.667 -86.334 -99.667 -107.001 -147
c-28.667 -59.333 -43 -112.666 -43 -159.999v-16c4 -58 21.667 -93.667 53 -107c8 -1.33301 14.333 -2 19 -2h4c75.333 0 200 125 374 375c13.333 9.33301 25 14 35 14h6c14 -2 21 -8.33301 21 -19v-6c0 -8.66699 -51.333 -80.667 -154 -216
c-111.333 -138 -210 -207 -296 -207h-13c-88 0 -148.667 37.333 -182 112c-10.667 23.333 -16 51.333 -16 84v17c0 90.667 43.667 190 131 298c74 75.333 144.333 113 211 113z" />
    <glyph glyph-name="d" unicode="d" horiz-adv-x="620" 
d="M604 1225c42.667 0 73.335 -15 92.002 -45v-8c-1.33301 -6 -12.333 -22 -33 -48c-30.667 -41.333 -69.667 -139.333 -117 -294c-14.667 -46 -24 -82.333 -28 -109c-16.667 -42 -37 -132 -61 -270c-12.667 -77.333 -19 -144.333 -19 -201v-12
c0 -106.667 24.667 -176.667 74 -210c8 -11.333 12 -20.333 12 -27c-5.33301 -4.66699 -10 -7 -14 -7h-12c-30.667 0 -67 16 -109 48c-49.333 51.333 -74 144 -74 278v58c-40 -54.667 -77 -102 -111 -142c-45.333 -48.667 -79.333 -73 -102 -73
c-88.667 0 -145.667 38 -171 114c-6.66699 27.333 -10 50.666 -10 69.999c0 106 32.333 218.333 97 337c61.333 96.667 134.666 145 219.999 145c47.333 0 92 -19 134 -57c25.333 110 55.333 206.667 90 290c29.333 64.667 58.333 113.334 87 146.001
c11.333 11.333 29.666 17 54.999 17zM58.001 286c0 -26 6.66699 -39.002 20 -39.002c34 0 86.333 60.333 157 181c46 92.667 71.667 164.334 77 215.001c-26.667 60.667 -42.667 91.334 -48 92.001c-40 -14 -86.667 -78.333 -140 -193c-44 -112.667 -66 -198 -66 -256z" />
    <glyph glyph-name="e" unicode="e" horiz-adv-x="500" 
d="M238 809l12.002 0.000976562c41.333 0 77.333 -16 108 -48c16 -21.333 24 -49 24 -83c0 -74.667 -28.667 -139.667 -86 -195c-26.667 -24.667 -54.334 -43.334 -83.001 -56.001c-23.333 -10 -48.333 -18 -75 -24c-16.667 -3.33301 -32 -5.33301 -46 -6v-31
c0 -55.333 13 -90.333 39 -105c8 -2.66699 14.667 -4 20 -4c52 0 135.333 70.333 250 211c36 46 64.333 85.333 85 118c19.333 20 38 30 56 30h4c10.667 -1.33301 16 -5.33301 16 -12v-2c0 -6.66699 -7.33301 -21.334 -22 -44.001
c-30.667 -51.333 -70.334 -108.666 -119.001 -171.999c-19.333 -24.667 -48.333 -57 -87 -97c-82 -80.667 -153.333 -121 -214 -121h-9c-54.667 0 -103.334 34.333 -146.001 103c-16.667 34.667 -25 72.667 -25 114v18c0 97.333 32.667 191 98 281
c62.667 83.333 129.334 125 200.001 125zM109.002 472.001h5.00098h3c66 0 109.667 30.333 131 91c7.33301 24 11 47 11 69c-2.66699 42 -10 63 -22 63h-1c-22.667 0 -62.334 -66.667 -119.001 -200z" />
    <glyph glyph-name="f" unicode="f" horiz-adv-x="559" 
d="M383 1120h10c46.667 0 82.334 -17 107.001 -51c0 -3.33301 0.666992 -7.66602 2 -12.999c0 -14 -20.333 -25.333 -61 -34c-35.333 -8 -70.333 -33 -105 -75c-54 -70 -100.667 -165 -140 -285c-28.667 -91.333 -52.667 -188.666 -72 -291.999h2
c70.667 9.33301 132 26.666 184 51.999c34.667 13.333 81 41 139 83c28 22 64.333 54.333 109 97c8 2.66699 13.667 4 17 4h7c21.333 -4.66699 32 -13.334 32 -26.001v-6c0 -9.33301 -31.333 -41.333 -94 -96c-78 -68.667 -164.667 -114.667 -260 -138
c-30 -10 -45 -15.667 -45 -17c86 -60.667 129 -142.667 129 -246v-17c0 -104 -38.667 -201.333 -116 -292c-48 -45.333 -91.333 -68 -130 -68h-20c-70.667 0 -117.667 59.333 -141 178c-11.333 56 -17 116 -17 180v49c0 194.667 39.333 406 118 634
c43.333 116 101 213.667 173 293c61.333 57.333 118.666 86 171.999 86zM108 282c-19.333 -131.333 -29 -236.667 -29 -316v-11c0 -86 13.333 -129 40 -129h2c28.667 7.33301 58.667 41.666 90 102.999c24.667 50.667 37 99.334 37 146.001v8c0 88.667 -46.667 155 -140 199
z" />
    <glyph glyph-name="g" unicode="g" 
d="M218 817l24.999 0.00195312c41.333 0 79.666 -18.333 114.999 -55c10.667 30.667 32 46 64 46h3c53.333 0 83.666 -19.333 90.999 -58c2 -10.667 3 -20.667 3 -30v-37c0 -40 -8 -108 -24 -204l6 -3c68.667 66 118.334 100.667 149.001 104c22 0 38.333 -8.33301 49 -25
v-6c0 -3.33301 -19.333 -14.333 -58 -33c-50 -39.333 -108.667 -94.333 -176 -165c-44 -172.667 -91.667 -312.334 -143 -419.001c-61.333 -132.667 -134.333 -214 -219 -244c-18 -8 -37.333 -12 -58 -12h-12c-54.667 8 -82 32.333 -82 73v18c0 86 115.333 256.333 346 511
c14.667 44.667 32 113.667 52 207v3h-3c-123.333 -206.667 -217.666 -310 -282.999 -310c-73.333 0 -121 32.333 -143 97c-4 15.333 -6 29.666 -6 42.999v27c0 102 44.667 222.667 134 362c56.667 73.333 113.334 110 170.001 110zM38.999 285.002
c4 -12.667 6.00098 -21 6.00098 -25h9c40.667 0 111.667 101.333 213 304l27 61c-15.333 75.333 -27.333 113 -36 113c-32.667 -14.667 -66.334 -56.334 -101.001 -125.001c-58.667 -97.333 -98 -206.666 -118 -327.999zM27 -232.998l6.00098 -3
c48 27.333 97.667 93.333 149 198c24 57.333 41 100 51 128h-3c-126.667 -155.333 -194.334 -263 -203.001 -323z" />
    <glyph glyph-name="h" unicode="h" horiz-adv-x="718" 
d="M238 1296l12.002 -0.999023c38 -1.33301 67.333 -15.666 88 -42.999c2.66699 -5.33301 4 -10 4 -14c-24.667 -51.333 -46.334 -100.333 -65.001 -147c-58 -147.333 -112.333 -332.333 -163 -555c-1.33301 -2.66699 -4.33301 -16 -9 -40v-1h1
c23.333 48.667 64 113 122 193c79.333 96.667 144.666 144 195.999 142c28.667 -1.33301 56.334 -9.33301 83.001 -24c19.333 -16.667 28.333 -36.667 27 -60v-5c-1.33301 -22.667 -23 -133.667 -65 -333c-10 -50.667 -15.333 -89.667 -16 -117
c-1.33301 -18 2 -31.333 10 -40c6 1.33301 32 35 78 101c52.667 78 109 157 169 237c14 12.667 26 18.667 36 18h7c14 -3.33301 20.667 -10 20 -20v-6c-0.666992 -10.667 -20.667 -40.667 -60 -90c-74.667 -108 -139 -196.667 -193 -266
c-40 -47.333 -76.333 -70.333 -109 -69c-22 1.33301 -47.667 14.666 -77 39.999c-20.667 27.333 -29.667 75.333 -27 144c4 84 25.333 210.667 64 380h-1c-61.333 -54.667 -105.333 -104.667 -132 -150c-31.333 -46.667 -61.333 -105.667 -90 -177
c-18 -41.333 -40.667 -109 -68 -203c-14 -24 -35 -35.667 -63 -35l-12 1c-32.667 1.33301 -58.334 13.666 -77.001 36.999l-1 3l1 27c8.66699 198.667 55 450.334 139 755.001c26 86.667 59.333 175.667 100 267c14 33.333 30.333 49.666 49 48.999
c0 2 7.33301 2.66699 22 2z" />
    <glyph glyph-name="i" unicode="i" horiz-adv-x="412" 
d="M98 751l11.9961 -0.00292969c34.667 -1.33301 63.334 -15 86.001 -41c2.66699 -5.33301 4 -9.66602 4 -12.999v-3c-45.333 -132 -69.333 -243 -72 -333c-1.33301 -35.333 2 -68.666 10 -99.999c50 12.667 109.333 75.667 178 189c22 37.333 51 90.666 87 159.999
c12.667 14 26.334 20.667 41.001 20h4c17.333 -3.33301 26 -11.666 26 -24.999v-8c-38 -84.667 -88.667 -172 -152 -262c-77.333 -99.333 -146.666 -148 -207.999 -146l-14 1c-35.333 0.666992 -70.333 21.334 -105 62.001c-22 34.667 -32.333 78.667 -31 132l1 24
c2.66699 84 29.334 192.333 80.001 325c11.333 12.667 29 18.667 53 18zM184.996 991.997c39.333 0 66.999 -22 82.999 -66v-24c0 -39.333 -22.333 -66 -67 -80h-29c-41.333 0 -69.666 23 -84.999 69v27c0 38 27.333 62.667 82 74h16z" />
    <glyph glyph-name="j" unicode="j" horiz-adv-x="354" 
d="M54 753l27 -0.00195312c43.333 0 75 -15 95 -45c0 -23.333 -15 -109.666 -45 -258.999h5c104.667 83.333 180 128.666 226 135.999h5c22.667 0 39.334 -7.33301 50.001 -22v-9c-4 -8 -34.333 -23.333 -91 -46c-84.667 -59.333 -160.334 -122.666 -227.001 -189.999
c-78.667 -316 -157 -529 -235 -639c-82.667 -102.667 -156.667 -154 -222 -154h-18c-48.667 0 -79 31.667 -91 95v27c0 114 124 307.333 372 580c48 192.667 85.667 363.334 113 512.001c15.333 9.33301 27.333 14 36 14zM-163 36.998c-154 -204.667 -231 -339 -231 -403
l9 -5c66 22 138.333 144.333 217 367c9.33301 22 14 35.667 14 41h-9zM144 1048c38.667 0 65.999 -22.333 81.999 -67v-24c0 -39.333 -22 -66 -66 -80h-30c-41.333 0 -69.666 23 -84.999 69v27c0 38 27.667 63 83 75h16z" />
    <glyph glyph-name="k" unicode="k" horiz-adv-x="634" 
d="M230 1299h8c40 0 71.333 -13.333 94 -40c2.66699 -6.66699 4 -11.334 4 -14.001c0 -3.33301 -12.333 -29.666 -37 -78.999c-54.667 -118.667 -106 -277.667 -154 -477c-13.333 -55.333 -25.666 -111.333 -36.999 -168v-1h2c40 58.667 94.333 126 163 202
c55.333 58.667 94 93.334 116 104.001c11.333 4.66699 25 7 41 7c35.333 0 65.333 -10 90 -30c7.33301 -8 11 -15 11 -21v-5c0 -10.667 -11.333 -20.334 -34 -29.001c-30 -24.667 -62.333 -57.667 -97 -99c-64 -75.333 -124.667 -156 -182 -242
c14.667 -30.667 42 -68 82 -112c16.667 -14.667 29.334 -22.334 38.001 -23.001c43.333 0 100.666 50 171.999 150c5.33301 5.33301 42 54.333 110 147c14.667 13.333 28 20 40 20c13.333 -1.33301 20 -7 20 -17v-1c0 -11.333 -11 -30.333 -33 -57
c-68 -97.333 -128.333 -177.333 -181 -240c-45.333 -51.333 -85.333 -77 -120 -77c-64.667 0 -130.667 31.333 -198 94h-1c-44.667 -82.667 -70 -145.334 -76 -188.001c-11.333 -15.333 -29 -23 -53 -23h-12c-36 0 -58.667 14 -68 42c-5.33301 30.667 -8 60.334 -8 89.001
v37c0 124.667 28 308.334 84 551.001c45.333 184.667 95.666 337.667 150.999 459c10.667 26.667 28.667 40 54 40c0 0.666992 3.66699 1 11 1z" />
    <glyph glyph-name="l" unicode="l" horiz-adv-x="290" 
d="M224 1323l14.002 0.00292969c51.333 -2.66699 83.666 -16.334 96.999 -41.001v-4c0 -3.33301 -10.333 -39 -31 -107c-130 -448 -195 -756.667 -195 -926c0 -60 10.333 -96.667 31 -110c9.33301 0 16 -6.33301 20 -19c0 -16 -14.667 -25.667 -44 -29h-10
c-43.333 0 -77.333 21.667 -102 65c-20 45.333 -30 101.666 -30 168.999v32c0 191.333 57.333 482.666 172 873.999c18 56.667 29.667 85 35 85c13.333 7.33301 27.666 11 42.999 11z" />
    <glyph glyph-name="m" unicode="m" horiz-adv-x="920" 
d="M659 836h1.00098c40.667 0 68.334 -11.667 83.001 -35c3.33301 -7.33301 5 -15.666 5 -24.999v-12c0 -34.667 -21.667 -137.334 -65 -308.001c-22 -94 -33 -157.667 -33 -191v-3c0 -18.667 3.33301 -30.334 10 -35.001c20 22 46.667 55.667 80 101l172 240
c11.333 13.333 22 20 32 20h7c13.333 -3.33301 20 -9.66602 20 -18.999v-6c0 -8.66699 -8.33301 -23.667 -25 -45c-62 -91.333 -117 -168 -165 -230c-66.667 -85.333 -121.667 -128 -165 -128h-8c-20.667 0 -45.334 10.333 -74.001 31c-12.667 13.333 -19 39.333 -19 78
c0 54 16 159.667 48 317c3.33301 17.333 8 45.666 14 84.999v1h-1l-223 -415c-15.333 -22.667 -33 -34 -53 -34c-21.333 0 -37.333 13 -48 39c-2 6.66699 -3 13.667 -3 21v11c0 31.333 12.667 138 38 320c0.666992 13.333 1 23 1 29v2l-1 3c-14 0 -43 -46.667 -87 -140
c-26.667 -55.333 -69.334 -150.666 -128.001 -285.999c-12 -25.333 -19.333 -38 -22 -38c-10.667 -8.66699 -25.667 -13 -45 -13h-7c-28.667 0 -52.334 8.33301 -71.001 25c-11.333 12 -17 26 -17 42v8c0 16 10.667 76 32 180c22 104 41 183.667 57 239c10 14 28 21 54 21h3
c34.667 0 62.667 -10.333 84 -31c4 -6 6 -10.667 6 -14v-3c0 -1.33301 -11 -45.333 -33 -132v0v0c38.667 65.333 70.334 116.333 95.001 153c46 65.333 83 98 111 98c58.667 0 88 -71 88 -213v-1h1c117.333 195.333 201 293 251 293z" />
    <glyph glyph-name="n" unicode="n" horiz-adv-x="659" 
d="M407 812h12c28 0 51.333 -9.33301 70 -28c4.66699 -6 7 -14.667 7 -26c0 -24 -21.333 -120.333 -64 -289c-18 -71.333 -30.333 -137.333 -37 -198c0.666992 -2 1.33398 -3 2.00098 -3c9.33301 5.33301 23.333 21 42 47c94 139.333 162.333 237 205 293
c12.667 11.333 26 17 40 17c17.333 -3.33301 26 -10 26 -20v-5c0 -8.66699 -21 -40.334 -63 -95.001c-78.667 -117.333 -139.334 -205 -182.001 -263c-34.667 -40 -63.667 -60 -87 -60h-9c-31.333 0 -58.333 19 -81 57c-12 27.333 -18 56.333 -18 87v24
c0 62 19.667 162.667 59 302v2h-1c-91.333 -132 -170.333 -257 -237 -375c-26 -52.667 -41.667 -81 -47 -85c-8.66699 -4 -17.334 -6 -26.001 -6c-42.667 0 -71.667 15.667 -87 47c-1.33301 8.66699 -2 14.334 -2 17.001v11c8.66699 70 25.334 160 50.001 270
c21.333 102 37.333 169.333 48 202c10 12.667 27.333 19 52 19c39.333 0 69 -12.667 89 -38l3 -8v-4c-21.333 -76 -35 -128 -41 -156h2c34 56.667 74.667 114 122 172c56 61.333 107 92 153 92z" />
    <glyph glyph-name="o" unicode="o" horiz-adv-x="534" 
d="M188 796l11 -0.00195312c76 0 129.333 -29.667 160 -89c12.667 -28 19 -60.667 19 -98v-4c0 -42 -8 -91.333 -24 -148h1c51.333 20 88 38.333 110 55c8.66699 4.66699 24.667 18.667 48 42c14 20.667 22.667 31.334 26 32.001l4 1c14 0 29 -8.66699 45 -26v-4
c-30.667 -39.333 -64.667 -70.666 -102 -93.999c-41.333 -27.333 -87.333 -49.666 -138 -66.999c-13.333 -2.66699 -20 -7.66699 -20 -15c-15.333 -30.667 -38.333 -63.334 -69 -98.001c-58 -58 -114.667 -87 -170 -87h-11c-42 0 -78.667 21.333 -110 64
c-25.333 44.667 -38 90 -38 136v15c0 59.333 17.333 113.333 52 162c0 30 10 66 30 108c28.667 50.667 68.667 86 120 106c21.333 6 40 9 56 9zM112 610.998c30.667 -12 46 -25.332 46 -39.999v-2c0 -8.66699 -9 -18.334 -27 -29.001c-12 -12.667 -20 -23.334 -24 -32.001
c18.667 -52.667 56 -79 112 -79c26.667 72.667 40 134.667 40 186v16c0 38 -9 70.667 -27 98c-2.66699 2 -5.66699 3.66699 -9 5c-19.333 0 -44.333 -17 -75 -51c-14 -19.333 -25 -38 -33 -56c-2 -7.33301 -3 -12.666 -3 -15.999zM78 406.999
c0 -3.33301 -0.332031 -10.333 -0.999023 -21c0 -43.333 8.66699 -78 26 -104c5.33301 -4 10.666 -6 15.999 -6c18.667 0 43.667 31 75 93c-40 5.33301 -73 15 -99 29l-16 9h-1z" />
    <glyph glyph-name="p" unicode="p" horiz-adv-x="651" 
d="M115 826l18.9971 1c48.667 1.33301 78.334 -14 89.001 -46l37 4l27 1c94.667 3.33301 163 -36 205 -118c7.33301 -24.667 11.333 -50 12 -76c2.66699 -70 -24 -149 -80 -237v-6c92.667 79.333 161 159 205 239c11.333 10 21.333 15.333 30 16l21 1c12 0 22.333 -6 31 -18
l1 -12c-21.333 -61.333 -104.666 -152.333 -249.999 -273c-109.333 -81.333 -199.333 -123 -270 -125c-63.333 -2 -104 3.66699 -122 17c-19.333 -148.667 -27.666 -267.667 -24.999 -357l1 -22c-9.33301 -16 -23.333 -24.333 -42 -25l-18 -1
c-48.667 -1.33301 -78.667 14 -90 46l-2 48c-6 188.667 36 449 126 781c35.333 103.333 59 155 71 155c7.33301 4.66699 15.333 7 24 7zM77.9971 225c52 24 91.665 47.667 118.998 71c108 108.667 160.333 217 157 325c-1.33301 39.333 -14.666 68.333 -39.999 87
c-59.333 -18.667 -102.666 -51.667 -129.999 -99c-23.333 -32.667 -43.333 -79 -60 -139c-24.667 -110 -40 -191.667 -46 -245z" />
    <glyph glyph-name="q" unicode="q" horiz-adv-x="619" 
d="M240 822h8.99902c46.667 0 89.334 -20.667 128.001 -62h2c9.33301 24.667 27.666 37 54.999 37h9c59.333 -7.33301 89 -23.333 89 -48c-113.333 -350 -196.333 -641.667 -249 -875h5c28.667 44 74.334 89 137.001 135c40 27.333 71.667 41 95 41h26
c24.667 0 43.667 -9 57 -27v-5c0 -13.333 -19 -20 -57 -20c-66 0 -135.333 -64 -208 -192c-27.333 -50.667 -50.333 -76 -69 -76h-36c-53.333 0 -80 27.667 -80 83c0 49.333 39.667 235 119 557c-58 -76.667 -111.333 -131.667 -160 -165c0 -8 -13.667 -13.333 -41 -16h-14
c-64.667 0 -109.667 28.333 -135 85c-6 20 -9 36.667 -9 50v21c0 98 40.333 213.667 121 347c59.333 86.667 128 130 206 130zM49.999 290c0 -15.333 5.33301 -22.999 16 -22.999c30 9.33301 81 63.333 153 162c59.333 79.333 93 135.666 101 168.999
c0 4 -17 51.333 -51 142c-37.333 -7.33301 -82 -59.333 -134 -156c-56.667 -129.333 -85 -227.333 -85 -294z" />
    <glyph glyph-name="r" unicode="r" horiz-adv-x="518" 
d="M56 893l19.0029 -0.00292969c13.333 0 29.666 -6.33301 48.999 -19c91.333 -31.333 155.666 -82.666 192.999 -153.999c16 -34 24 -60.667 24 -80v-14c0 -54.667 -27.667 -150.667 -83 -288c-25.333 -75.333 -38 -126.666 -38 -153.999v-9c0 -8 2 -13 6 -15h5
c16.667 10.667 36.667 32.334 60 65.001c77.333 118.667 143.333 234 198 346c25.333 22 48.333 33 69 33h9c6.66699 0 12.667 -3.66699 18 -11v-5c0 -6.66699 -10.667 -25 -32 -55c-82 -148 -156.333 -270.667 -223 -368c-44 -62.667 -85 -94 -123 -94h-18
c-50.667 0 -85.334 18.333 -104.001 55c-6.66699 12.667 -10 27.667 -10 45v10c0 50.667 35.667 161.667 107 333c18 51.333 27 85.333 27 102c0 31.333 -29.333 75.333 -88 132c-16.667 -62.667 -34 -108.667 -52 -138c-20.667 -30.667 -39 -46 -55 -46
c-27.333 6 -41 19.333 -41 40v1c0 4.66699 8 21.667 24 51c13.333 38 20 67.333 20 88v8c0 34 -13.667 58.333 -41 73c-4 4.66699 -6 10 -6 16v3c0 19.333 24 35 72 47c4 1.33301 8.66699 2 14 2z" />
    <glyph glyph-name="s" unicode="s" horiz-adv-x="551" 
d="M319 871l12 0.00195312c46 -3.33301 74 -17.666 84 -42.999l2 -3c0 -2 -9.66699 -22.333 -29 -61c-31.333 -72.667 -48.333 -120.667 -51 -144c-10 -14 -27.333 -21 -52 -21c-51.333 4 -81.333 18.667 -90 44l-2 4c0 13.333 8 41 24 83h-2
c-47.333 -52 -78.333 -100.667 -93 -146c-3.33301 -7.33301 -5 -16.333 -5 -27v-9c0 -30.667 23 -59.334 69 -86.001c32 -28.667 50.333 -43 55 -43c84.667 68.667 161.667 119.667 231 153c42.667 20.667 76 31 100 31c24.667 -4 37 -9.33301 37 -16v-1
c0 -10.667 -22 -24.334 -66 -41.001c-79.333 -38 -159.333 -89 -240 -153c-7.33301 -8 -12.333 -12 -15 -12v-3c29.333 -44 44 -82.667 44 -116c0 -62.667 -46.333 -130.334 -139 -203.001c-55.333 -38.667 -107.333 -58 -156 -58h-17c-27.333 0 -54 13.667 -80 41
c-6.66699 9.33301 -10 20 -10 32v7c0 58 77.667 149 233 273c-52 48.667 -91.333 79.667 -118 93c-48.667 38 -73 76.667 -73 116v8c0 51.333 33 117 99 197c40.667 44 83.667 66 129 66h3c15.333 0 34 -2.66699 56 -8c9.33301 30.667 29.333 46 60 46zM30 110.002h2
c38.667 0 78.667 28 120 84c17.333 26.667 26 52.667 26 78v6c-97.333 -96 -146 -151.333 -146 -166c-1.33301 0 -2 -0.666992 -2 -2z" />
    <glyph glyph-name="t" unicode="t" horiz-adv-x="267" 
d="M222 1347l11.001 0.000976562c33.333 0 60.666 -12 81.999 -36l3 -12c0 -1.33301 -12 -38 -36 -110h1c42 3.33301 99.667 5.66602 173 6.99902c166 0 277 -20.333 333 -61c1.33301 -2.66699 2 -5 2 -7v-4c0 -11.333 -12.333 -23.666 -37 -36.999
c-22.667 -12 -44 -18 -64 -18h-5c-2.66699 0 -16.667 4.66699 -42 14c-28.667 6 -58.667 9 -90 9h-24c-71.333 0 -166 -7.33301 -284 -22c-104.667 -364.667 -157 -639.667 -157 -825v-8c0 -41.333 6.66699 -68 20 -80c22 -10.667 33 -22.334 33 -35.001
c-4 -19.333 -21 -29 -51 -29h-11c-51.333 0 -88 27.667 -110 83c-14 42 -21 91.667 -21 149c0 156.667 45.667 397 137 721h-1c-120 -20 -217.333 -41.667 -292 -65c-24.667 0 -53.334 23.667 -86.001 71c-4 9.33301 -6 17 -6 23v2c0 8 15.333 15.667 46 23
c54 20 170 43.333 348 70c20.667 0 31 2.66699 31 8c32 103.333 49.667 155 53 155c10.667 9.33301 25.334 14 44.001 14z" />
    <glyph glyph-name="u" unicode="u" horiz-adv-x="606" 
d="M381 788h11.001c35.333 0 62.666 -14.667 81.999 -44c-64 -246 -96 -403.333 -96 -472v-3c34 31.333 69 78.333 105 141c28 41.333 62.333 97 103 167c7.33301 6 14 9 20 9h12c2.66699 0 8.66699 -6 18 -18v-12c-9.33301 -36 -49.666 -110.333 -120.999 -223
c-64.667 -89.333 -112.334 -134 -143.001 -134h-3c-80 7.33301 -120 44.333 -120 111c-71.333 -86 -123.333 -129 -156 -129h-11c-80 0 -128 34.333 -144 103c-2 7.33301 -3 16 -3 26v35c0 86.667 37 225.334 111 416.001c14 14 32.667 21 56 21
c60.667 -7.33301 91 -24 91 -50c-70.667 -206.667 -106 -336.667 -106 -390c-1.33301 -9.33301 -2 -22 -2 -38v-6c0 -5.33301 1.66699 -11 5 -17c30.667 9.33301 110 156.666 238 441.999c13.333 43.333 31 65 53 65z" />
    <glyph glyph-name="v" unicode="v" horiz-adv-x="504" 
d="M371 920c26.667 -8 47.668 -22.334 63.001 -43.001c16 -22.667 24 -53.667 24 -93v-4c0 -114.667 -66 -272.334 -198 -473.001c-74 -103.333 -126 -156.666 -156 -159.999h-9c-62.667 0 -99 26 -109 78c-10.667 46 -16 95 -16 147v50c6 178.667 22.333 279.667 49 303
c11.333 10.667 28.333 16 51 16h7c37.333 0 67.666 -12.333 90.999 -37c3.33301 -6.66699 5 -11.667 5 -15v-3c-28 -58.667 -42 -163.667 -42 -315v-26c52.667 70 101 144.667 145 224c60.667 116.667 91 201.334 91 254.001v12c0 30 -12.333 55.333 -37 76
c0 4 13.667 7 41 9z" />
    <glyph glyph-name="w" unicode="w" horiz-adv-x="724" 
d="M355 929l21.998 0.000976562c47.333 0 85.666 -15.667 114.999 -47c22 -21.333 39.667 -45 53 -71c40 -76.667 60 -162.667 60 -258v-12c0 -102 -26.667 -188.667 -80 -260c-21.333 -24 -41 -41.667 -59 -53c-43.333 -24.667 -83.333 -37 -120 -37h-13
c-45.333 0 -79.666 23 -102.999 69c-13.333 32.667 -20 55.334 -20 68.001c-0.666992 0 -1 1.33301 -1 4h-1c-38 -72 -77 -115 -117 -129c-13.333 -4 -27.666 -6 -42.999 -6c-39.333 0 -74 13 -104 39c-22.667 23.333 -34 55.666 -34 96.999v21c0 60 17.333 140.667 52 242
c25.333 65.333 49.333 110.666 72 135.999c10.667 12 27.334 18 50.001 18c37.333 0 66.333 -11 87 -33c4 -4.66699 6 -9.33398 6 -14.001v-5c0 -2.66699 -7.66699 -14 -23 -34c-19.333 -30.667 -38.333 -73.667 -57 -129c-22 -73.333 -33 -120.333 -33 -141v-25
c0 -36.667 6 -55 18 -55h2c22 0 59 52.667 111 158c33.333 72 50 113 50 123c9.33301 4 20 6 32 6c36 -2 54 -7.33301 54 -16c5.33301 0 11 -63.667 17 -191c8 -60 19.667 -90 35 -90h1c24 0 50.667 52 80 156c9.33301 38.667 14 78.667 14 120v5
c0 98.667 -22 187.334 -66 266.001c-15.333 22 -31.666 36 -48.999 42c-23.333 4.66699 -35 10.667 -35 18c-2.66699 5.33301 -4 9.33301 -4 12c5.33301 4 15.666 6 30.999 6z" />
    <glyph glyph-name="x" unicode="x" horiz-adv-x="550" 
d="M35 809h13.002c49.333 -3.33301 79.666 -18.333 90.999 -45c0.666992 0 1 -2 1 -6c-8 -49.333 -12 -97.666 -12 -144.999c0 -22 1 -41.333 3 -58h1c46.667 74 104.334 148.667 173.001 224c19.333 20 39.333 30 60 30h13c49.333 -4.66699 78.333 -19 87 -43
c1.33301 0 2 -2 2 -6c0 -9.33301 -12 -22.333 -36 -39c-68 -71.333 -133.667 -150.333 -197 -237l-56 -77c11.333 -11.333 27.666 -17 48.999 -17c68 0 166.667 63.667 296 191c15.333 11.333 30 17 44 17c20 -2 30 -9.33301 30 -22v-2c0 -10.667 -13 -27.334 -39 -50.001
c-147.333 -142 -284 -213 -410 -213c-4.66699 0 -15.667 1.33301 -33 4c-39.333 -60.667 -68.333 -111.667 -87 -153c-11.333 -11.333 -24.333 -17 -39 -17h-16c-35.333 6 -53 17 -53 33v5c7.33301 30.667 42.333 98.667 105 204c-36 58 -54 140.333 -54 247
c3.33301 109.333 11.666 164 24.999 164c12.667 7.33301 25.667 11 39 11z" />
    <glyph glyph-name="y" unicode="y" horiz-adv-x="684" 
d="M485 814h10.001c37.333 0 56 -22 56 -66v-19c0 -54 -13.667 -138 -41 -252h3c89.333 78 149.333 117 180 117h9c19.333 0 34 -7.33301 44 -22v-10c0 -2.66699 -19.667 -13 -59 -31c-49.333 -32 -120.666 -95 -213.999 -189c-152.667 -468 -294.334 -702 -425.001 -702
h-19c-48 0 -81.667 25 -101 75v29c4.66699 60.667 77 178 217 352l145 164c18.667 51.333 39.667 119.666 63 204.999v3h-3c-112.667 -191.333 -211.334 -287 -296.001 -287c-73.333 0 -110 68.333 -110 205c0 98 31.333 210.333 94 337c34 56.667 63.333 85 88 85h7
c65.333 -6.66699 99.666 -23.667 102.999 -51v-3c-48 -63.333 -91 -153.666 -129 -270.999c-16.667 -67.333 -25 -115.333 -25 -144c4.66699 -27.333 11 -41 19 -41h3c46 0 130 114.333 252 343c52.667 99.333 85.334 154 98.001 164c10.667 6 21 9 31 9zM10.001 -250h3
c87.333 104 152.333 203.667 195 299c-113.333 -139.333 -179.333 -239 -198 -299z" />
    <glyph glyph-name="z" unicode="z" horiz-adv-x="643" 
d="M250 813h21.999c72.667 0 130.667 -31 174 -93c13.333 -20.667 20 -44.334 20 -71.001v-2c0 -77.333 -59.333 -173 -178 -287c43.333 -1.33301 73 -4 89 -8c130 125.333 213 199 249 221c14.667 8 25.667 14.333 33 19l29 6c19.333 -36 18.333 -62.667 -3 -80
c-50 -28.667 -127.667 -94.667 -233 -198c18.667 -17.333 28 -38.333 28 -63c0 -75.333 -72.667 -179.666 -218 -312.999c-110 -88.667 -189.333 -133 -238 -133h-21c-30.667 4.66699 -46 18 -46 40v11c7.33301 76 104.333 202.333 291 379c4 0 9.33301 4.66699 16 14h-2
c-20.667 0 -80 -20 -178 -60c-9.33301 -1.33301 -16.666 -2 -21.999 -2h-4c-49.333 0 -81 16.667 -95 50v2c2 10 28.333 34.333 79 73c180.667 150 271 263.667 271 341v11c0 22 -8.33301 42 -25 60c-76 -28 -135 -77 -177 -147c-5.33301 -13.333 -23 -21 -53 -23
c-44.667 0 -77 14.333 -97 43v10c16 46.667 65.333 98.667 148 156c54 29.333 101 44 141 44zM49.999 -110c0.666992 -2.66699 2 -3.99902 4 -3.99902c32 7.33301 99.333 57.666 202 150.999c72.667 74.667 109 131.334 109 170.001c0 11.333 -3.33301 20.666 -10 27.999h-2
c-175.333 -163.333 -276.333 -278.333 -303 -345z" />
    <glyph glyph-name="braceleft" unicode="{" horiz-adv-x="891" 
d="M617 1726l33.999 -0.000976562c48.667 0 82.334 -18.333 101.001 -55c0 -28 -44 -42 -132 -42c-48 -14.667 -80.333 -39 -97 -73c-14 -44 -21 -87.667 -21 -131c7.33301 -152 11 -241 11 -267c0 -256.667 -104 -452 -312 -586v-3c104 -73.333 156 -180.666 156 -321.999
v-35c0 -58 -21 -199 -63 -423c-2 -17.333 -3 -37 -3 -59v-13c0 -67.333 27.667 -101 83 -101c64.667 -8 97 -26.333 97 -55v-7c-11.333 -18.667 -27.333 -28 -48 -28h-59c-116.667 0 -194 41.667 -232 125c-9.33301 28.667 -14 52.667 -14 72v46c0 34 19.667 161 59 381
c4.66699 27.333 7 62 7 104v17c0 135.333 -52 230 -156 284c-18.667 13.333 -28 26 -28 38c0 14.667 29 37.667 87 69c166 123.333 249 287.333 249 492v28c0 16.667 -2.33301 113.667 -7 291c0 168.667 96 253 288 253z" />
    <glyph glyph-name="bar" unicode="|" horiz-adv-x="516" 
d="M381 1706l20 -0.999023c34.667 -7.33301 51.667 -21.333 51 -42c-102.667 -338 -175 -992.333 -217 -1963l-6 -151c-0.666992 -6.66699 -10 -15 -28 -25l-46 2c-30.667 1.33301 -38.334 179.666 -23.001 534.999l15 355c36.667 852 90.334 1276.33 161.001 1273
c0.666992 13.333 25 19 73 17z" />
    <glyph glyph-name="braceright" unicode="}" horiz-adv-x="905" 
d="M472 1726l59 0.000976562c116.667 0 194 -41.667 232 -125c9.33301 -28.667 14 -52.667 14 -72v-46c0 -34 -19.667 -161 -59 -381c-4.66699 -27.333 -7 -62 -7 -104v-17c0 -135.333 52 -230 156 -284c18 -13.333 27 -26 27 -38c0 -14.667 -28.667 -37.667 -86 -69
c-166.667 -123.333 -250 -287.333 -250 -492v-28c0 -16.667 2.33301 -113.667 7 -291c0 -168.667 -95.667 -253 -287 -253h-35c-48 0 -81.333 18.333 -100 55c0 28 43.667 42 131 42c48 14.667 80.333 39 97 73c14 44 21 87.667 21 131c-6.66699 152 -10 241 -10 267
c0 256.667 104 452 312 586v3c-104 73.333 -156 180.666 -156 321.999v35c0 58 20.667 199 62 423c2 17.333 3 37 3 59v13c0 67.333 -27.667 101 -83 101c-64.667 8 -97 26.333 -97 55v7c12 18.667 28.333 28 49 28z" />
    <glyph glyph-name="asciitilde" unicode="~" horiz-adv-x="589" 
d="M201 593h10.998c42.667 0 97.334 -24.333 164.001 -73h14c16.667 0 32.667 19.667 48 59c12.667 9.33301 28.667 14 48 14c32 -6.66699 48 -19.667 48 -39c-28.667 -83.333 -72 -125 -130 -125h-20c-40.667 0 -85 20.667 -133 62c-10 0 -27.667 -22.667 -53 -68
c-13.333 -7.33301 -30.333 -11 -51 -11c-58.667 8.66699 -88 24.667 -88 48c0 24.667 21.667 59.667 65 105c24.667 18.667 50.334 28 77.001 28z" />
    <glyph glyph-name="exclamdown" unicode="&#xa1;" horiz-adv-x="409" 
d="M86 90c-61.333 6.66699 -92 22.667 -92 48c70 192 149.333 487.667 238 887c0 34 9.33301 56.333 28 67h16c23.333 -14 35 -38.333 35 -73v-35c0 -140 -46.333 -404.333 -139 -793c-18 -67.333 -39.333 -101 -64 -101h-22zM286 1137c-32 0 -54.667 20.334 -68 61.001v21
c0 36 18.333 60.333 55 73h24c34 0 57.333 -21 70 -63v-24c0 -34.667 -22.667 -57.334 -68 -68.001h-13z" />
    <glyph glyph-name="cent" unicode="&#xa2;" horiz-adv-x="768" 
d="M630 916c24.667 0 42.001 -7.66602 52.001 -22.999c-4 -16.667 -69.667 -126.334 -197 -329.001c0 -18 -10.333 -33.333 -31 -46l-168 -269h3c85.333 0 200 113 344 339c12.667 15.333 29 23 49 23c10.667 0 16.667 -7 18 -21c0 -12.667 -56 -91 -168 -235
c-95.333 -114 -187 -171 -275 -171c-2.66699 2 -6 3 -10 3c-54 -96 -84 -146.333 -90 -151l-16 -2h-16c-24 4.66699 -36 14 -36 28l83 143c-67.333 37.333 -101 93.333 -101 168v3c0 100 48.333 205 145 315c64.667 58.667 131 88 199 88c41.333 0 74.333 -10.333 99 -31
c55.333 98 89.666 153.333 102.999 166zM213.001 363.001c2 -23.333 5.66699 -46.667 11 -70l150 235c-12 0 -24 11.333 -36 34v2c3.33301 27.333 10 56.666 20 87.999c-55.333 -55.333 -94 -111.333 -116 -168c-14 -39.333 -23.667 -79.666 -29 -120.999z" />
    <glyph glyph-name="sterling" unicode="&#xa3;" horiz-adv-x="896" 
d="M577 1299l24.999 0.00195312c62 0 115 -21.667 159 -65c43.333 -47.333 65 -102 65 -164v-37c0 -34.667 -9.33301 -87.667 -28 -159c-14 -9.33301 -31 -15 -51 -17c-49.333 0 -80.666 17 -93.999 51c18.667 92.667 28 158 28 196c0 57.333 -19.667 93 -59 107
c-13.333 0 -21 1 -23 3c-48 0 -107.333 -35.667 -178 -107c-66 -79.333 -99 -152 -99 -218c0 -46.667 20.667 -133.667 62 -261c5.33301 -26.667 9.33301 -40 12 -40c24.667 0 68 2 130 6c50.667 -7.33301 76 -23.333 76 -48c0 -18.667 -41.333 -28 -124 -28h-82v-3
c0 -86.667 -51 -191.334 -153 -314.001h3c144 14.667 241 22 291 22h37c77.333 -4 116 -21 116 -51v-3c0 -26.667 -36.667 -43.334 -110 -50.001c-8.66699 0 -22 5.66699 -40 17c-4 1.33301 -7 2 -9 2c-193.333 -20.667 -307.333 -31 -342 -31h-28
c-60.667 6.66699 -91 23.667 -91 51v9c0 12 31 52.333 93 121c68 88.667 102 162.334 102 221.001v3c-6.66699 0 -15 -1 -25 -3c-42 0 -70.333 15 -85 45c0 19.333 35.667 30.666 107 33.999v3c-4.66699 22.667 -32 107.667 -82 255c-3.33301 15.333 -5 31.333 -5 48v23
c0 104.667 61.333 205.667 184 303c79.333 52.667 152 79 218 79z" />
    <glyph glyph-name="currency" unicode="&#xa4;" horiz-adv-x="814" 
d="M650 803c42 0 69.666 -15.3311 82.999 -45.998c0 -4.66699 -33.667 -45.334 -101 -122.001c5.33301 -9.33301 8 -30.333 8 -63v-18c0 -41.333 -13 -93 -39 -155c88 -58 132 -93.667 132 -107c0 -16.667 -19 -26 -57 -28c-33.333 0 -75.666 22.333 -126.999 67
c-50 -41.333 -102.667 -62 -158 -62c-7.33301 0 -35 3.33301 -83 10c-42.667 -53.333 -70.667 -80 -84 -80c-8.66699 -2 -17 -3 -25 -3c-54 8 -81 22.667 -81 44v3c0 8.66699 26 40.667 78 96c6.66699 6.66699 10 11.667 10 15c-17.333 30 -26 66.333 -26 109
c0 39.333 8.66699 82.666 26 129.999c-88 60 -132 94.667 -132 104v5c0 19.333 17.333 29 52 29c31.333 0 72 -20 122 -60c48 66 111 99 189 99c35.333 0 76 -9.66699 122 -29c29.333 41.333 57 62 83 62h8zM317.999 424.002c0 -44.667 7 -67 21 -67l10 -13
c68.667 0 119 65 151 195c1.33301 14.667 2 27.667 2 39v36c0 53.333 -12 80 -36 80h-3c-42 0 -82.667 -45 -122 -135c-15.333 -38.667 -23 -83.667 -23 -135z" />
    <glyph glyph-name="yen" unicode="&#xa5;" horiz-adv-x="887" 
d="M697 1289l12.999 -0.000976562c42.667 0 71.667 -22.333 87 -67c5.33301 -15.333 8 -41.666 8 -78.999c0 -141.333 -29 -296.666 -87 -465.999h16c41.333 0 66 -14.333 74 -43c0 -19.333 -39 -29 -117 -29c-3.33301 -6 -5 -10.333 -5 -13h3l16 2c42 0 70 -11.333 84 -34
v-13c0 -16 -37.667 -24 -113 -24h-19c-3.33301 -2.66699 -22.666 -35.334 -57.999 -98.001c-68.667 -110 -157 -185 -265 -225l-53 -8c-49.333 6 -75 17.333 -77 34c0 9.33301 31 21 93 35c82 37.333 154.333 123 217 257c-1.33301 0 -6.66602 -1 -15.999 -3
c-52.667 6 -79 21 -79 45c8 21.333 50.333 32 127 32l2 5v5l-31 -2h-16c-16 0.666992 -33 6.66699 -51 18h-2c-50.667 -49.333 -99.334 -74 -146.001 -74c-103.333 0 -172.333 52 -207 156c-8.66699 46.667 -13 86.667 -13 120c0 142.667 41.667 278.667 125 408
c12.667 14 30.334 21 53.001 21h2c45.333 0 73.666 -15 84.999 -45v-8c-81.333 -118 -122 -244.333 -122 -379v-40c0 -70.667 17 -122.667 51 -156c33.333 0 88 69 164 207c54.667 112.667 115.667 246.667 183 402c25.333 39.333 50 59 74 59zM637.999 927.999v-5h3v5h-3z
M635.999 919.999c-37.333 -83.333 -84.333 -164.332 -141 -242.999v-6c32.667 2 56.667 3 72 3h11c19.333 59.333 39.333 140.666 60 243.999v2h-2z" />
    <glyph glyph-name="brokenbar" unicode="&#xa6;" horiz-adv-x="720" 
d="M341 539l20 -1.00098c34.667 -3.33301 51.667 -9.66602 51 -18.999c-102.667 -157.333 -175 -461.666 -217 -912.999l-6 -71c-0.666992 -2.66699 -10 -6.33398 -28 -11.001l-46 1c-30.667 0.666992 -38.334 83.667 -23.001 249l15 165
c36.667 396 90.334 593.333 161.001 592c0.666992 6 25 8.66699 73 8zM531 1706l20 0.000976562c34.667 -3.33301 51.667 -9.33301 51 -18c-102.667 -146 -175 -428.333 -217 -847l-6 -65c-0.666992 -3.33301 -10 -7 -28 -11l-46 1
c-30.667 0.666992 -38.334 77.667 -23.001 231l15 153c36.667 367.333 90.334 550.333 161.001 549c0.666992 5.33301 25 7.66602 73 6.99902z" />
    <glyph glyph-name="section" unicode="&#xa7;" horiz-adv-x="783" 
d="M623 1303l16.001 1.00293c33.333 -4.66699 50.666 -16.334 51.999 -35.001l1 -11c0 -2.66699 -21.333 -51.667 -64 -147c-22.667 -80 -39.667 -120.333 -51 -121c0 -4.66699 -10 -9 -30 -13l-8 -1c-36.667 4.66699 -55.667 18 -57 40c-1.33301 14 15 65.333 49 154h-3
c-70 -23.333 -123 -59 -159 -107c-16.667 -26.667 -24.334 -47.334 -23.001 -62.001c2.66699 -38.667 50.667 -71.667 144 -99c52.667 -24 80.334 -56.667 83.001 -98c4.66699 -62.667 -30 -136.334 -104 -221.001c-36 -32.667 -64 -53 -84 -61l1 -3
c66.667 -18 102 -53.667 106 -107c6 -86.667 -51.333 -180.334 -172 -281.001c-34.667 -18.667 -61.334 -28.667 -80.001 -30c-64 -4.66699 -110 15 -138 59l-4 19v2c-4 54 41 113 135 177c18 10.667 32.333 16.334 43 17.001l27 2c15.333 0.666992 26.666 -4 33.999 -14v-9
c-2 -6 -15.667 -17 -41 -33c-33.333 -46.667 -51.666 -85.334 -54.999 -116.001l6 -2c45.333 22 88 75.333 128 160c7.33301 20.667 10.666 39 9.99902 55c-1.33301 16.667 -44 37.334 -128 62.001c-75.333 34 -114.666 76 -117.999 126l-2 16
c-3.33301 48.667 43.667 107.667 141 177c54.667 29.333 96.334 45 125.001 47v3c-130 35.333 -197.667 89 -203 161c-4 61.333 51.667 128 167 200c47.333 22 89.333 34.333 126 37c18 1.33301 41.667 -0.666992 71 -6c14 39.333 33.667 60 59 62zM284.001 608.003
c1.33301 -18 3.66797 -26.999 7.00098 -26.999c66 42.667 115.667 102.667 149 180h-3c-34 -2 -78.333 -34.333 -133 -97c-14.667 -22.667 -21.334 -41.334 -20.001 -56.001z" />
    <glyph glyph-name="dieresis" unicode="&#xa8;" horiz-adv-x="538" 
d="M147 1594c26.667 0 45.667 -16.668 57 -50.001v-19c0 -29.333 -15.333 -49.333 -46 -60h-20c-28 0 -47.333 17.333 -58 52v21c0 28.667 18.667 47.334 56 56.001h11zM394 1594c26.667 0 45.667 -16.668 57 -50.001v-19c0 -29.333 -15.333 -49.333 -46 -60h-20
c-28 0 -47.333 17.333 -58 52v21c0 28.667 18.667 47.334 56 56.001h11z" />
    <glyph glyph-name="copyright" unicode="&#xa9;" horiz-adv-x="1059" 
d="M606 1100h9c183.333 0 305 -70.333 365 -211c22.667 -53.333 34 -118.333 34 -195c0 -210.667 -76.333 -397 -229 -559c-103.333 -90 -217.333 -135 -342 -135c-176 0 -297.667 76.667 -365 230c-20.667 60 -31 117.333 -31 172v44c0 170 65 333.333 195 490
c106.667 109.333 228 164 364 164zM188 412v-18.999c0 -153.333 53.333 -255 160 -305c22.667 -6 41.667 -9 57 -9h3c206 0 355.667 116.333 449 349c29.333 82 44 166.667 44 254c0 158 -48 264.667 -144 320c-25.333 11.333 -62 18.666 -110 21.999
c-161.333 0 -294.333 -110 -399 -330c-40 -97.333 -60 -191.333 -60 -282zM603 798.001l31 0.000976562c56.667 -4.66699 85 -21.334 85 -50.001v-6c0 -16 -14.667 -69.667 -44 -161c-14 -8 -29.667 -12 -47 -12c-50 10 -75 23.667 -75 41l18 75
c-81.333 -83.333 -122 -167 -122 -251v-16c0 -56.667 23 -85 69 -85c43.333 0 113.333 55.667 210 167c4 0 10.333 2 19 6c8.66699 -3.33301 13 -6.33301 13 -9v-13c-23.333 -57.333 -80 -117 -170 -179c-34 -18.667 -67.333 -28 -100 -28c-76 0 -130.333 37.667 -163 113
c-4.66699 20.667 -7 41.667 -7 63c0 84 45 176 135 276c56 46 105.333 69 148 69z" />
    <glyph glyph-name="ordfeminine" unicode="&#xaa;" horiz-adv-x="349" 
d="M207 1598c18.667 0 30.666 -6.33301 35.999 -19c-18 -42 -27 -79 -27 -111v-18h2l46 91c4.66699 3.33301 9.33398 5 14.001 5s9 -3 13 -9c-10.667 -43.333 -31.667 -82.333 -63 -117c-11.333 -5.33301 -18.333 -8 -21 -8h-6c-27.333 6 -41 18.667 -41 38
c-14.667 -18 -26 -27 -34 -27h-12c-30.667 5.33301 -46 21 -46 47c10.667 83.333 40.667 125 90 125c8 0 16.333 -2.66699 25 -8c5.33301 7.33301 13.333 11 24 11zM121.999 1458c13.333 14.667 29.333 42.334 48 83.001c0 3.33301 -2 10.333 -6 21
c-20 -20.667 -34 -51.334 -42 -92.001v-12z" />
    <glyph glyph-name="guillemotleft" unicode="&#xab;" horiz-adv-x="720" 
d="M360 892c16 -10.667 24.0029 -18.334 24.0029 -23.001c-1.33301 -10 -69.333 -124 -204 -342c105.333 -156 173.666 -254 204.999 -294c-2.66699 -30 -32.667 -44.333 -90 -43l-30 3c-134.667 177.333 -208.334 288 -221.001 332c83.333 152.667 129 228.334 137 227.001
c43.333 100.667 89.666 148.667 138.999 144zM573.003 883c29.333 -10 43.6689 -20.332 43.002 -30.999l-1 -5l-199 -295l-1 -11l214 -304l-1 -16c-18.667 -22.667 -43.334 -32.334 -74.001 -29.001l-40 4c-139.333 178.667 -219.333 295 -240 349
c79.333 125.333 134 207.333 164 246c27.333 67.333 70.666 98 129.999 92h5z" />
    <glyph glyph-name="logicalnot" unicode="&#xac;" horiz-adv-x="856" 
d="M521 697c172 0 258 -15.668 258 -47.001c-26.667 -183.333 -40 -287 -40 -311v-14c-10 -15.333 -24.667 -23 -44 -23h-20c-58 6.66699 -87 23.334 -87 50.001c0 60 12.333 148 37 264h-3c-168 -2 -327.333 -5.33301 -478 -10c-51.333 10.667 -77 28.667 -77 54
c0 20 51.333 30 154 30z" />
    <glyph glyph-name="registered" unicode="&#xae;" horiz-adv-x="1064" 
d="M611 1086l37 0.000976562c109.333 0 203.333 -36.333 282 -109c62 -74 93 -174 93 -300c0 -179.333 -62.333 -348.333 -187 -507c-109.333 -116.667 -230.333 -175 -363 -175h-37c-173.333 0 -291.333 84.333 -354 253c-12 37.333 -20.333 91.666 -25 162.999
c0 187.333 65.667 358.333 197 513c105.333 108 224.333 162 357 162zM201 414.001l0.000976562 -38c0 -107.333 32.333 -193.666 97 -258.999c39.333 -31.333 81 -47 125 -47c181.333 0 326.333 113.667 435 341c37.333 101.333 56 186.666 56 255.999v53
c0 126 -48 215.667 -144 269c-38.667 14.667 -79.334 22 -122.001 22c-144 0 -269 -99 -375 -297c-48 -109.333 -72 -209.333 -72 -300zM589.001 829.001l33.001 -0.000976562c60 0 106 -21.667 138 -65c10.667 -16 16 -34.333 16 -55v-16
c0 -55.333 -44.333 -114.666 -133 -177.999c-54.667 -30.667 -88 -46 -100 -46c48.667 -54.667 86.334 -87.667 113.001 -99c48 -10.667 72 -23 72 -37c-4.66699 -11.333 -12.334 -17 -23.001 -17h-16c-61.333 0 -130 41 -206 123v2h-2l-25 -136c-10 -4.66699 -18 -7 -24 -7
h-16c-29.333 6.66699 -44 14.334 -44 23.001c2 76 36 205.333 102 388h-2c-46.667 -46.667 -70 -101.334 -70 -164.001c2 -10 3 -20 3 -30c-4 -10.667 -15.667 -16 -35 -16c-29.333 0 -47 10.667 -53 32v39c0 84.667 46.333 157 139 217c53.333 28 97.666 42 132.999 42z
M499.002 732l12.001 0.000976562c35.333 -3.33301 53 -13.333 53 -30c-16.667 -40.667 -37.334 -102.334 -62.001 -185.001l4 -2c83.333 36 142 87.667 176 155c6 24 9 40 9 48c0 43.333 -20 65 -60 65c-43.333 0 -87.333 -17 -132 -51z" />
    <glyph glyph-name="macron" unicode="&#xaf;" horiz-adv-x="905" 
d="M249 1550h497c55.333 0 96.333 -13.333 123 -40v-16c0 -18.667 -61.333 -28 -184 -28h-458c-16 0 -36.667 -1.33301 -62 -4c-75.333 0 -120 18.667 -134 56v4c0 18.667 72.667 28 218 28z" />
    <glyph glyph-name="degree" unicode="&#xb0;" horiz-adv-x="287" 
d="M169 1576h9.00098c24 0 44.667 -8 62 -24c14 -16.667 21 -39 21 -67c0 -40 -14 -77.667 -42 -113c-24 -26 -50.667 -39 -80 -39h-9c-38 0 -64 18.667 -78 56c-3.33301 8.66699 -5.33301 21 -6 37c0 41.333 14.667 79.333 44 114c23.333 24 49.666 36 78.999 36z
M143.001 1433v-5.99902c0 -18 3 -32.667 9 -44c4 -5.33301 8.33301 -8 13 -8c18 0 32.333 19 43 57c4 17.333 6 31.666 6 42.999v9c0 21.333 -4.66699 36.333 -14 45c-4 2.66699 -8.33301 4 -13 4c-14 0 -26.333 -16.667 -37 -50c-4.66699 -18 -7 -34.667 -7 -50z" />
    <glyph glyph-name="plusminus" unicode="&#xb1;" horiz-adv-x="779" 
d="M370 1012h20.001c40.667 0 66 -13.333 76 -40c0 -26 -5.33301 -94 -16 -204h168c42 0 74 -14.667 96 -44v-20c0 -18.667 -40 -28 -120 -28h-152c-12 -162.667 -21.333 -244 -28 -244c-10 -5.33301 -20.667 -8 -32 -8h-24c-30.667 0 -53.334 13.333 -68.001 40l20 212h-28
c-38.667 0 -82.667 -1.33301 -132 -4c-61.333 14.667 -92 30.667 -92 48v16c0 21.333 64 32 192 32h68c8.66699 157.333 18 236 28 236c8.66699 5.33301 16.667 8 24 8zM229.001 372h318.001c35.333 0 61.666 -13.333 78.999 -40v-16c0 -18.667 -39.333 -28 -118 -28h-294
c-10 0 -23 -1.33301 -39 -4c-48 0 -76.667 18.667 -86 56v4c0 18.667 46.667 28 140 28z" />
    <glyph glyph-name="twosuperior" unicode="&#xb2;" horiz-adv-x="340" 
d="M191 1603h19c64.667 -7.33301 97 -31.666 97 -72.999v-12c0 -50 -51 -121.333 -153 -214c-23.333 -24 -37.333 -40 -42 -48h1c34 2.66699 58.667 4 74 4h2c46.667 0 73.667 -10 81 -30v-1c-3.33301 -10.667 -11.333 -16 -24 -16h-10c-6.66699 0 -18.667 2.66699 -36 8h-6
l-95 -8h-16c-31.333 0 -50 10.333 -56 31v12c0 19.333 35.333 60.666 106 123.999c64 65.333 96 117.333 96 156c0 11.333 -3.33301 19.333 -10 24h-4c-24 0 -45.667 -15.667 -65 -47c-4 -24.667 -9 -37 -15 -37c-8.66699 -2 -15.667 -3 -21 -3
c-24.667 0 -41 8.66699 -49 26v2c0 42 29 73.667 87 95c15.333 4.66699 28.333 7 39 7z" />
    <glyph glyph-name="threesuperior" unicode="&#xb3;" horiz-adv-x="344" 
d="M203 1593l14.001 0.000976562c32.667 0 61 -16.333 85 -49c6 -14 9 -24.667 9 -32v-15c0 -34.667 -19.333 -64.334 -58 -89.001c32 -24.667 48 -49.667 48 -75v-10c0 -31.333 -23 -61.666 -69 -90.999c-26.667 -15.333 -52 -23 -76 -23h-12c-46 0 -77 23.333 -93 70
c-3.33301 10 -5 21.333 -5 34v1c0 10 9.66699 15 29 15s34.666 -5.66699 45.999 -17c2 -3.33301 4 -15.666 6 -36.999c6.66699 -13.333 13.667 -20 21 -20h2c22.667 0 44.667 14.333 66 43c5.33301 6 9 17.333 11 34c0 27.333 -20 50 -60 68
c-4.66699 5.33301 -7 10.666 -7 15.999c0 6.66699 11 15 33 25c32 22 48 46 48 72c-2.66699 23.333 -8.33398 35.666 -17.001 36.999c-13.333 -4 -27.333 -19.667 -42 -47c-8 -3.33301 -14.667 -5 -20 -5h-8c-30.667 4 -46 13 -46 27c22.667 45.333 54.334 68 95.001 68z
" />
    <glyph glyph-name="acute" unicode="&#xb4;" horiz-adv-x="359" 
d="M246 1577l9.99609 -3.00195c28.667 -11.333 50.334 -30.666 65.001 -57.999l1 -8l-1 -5c-8.66699 -21.333 -48 -52.666 -118 -93.999c-56.667 -26.667 -91 -37.667 -103 -33c-9.33301 1.33301 -17.666 3.33301 -24.999 6l-12 5c-15.333 5.33301 -23.666 14 -24.999 26v4
c0.666992 5.33301 18.334 20.333 53.001 45c45.333 38.667 80 72.667 104 102c10 15.333 19.333 21 28 17c5.33301 1.33301 13 0 23 -4z" />
    <glyph glyph-name="mu" unicode="&#xb5;" horiz-adv-x="566" 
d="M171 905l14 -0.000976562c29.333 0 48.666 -11.333 57.999 -34c-21.333 -207.333 -32 -315.666 -32 -324.999c5.33301 -5.33301 18.333 -23 39 -53c16.667 -18 33.334 -27 50.001 -27c34.667 0 67.334 77.667 98.001 233c5.33301 30.667 12.666 46 21.999 46
c0 3.33301 12 5.66602 36 6.99902c36.667 -2.66699 55 -15 55 -37c1.33301 0 2 -2 2 -6c-10.667 -38 -20.334 -106.667 -29.001 -206c-9.33301 -106.667 -14 -177 -14 -211c0 -11.333 -10.333 -18.666 -31 -21.999h-16c-31.333 0 -51.666 11.333 -60.999 34l5 107
c-1.33301 0 -2 0.666992 -2 2c-18.667 -10.667 -38.667 -16 -60 -16c-36 0 -71.333 12.667 -106 38c-14 -147.333 -22.667 -227 -26 -239c-9.33301 -6.66699 -19.666 -10 -30.999 -10h-12c-28.667 0 -48.667 10.333 -60 31v2c10 132 32.333 355.667 67 671
c7.33301 10 18.666 15 33.999 15z" />
    <glyph glyph-name="paragraph" unicode="&#xb6;" horiz-adv-x="693" 
d="M373 888l37.002 -0.000976562c128 -7.33301 197 -22 207 -44c2 0 3 -2.66699 3 -8l-62 -622c-9.33301 -10 -22 -15 -38 -15c-24.667 0 -45 8 -61 24c-3.33301 4 -5 7.33301 -5 10c9.33301 103.333 29 300.333 59 591c-22.667 4.66699 -43.334 7 -62.001 7v-2
c-21.333 -196.667 -42 -401 -62 -613c-8.66699 -11.333 -21.667 -17 -39 -17c-44 6 -66 17.333 -66 34c6.66699 84.667 15.667 176.334 27 275.001h-3c-58.667 0 -118 18 -178 54c-38 29.333 -57 64 -57 104c0 70.667 38.667 131 116 181
c57.333 27.333 118.666 41 183.999 41z" />
    <glyph glyph-name="periodcentered" unicode="&#xb7;" horiz-adv-x="213" 
d="M106 582c26.667 0 45.667 -16.668 57 -50.001v-19c0 -29.333 -15.333 -49.333 -46 -60h-20c-28 0 -47.333 17.333 -58 52v21c0 28.667 18.667 47.334 56 56.001h11z" />
    <glyph glyph-name="periodcentered" unicode="&#x2219;" horiz-adv-x="213" 
d="M106 582c26.667 0 45.667 -16.668 57 -50.001v-19c0 -29.333 -15.333 -49.333 -46 -60h-20c-28 0 -47.333 17.333 -58 52v21c0 28.667 18.667 47.334 56 56.001h11z" />
    <glyph glyph-name="cedilla" unicode="&#xb8;" horiz-adv-x="364" 
d="M197 264c34 -5.33301 51 -15.334 51 -30.001c-5.33301 -20 -8 -30.333 -8 -31c0 -5.33301 17 -15 51 -29c17.333 -12.667 26 -27.667 26 -45v-1c0 -51.333 -38 -85.666 -114 -102.999c-8 -2 -18 -3 -30 -3h-23c-52 0 -88.667 21 -110 63
c-3.33301 9.33301 -5 18.333 -5 27v3c0 8 7.33301 18.667 22 32h4c1.33301 -1.33301 5 -10.333 11 -27c20 -30 47.333 -45 82 -45c31.333 0 54.333 15.333 69 46l1 8c0 12.667 -17.667 24 -53 34c-16.667 10 -25 22.333 -25 37c3.33301 42.667 14 64 32 64h19z" />
    <glyph glyph-name="onesuperior" unicode="&#xb9;" horiz-adv-x="290" 
d="M203 1599c22.667 0 36.332 -11.333 40.999 -34v-6c0 -16.667 -14.667 -65.667 -44 -147c-35.333 -106.667 -53 -173 -53 -199c-5.33301 -6 -11.333 -9 -18 -9h-11c-20.667 0 -33.667 9 -39 27c1.33301 34.667 22 117 62 247h-1c-2 -0.666992 -3.66699 -1 -5 -1h-14
c-28 4 -42 12 -42 24v5c44.667 62 81.334 93 110.001 93h14z" />
    <glyph glyph-name="ordmasculine" unicode="&#xba;" horiz-adv-x="367" 
d="M211 1589l18.001 0.000976562c32.667 0 56 -16.667 70 -50c5.33301 -12.667 8 -28.334 8 -47.001v-22c0 -58 -15.333 -119.667 -46 -185c-30.667 -54 -64.667 -81 -102 -81h-12c-42 0 -70 22.667 -84 68c-2.66699 11.333 -4 23.333 -4 36v19
c0 65.333 19.333 131.333 58 198c29.333 42.667 60.666 64 93.999 64zM137.001 1304v-5.00098c2 -34.667 6.33301 -52 13 -52c10 0 24.333 17.333 43 52c29.333 72 44 138.333 44 199v17c-0.666992 21.333 -3 32 -7 32c-16 -3.33301 -36.333 -32 -61 -86
c-21.333 -57.333 -32 -109.666 -32 -156.999z" />
    <glyph glyph-name="guillemotright" unicode="&#xbb;" horiz-adv-x="724" 
d="M395 892l41 4c50 4.66699 97 -43.666 141 -144.999c8 0.666992 54 -76 138 -230c-12.667 -44.667 -87.334 -156.334 -224.001 -335.001l-30 -3c-57.333 -2 -87.666 12.667 -90.999 44c32 40 101 138.667 207 296c-136 220.667 -204.333 335.667 -205 345
c0 5.33301 7.66699 13.333 23 24zM181 882l5.00098 1c60 6 103.667 -25 131 -93c30.667 -39.333 85.667 -122.333 165 -249c-20.667 -54 -101.334 -171.667 -242.001 -353l-41 -4c-30 -2.66699 -54.667 7.33301 -74 30l-1 16l216 308l-1 10l-201 298v6
c-1.33301 10 13 20 43 30z" />
    <glyph glyph-name="onequarter" unicode="&#xbc;" horiz-adv-x="751" 
d="M617 1303l22.001 1.00195c36.667 2 64 -9.33301 82 -34l1 -22c-68.667 -98 -147.334 -247.333 -236.001 -448c-131.333 -300 -241.666 -567 -330.999 -801l-15 -14l-42 -2c-13.333 -0.666992 -22.333 4.66602 -27 15.999l-1 13c-3.33301 84.667 102 384.667 316 900
c109.333 249.333 178.666 377.666 207.999 384.999zM228.001 1296c28.667 0 46.335 -14.333 53.002 -43v-9c0 -20.667 -18.667 -82.667 -56 -186c-45.333 -136.667 -68 -221.667 -68 -255c-7.33301 -7.33301 -15 -11 -23 -11h-14c-26.667 0 -43.334 11.333 -50.001 34
c1.33301 44 27.666 149 78.999 315h-2c-2 -0.666992 -4 -1 -6 -1h-18c-35.333 5.33301 -53 15.333 -53 30v7c57.333 79.333 104 119 140 119h18zM524.002 499.002l18 -0.00195312c36 -6 54 -17 54 -33c0 -23.333 -31.667 -97.666 -95 -222.999
c-0.666992 0 -3.33398 -4.66699 -8.00098 -14c30 4 54 6 72 6c28.667 152 46.334 228 53.001 228c6 5.33301 15 8 27 8h9c30 0 49.667 -10.667 59 -32c-15.333 -50 -33.333 -120 -54 -210c36 -14 54 -27 54 -39v-7c-7.33301 -10.667 -20 -16 -38 -16
c-10 0.666992 -19 2.33398 -27 5.00098c-10.667 -64 -16 -115.667 -16 -155c-7.33301 -8.66699 -15.666 -13 -24.999 -13h-13c-26 0 -42.667 11 -50 33c0 30.667 4.33301 77.667 13 141c-30.667 -3.33301 -54 -5 -70 -5h-18c-46.667 3.33301 -74.334 16 -83.001 38
c-1.33301 1.33301 -2 4 -2 8v8l90 187l26 75c8 6.66699 16 10 24 10z" />
    <glyph glyph-name="onehalf" unicode="&#xbd;" horiz-adv-x="765" 
d="M597 1303l22.001 1.00195c36.667 2 64 -9.33301 82 -34l1 -22c-68.667 -98 -147.334 -247.333 -236.001 -448c-131.333 -300 -241.666 -567 -330.999 -801l-15 -14l-42 -2c-13.333 -0.666992 -22.333 4.66602 -27 15.999l-1 13c-3.33301 84.667 102 384.667 316 900
c109.333 249.333 178.666 377.666 207.999 384.999zM565.001 521.002h24c84 -10 126 -41.333 126 -94v-15c0 -65.333 -66.333 -157.333 -199 -276c-30 -31.333 -48 -52 -54 -62h2c44 3.33301 76 5 96 5h2c60 0 94.667 -13 104 -39v-2c-4 -13.333 -14 -20 -30 -20h-14
c-8 0 -23 3.33301 -45 10h-9l-122 -10h-21c-40 0 -64 13.333 -72 40v16c0 24.667 45.333 77.667 136 159c83.333 84 125 151.333 125 202c0 14.667 -4.66699 24.667 -14 30h-5c-30.667 0 -58.667 -20 -84 -60c-4.66699 -31.333 -10.667 -47 -18 -47
c-12 -3.33301 -21 -5 -27 -5c-32.667 0 -54 11 -64 33v4c0 53.333 37.333 94.333 112 123c20 5.33301 37 8 51 8zM228.001 1296c28.667 0 46.335 -14.333 53.002 -43v-9c0 -20.667 -18.667 -82.667 -56 -186c-45.333 -136.667 -68 -221.667 -68 -255
c-7.33301 -7.33301 -15 -11 -23 -11h-14c-26.667 0 -43.334 11.333 -50.001 34c1.33301 44 27.666 149 78.999 315h-2c-2 -0.666992 -4 -1 -6 -1h-18c-35.333 5.33301 -53 15.333 -53 30v7c57.333 79.333 104 119 140 119h18z" />
    <glyph glyph-name="threequarters" unicode="&#xbe;" horiz-adv-x="810" 
d="M657 1303l22.001 1.00195c36.667 2 64 -9.33301 82 -34l1 -22c-68.667 -98 -147.334 -247.333 -236.001 -448c-131.333 -300 -241.666 -567 -330.999 -801l-15 -14l-42 -2c-13.333 -0.666992 -22.333 4.66602 -27 15.999l-1 13c-3.33301 84.667 102 384.667 316 900
c109.333 249.333 178.666 377.666 207.999 384.999zM230.001 1290l18 -0.000976562c42 0 78.667 -21.333 110 -64c8 -18 12 -31.667 12 -41v-20c0 -44.667 -25.333 -83 -76 -115c42 -32 63 -64.333 63 -97v-13c0 -40 -29.667 -79.333 -89 -118
c-34.667 -20 -67.667 -30 -99 -30h-16c-59.333 0 -99.333 30 -120 90c-4.66699 13.333 -7 28.333 -7 45v1c0 13.333 12.667 20 38 20c24.667 0 44.334 -7.66699 59.001 -23c2 -4 4.66699 -20 8 -48c8.66699 -17.333 17.667 -26 27 -26h3c29.333 0 57.666 18.667 84.999 56
c6.66699 8 11.667 22.667 15 44c0 35.333 -26.333 65 -79 89c-5.33301 6.66699 -8 13.334 -8 20.001c0 9.33301 14.333 20.333 43 33c41.333 28 62 59 62 93c-4 30.667 -11.667 46.667 -23 48c-16.667 -4.66699 -34.667 -25 -54 -61c-10 -4 -18.667 -6 -26 -6h-10
c-39.333 4.66699 -59 16 -59 34c29.333 59.333 70.333 89 123 89zM524.001 499.001l18 -0.00195312c36 -6 54 -17 54 -33c0 -23.333 -31.667 -97.666 -95 -222.999c-0.666992 0 -3.33398 -4.66699 -8.00098 -14c30 4 54 6 72 6c28.667 152 46.334 228 53.001 228
c6 5.33301 15 8 27 8h9c30 0 49.667 -10.667 59 -32c-15.333 -50 -33.333 -120 -54 -210c36 -14 54 -27 54 -39v-7c-7.33301 -10.667 -20 -16 -38 -16c-10 0.666992 -19 2.33398 -27 5.00098c-10.667 -64 -16 -115.667 -16 -155c-7.33301 -8.66699 -15.666 -13 -24.999 -13
h-13c-26 0 -42.667 11 -50 33c0 30.667 4.33301 77.667 13 141c-30.667 -3.33301 -54 -5 -70 -5h-18c-46.667 3.33301 -74.334 16 -83.001 38c-1.33301 1.33301 -2 4 -2 8v8l90 187l26 75c8 6.66699 16 10 24 10z" />
    <glyph glyph-name="questiondown" unicode="&#xbf;" horiz-adv-x="774" 
d="M384 90l-31.0029 0.000976562c-106 0 -192.333 42.667 -259 128c-22.667 37.333 -34 72.666 -34 105.999v28c0 78.667 77 217 231 415c99.333 139.333 149 243 149 311c8.66699 16.667 19.334 25 32.001 25h15c30.667 0 50.334 -15.333 59.001 -46
c0 -78 -53 -203 -159 -375c-116 -176.667 -174 -299 -174 -367c0 -71.333 34.333 -118.333 103 -141c6.66699 0 11.667 -1 15 -3c69.333 0 135 46.667 197 140c20.667 42 38.334 89 53.001 141c12 10 29.667 15 53 15c52 0 84 -16.667 96 -50v-3
c-28 -112.667 -75.667 -195.667 -143 -249c-65.333 -50 -133 -75 -203 -75zM524.997 1145c-32 0 -54.333 20.334 -67 61.001v21c0 36 18 60.333 54 73h24c34 0 57.333 -21 70 -63v-24c0 -34.667 -22.333 -57.334 -67 -68.001h-14z" />
    <glyph glyph-name="Agrave" unicode="&#xc0;" horiz-adv-x="1509" 
d="M1417 1713c43.333 0 81.333 -32.002 114 -96.002v-30c0 -62.667 -54.333 -322.667 -163 -780c-28.667 -137.333 -43 -211.333 -43 -222c4 -6.66699 6 -12.667 6 -18v-6c0 -10.667 -6 -20 -18 -28c-49.333 -260 -74 -452 -74 -576c0 -49.333 5 -98.666 15 -147.999
c0 -16 -12.333 -25.333 -37 -28h-9c-92.667 14.667 -139 61 -139 139c-3.33301 0 -5.33301 27.667 -6 83v37c0 125.333 21.667 304 65 536h-3c-121.333 0 -292 -38 -512 -114c-76 -212 -114 -411.333 -114 -598c0 -99.333 15.333 -192.666 46 -279.999v-3
c-7.33301 -16.667 -17.333 -25 -30 -25h-16c-47.333 0 -89.333 25.667 -126 77c-32.667 76 -49 177.667 -49 305c0 138 19.333 280.667 58 428h-3c-76.667 -32.667 -150.667 -78.667 -222 -138c-8 -2 -15 -3 -21 -3c-48 0 -92.333 26.667 -133 80l-3 15v16
c39.333 44.667 113.333 94 222 148c89.333 40.667 165.333 72.334 228 95.001c22 68 62 158.333 120 271c60.667 115.333 144 238.666 250 369.999c148.667 168 262.667 279 342 333c135.333 106.667 219.333 160 252 160h3zM693 655.998h2.99902
c119.333 28.667 229.333 43 330 43c36.667 0 77.667 -5 123 -15c24.667 134 80.334 383.667 167.001 749h-3c-40 -22.667 -129.333 -106 -268 -250c-112 -129.333 -194.333 -240.333 -247 -333c-28.667 -47.333 -63.667 -112 -105 -194zM1443 1986c10 0 17.668 -1 23.001 -3
c9.33301 0 17.333 -9 24 -27c17.333 -36.667 43.666 -81.334 78.999 -134.001c28.667 -35.333 43 -55.666 43 -60.999l-1 -4c-3.33301 -11.333 -13.333 -17.333 -30 -18l-12 -1c-8 0 -17 1 -27 3c-12.667 -0.666992 -43.667 21.333 -93 66
c-60 63.333 -92 106.666 -96 129.999l1 6l2 7c20 22.667 45.333 34.334 76 35.001z" />
    <glyph glyph-name="Aacute" unicode="&#xc1;" horiz-adv-x="1509" 
d="M1417 1713c43.333 0 81.333 -32.002 114 -96.002v-30c0 -62.667 -54.333 -322.667 -163 -780c-28.667 -137.333 -43 -211.333 -43 -222c4 -6.66699 6 -12.667 6 -18v-6c0 -10.667 -6 -20 -18 -28c-49.333 -260 -74 -452 -74 -576c0 -49.333 5 -98.666 15 -147.999
c0 -16 -12.333 -25.333 -37 -28h-9c-92.667 14.667 -139 61 -139 139c-3.33301 0 -5.33301 27.667 -6 83v37c0 125.333 21.667 304 65 536h-3c-121.333 0 -292 -38 -512 -114c-76 -212 -114 -411.333 -114 -598c0 -99.333 15.333 -192.666 46 -279.999v-3
c-7.33301 -16.667 -17.333 -25 -30 -25h-16c-47.333 0 -89.333 25.667 -126 77c-32.667 76 -49 177.667 -49 305c0 138 19.333 280.667 58 428h-3c-76.667 -32.667 -150.667 -78.667 -222 -138c-8 -2 -15 -3 -21 -3c-48 0 -92.333 26.667 -133 80l-3 15v16
c39.333 44.667 113.333 94 222 148c89.333 40.667 165.333 72.334 228 95.001c22 68 62 158.333 120 271c60.667 115.333 144 238.666 250 369.999c148.667 168 262.667 279 342 333c135.333 106.667 219.333 160 252 160h3zM693 655.998h2.99902
c119.333 28.667 229.333 43 330 43c36.667 0 77.667 -5 123 -15c24.667 134 80.334 383.667 167.001 749h-3c-40 -22.667 -129.333 -106 -268 -250c-112 -129.333 -194.333 -240.333 -247 -333c-28.667 -47.333 -63.667 -112 -105 -194zM1521 1952l9.99805 -4.99805
c27.333 -12.667 46.333 -33 57 -61l-1 -8l-1 -5c-12.667 -20.667 -58.667 -49 -138 -85c-63.333 -22.667 -100.666 -31.334 -111.999 -26.001c-9.33301 2 -17.666 4.66699 -24.999 8l-12 6c-14.667 6.66699 -21.667 16 -21 28l1 4c2 4.66699 23 18 63 40
c52.667 35.333 94 66.666 124 93.999c13.333 14 24 19 32 15c6 0.666992 13.667 -1 23 -5z" />
    <glyph glyph-name="Acircumflex" unicode="&#xc2;" horiz-adv-x="1509" 
d="M1417 1713c43.333 0 81.333 -32.002 114 -96.002v-30c0 -62.667 -54.333 -322.667 -163 -780c-28.667 -137.333 -43 -211.333 -43 -222c4 -6.66699 6 -12.667 6 -18v-6c0 -10.667 -6 -20 -18 -28c-49.333 -260 -74 -452 -74 -576c0 -49.333 5 -98.666 15 -147.999
c0 -16 -12.333 -25.333 -37 -28h-9c-92.667 14.667 -139 61 -139 139c-3.33301 0 -5.33301 27.667 -6 83v37c0 125.333 21.667 304 65 536h-3c-121.333 0 -292 -38 -512 -114c-76 -212 -114 -411.333 -114 -598c0 -99.333 15.333 -192.666 46 -279.999v-3
c-7.33301 -16.667 -17.333 -25 -30 -25h-16c-47.333 0 -89.333 25.667 -126 77c-32.667 76 -49 177.667 -49 305c0 138 19.333 280.667 58 428h-3c-76.667 -32.667 -150.667 -78.667 -222 -138c-8 -2 -15 -3 -21 -3c-48 0 -92.333 26.667 -133 80l-3 15v16
c39.333 44.667 113.333 94 222 148c89.333 40.667 165.333 72.334 228 95.001c22 68 62 158.333 120 271c60.667 115.333 144 238.666 250 369.999c148.667 168 262.667 279 342 333c135.333 106.667 219.333 160 252 160h3zM693 655.998h2.99902
c119.333 28.667 229.333 43 330 43c36.667 0 77.667 -5 123 -15c24.667 134 80.334 383.667 167.001 749h-3c-40 -22.667 -129.333 -106 -268 -250c-112 -129.333 -194.333 -240.333 -247 -333c-28.667 -47.333 -63.667 -112 -105 -194zM1449 1990l14 -0.999023
c40 -2.66699 64.667 -23.334 74 -62.001c66 -122 99 -183.667 99 -185l-1 -10c-8 -11.333 -21 -16.333 -39 -15l-14 1c-44 3.33301 -72 32.333 -84 87l-34 94h-2c-7.33301 -6.66699 -48.333 -55.667 -123 -147c-10.667 -9.33301 -24.334 -13.333 -41.001 -12h-10
c-44.667 10 -66.334 24.333 -65.001 43v8c74.667 79.333 141.334 144.333 200.001 195c6.66699 4 15.334 5.33301 26.001 4z" />
    <glyph glyph-name="Atilde" unicode="&#xc3;" horiz-adv-x="1509" 
d="M1417 1713c43.333 0 81.333 -32.002 114 -96.002v-30c0 -62.667 -54.333 -322.667 -163 -780c-28.667 -137.333 -43 -211.333 -43 -222c4 -6.66699 6 -12.667 6 -18v-6c0 -10.667 -6 -20 -18 -28c-49.333 -260 -74 -452 -74 -576c0 -49.333 5 -98.666 15 -147.999
c0 -16 -12.333 -25.333 -37 -28h-9c-92.667 14.667 -139 61 -139 139c-3.33301 0 -5.33301 27.667 -6 83v37c0 125.333 21.667 304 65 536h-3c-121.333 0 -292 -38 -512 -114c-76 -212 -114 -411.333 -114 -598c0 -99.333 15.333 -192.666 46 -279.999v-3
c-7.33301 -16.667 -17.333 -25 -30 -25h-16c-47.333 0 -89.333 25.667 -126 77c-32.667 76 -49 177.667 -49 305c0 138 19.333 280.667 58 428h-3c-76.667 -32.667 -150.667 -78.667 -222 -138c-8 -2 -15 -3 -21 -3c-48 0 -92.333 26.667 -133 80l-3 15v16
c39.333 44.667 113.333 94 222 148c89.333 40.667 165.333 72.334 228 95.001c22 68 62 158.333 120 271c60.667 115.333 144 238.666 250 369.999c148.667 168 262.667 279 342 333c135.333 106.667 219.333 160 252 160h3zM693 655.998h2.99902
c119.333 28.667 229.333 43 330 43c36.667 0 77.667 -5 123 -15c24.667 134 80.334 383.667 167.001 749h-3c-40 -22.667 -129.333 -106 -268 -250c-112 -129.333 -194.333 -240.333 -247 -333c-28.667 -47.333 -63.667 -112 -105 -194zM1342 1957l9.99805 0.000976562
c38.667 -2.66699 86.334 -28 143.001 -76l13 -1c14.667 -0.666992 30 16.333 46 51c12 7.33301 26.667 10.333 44 9c28.667 -7.33301 42.334 -20 41.001 -38c-30.667 -72.667 -72 -107.334 -124 -104.001l-18 1c-36.667 2.66699 -75 24 -115 64
c-9.33301 0.666992 -27 -18.666 -53 -57.999c-12 -6 -27.333 -8.33301 -46 -7c-52 11.333 -77.333 27.666 -76 48.999c1.33301 22 23 52 65 90c22.667 15.333 46 22 70 20z" />
    <glyph glyph-name="Adieresis" unicode="&#xc4;" horiz-adv-x="1509" 
d="M1417 1713c43.333 0 81.333 -32.002 114 -96.002v-30c0 -62.667 -54.333 -322.667 -163 -780c-28.667 -137.333 -43 -211.333 -43 -222c4 -6.66699 6 -12.667 6 -18v-6c0 -10.667 -6 -20 -18 -28c-49.333 -260 -74 -452 -74 -576c0 -49.333 5 -98.666 15 -147.999
c0 -16 -12.333 -25.333 -37 -28h-9c-92.667 14.667 -139 61 -139 139c-3.33301 0 -5.33301 27.667 -6 83v37c0 125.333 21.667 304 65 536h-3c-121.333 0 -292 -38 -512 -114c-76 -212 -114 -411.333 -114 -598c0 -99.333 15.333 -192.666 46 -279.999v-3
c-7.33301 -16.667 -17.333 -25 -30 -25h-16c-47.333 0 -89.333 25.667 -126 77c-32.667 76 -49 177.667 -49 305c0 138 19.333 280.667 58 428h-3c-76.667 -32.667 -150.667 -78.667 -222 -138c-8 -2 -15 -3 -21 -3c-48 0 -92.333 26.667 -133 80l-3 15v16
c39.333 44.667 113.333 94 222 148c89.333 40.667 165.333 72.334 228 95.001c22 68 62 158.333 120 271c60.667 115.333 144 238.666 250 369.999c148.667 168 262.667 279 342 333c135.333 106.667 219.333 160 252 160h3zM693 655.998h2.99902
c119.333 28.667 229.333 43 330 43c36.667 0 77.667 -5 123 -15c24.667 134 80.334 383.667 167.001 749h-3c-40 -22.667 -129.333 -106 -268 -250c-112 -129.333 -194.333 -240.333 -247 -333c-28.667 -47.333 -63.667 -112 -105 -194zM1316 1955
c35.333 0 60 -21.666 74 -64.999v-24c0 -38.667 -19.667 -65 -59 -79h-26c-36.667 0 -62 22.667 -76 68v27c0 37.333 24.333 61.666 73 72.999h14zM1597 1955c34.667 0 59.332 -21.666 73.999 -64.999v-24c0 -38.667 -19.667 -65 -59 -79h-26
c-37.333 0 -62.666 22.667 -75.999 68v27c0 37.333 24.333 61.666 73 72.999h14z" />
    <glyph glyph-name="Aring" unicode="&#xc5;" horiz-adv-x="1509" 
d="M1417 1713c43.333 0 81.333 -32.002 114 -96.002v-30c0 -62.667 -54.333 -322.667 -163 -780c-28.667 -137.333 -43 -211.333 -43 -222c4 -6.66699 6 -12.667 6 -18v-6c0 -10.667 -6 -20 -18 -28c-49.333 -260 -74 -452 -74 -576c0 -49.333 5 -98.666 15 -147.999
c0 -16 -12.333 -25.333 -37 -28h-9c-92.667 14.667 -139 61 -139 139c-3.33301 0 -5.33301 27.667 -6 83v37c0 125.333 21.667 304 65 536h-3c-121.333 0 -292 -38 -512 -114c-76 -212 -114 -411.333 -114 -598c0 -99.333 15.333 -192.666 46 -279.999v-3
c-7.33301 -16.667 -17.333 -25 -30 -25h-16c-47.333 0 -89.333 25.667 -126 77c-32.667 76 -49 177.667 -49 305c0 138 19.333 280.667 58 428h-3c-76.667 -32.667 -150.667 -78.667 -222 -138c-8 -2 -15 -3 -21 -3c-48 0 -92.333 26.667 -133 80l-3 15v16
c39.333 44.667 113.333 94 222 148c89.333 40.667 165.333 72.334 228 95.001c22 68 62 158.333 120 271c60.667 115.333 144 238.666 250 369.999c148.667 168 262.667 279 342 333c135.333 106.667 219.333 160 252 160h3zM693 655.998h2.99902
c119.333 28.667 229.333 43 330 43c36.667 0 77.667 -5 123 -15c24.667 134 80.334 383.667 167.001 749h-3c-40 -22.667 -129.333 -106 -268 -250c-112 -129.333 -194.333 -240.333 -247 -333c-28.667 -47.333 -63.667 -112 -105 -194zM1526 2059l9.99902 0.000976562
c29.333 0 54.333 -9.66699 75 -29c16.667 -19.333 25 -46 25 -80c0 -47.333 -16.667 -92 -50 -134c-29.333 -31.333 -61.333 -47 -96 -47h-10c-46 0 -77.333 22.333 -94 67c-3.33301 10 -5.66602 24.667 -6.99902 44c0 49.333 17.333 94.666 52 135.999
c28 28.667 59.667 43 95 43zM1494 1888l0.00195312 -7c0 -22 4 -39.333 12 -52c4.66699 -6.66699 9.66699 -10 15 -10c21.333 0 38.666 23 51.999 69c4 20 6 37 6 51v10c0 25.333 -5.66699 43.333 -17 54c-4.66699 3.33301 -9.33398 5 -14.001 5
c-17.333 0 -32.333 -20 -45 -60c-6 -22 -9 -42 -9 -60z" />
    <glyph glyph-name="AE" unicode="&#xc6;" horiz-adv-x="2645" 
d="M1417 1713c43.333 0 81.333 -32.002 114 -96.002v-30c0 -62.667 -54.333 -322.667 -163 -780c-28.667 -137.333 -43 -211.333 -43 -222c4 -6.66699 6 -12.667 6 -18v-6c0 -10.667 -6 -20 -18 -28c-49.333 -260 -74 -452 -74 -576c0 -49.333 5 -98.666 15 -147.999
c0 -16 -12.333 -25.333 -37 -28h-9c-92.667 14.667 -139 61 -139 139c-3.33301 0 -5.33301 27.667 -6 83v37c0 125.333 21.667 304 65 536h-3c-121.333 0 -292 -38 -512 -114c-76 -212 -114 -411.333 -114 -598c0 -99.333 15.333 -192.666 46 -279.999v-3
c-7.33301 -16.667 -17.333 -25 -30 -25h-16c-47.333 0 -89.333 25.667 -126 77c-32.667 76 -49 177.667 -49 305c0 138 19.333 280.667 58 428h-3c-76.667 -32.667 -150.667 -78.667 -222 -138c-8 -2 -15 -3 -21 -3c-48 0 -92.333 26.667 -133 80l-3 15v16
c39.333 44.667 113.333 94 222 148c89.333 40.667 165.333 72.334 228 95.001c22 68 62 158.333 120 271c60.667 115.333 144 238.666 250 369.999c148.667 168 262.667 279 342 333c135.333 106.667 219.333 160 252 160h3zM693 655.998h2.99902
c119.333 28.667 229.333 43 330 43c36.667 0 77.667 -5 123 -15c24.667 134 80.334 383.667 167.001 749h-3c-40 -22.667 -129.333 -106 -268 -250c-112 -129.333 -194.333 -240.333 -247 -333c-28.667 -47.333 -63.667 -112 -105 -194zM2289 1703l26.999 0.000976562
c137.333 0 206 -37.667 206 -113c0 -22.667 -19.667 -67.334 -59 -134.001c-109.333 -190.667 -164 -357 -164 -499v-20c0 -13.333 -8 -23 -24 -29c-4.66699 -1.33301 -12.334 -2 -23 -2h-3c-41.333 0 -85.666 23 -133 69c-12 17.333 -18 32 -18 44v30
c0 134.667 51.333 297.334 154 488.001h-2c-167.333 -45.333 -317.333 -123.666 -450 -234.999c-55.333 -51.333 -91.666 -91 -108.999 -119c-54 -83.333 -81 -161.333 -81 -234c0 -63.333 26.667 -116.666 80 -159.999c24.667 -18 55.667 -33.333 93 -46
c25.333 -6.66699 56.333 -13.334 93 -20.001c30 -16 45 -43 45 -81c0 -26 -9.66699 -41.333 -29 -46c-87.333 -15.333 -183.666 -62 -288.999 -140c-28.667 -22 -66.334 -57 -113.001 -105c-68.667 -77.333 -115.667 -143 -141 -197c-52 -96.667 -78 -185 -78 -265v-18
c0 -70.667 24.667 -126.334 74 -167.001c15.333 -13.333 43.333 -26.333 84 -39c40.667 -10.667 77.334 -16 110.001 -16h5c3.33301 0 6 -0.333008 8 -1c192.667 0 396.667 130.667 612 392c81.333 104 156 213.667 224 329c42.667 74.667 91 169.667 145 285
c8 8.66699 19 13 33 13c28 0 52.667 -14 74 -42l1 -10v-4c0 -14.667 -45.333 -106.667 -136 -276c-62 -106.667 -137.333 -218.334 -226 -335.001c-49.333 -62.667 -108.666 -128 -178 -196c-90.667 -84.667 -169 -145 -235 -181c-112 -62 -213 -93 -303 -93h-30
c-112.667 0 -222.334 45.333 -329.001 136c-50.667 50.667 -81.334 91 -92.001 121c-28 55.333 -42 109.666 -42 162.999v26c0 139.333 67 293 201 461c62 66.667 110.333 113.667 145 141c68.667 50.667 126.334 86.667 173.001 108c6.66699 3.33301 11 5 13 5v3
c-70.667 43.333 -121.667 109 -153 197c-9.33301 35.333 -14 67.333 -14 96c0 120 59 249 177 387c62.667 66.667 111 111.334 145 134.001c56.667 41.333 106.667 73 150 95c134 66.667 261.333 100 382 100z" />
    <glyph glyph-name="Ccedilla" unicode="&#xc7;" horiz-adv-x="1440" 
d="M1021 1695l15.001 -0.000976562c44 0 91.333 -18 142 -54c49.333 -40 74 -100.667 74 -182c0 -119.333 -54 -322.666 -162 -609.999l-119 -285c-8 -12.667 -19.333 -19 -34 -19h-12c-34 0 -71.667 17.333 -113 52c-21.333 22 -32 39.667 -32 53v8
c0 4 20.333 53.333 61 148c67.333 163.333 119 304.666 155 423.999c40 136 60 235.667 60 299v5l1 8c-118 -33.333 -240.333 -126.333 -367 -279c-75.333 -94 -139 -186.667 -191 -278c-56.667 -100.667 -106.667 -202.667 -150 -306c-48 -118 -84.333 -227.333 -109 -328
c-30.667 -128 -46 -237.333 -46 -328v-30c0 -132 29.333 -231.333 88 -298c32 -32 74 -48 126 -48c142 0 324 117 546 351c85.333 94 152 173.667 200 239c135.333 182 226.666 330 273.999 444c5.33301 8.66699 13.666 13 24.999 13h10c20.667 0 41.334 -10.333 62.001 -31
l2 -8v-6c-15.333 -44 -49.333 -112.667 -102 -206c-56.667 -95.333 -131 -202.666 -223 -321.999c-58.667 -74.667 -128.667 -154 -210 -238c-95.333 -92.667 -168 -156.334 -218 -191.001c-144.667 -105.333 -267.667 -158 -369 -158h-21c-66.667 0 -138 31 -214 93
c-40.667 40.667 -67.667 73.334 -81 98.001c-59.333 102 -89 216 -89 342v34c-0 201.333 59.333 443 178 725c47.333 109.333 111 228.333 191 357c45.333 69.333 97.333 138.333 156 207c71.333 79.333 126.333 133.333 165 162c122 95.333 232.333 143 331 143z
M530.001 -373.001c40 -6 60 -17.999 60 -35.999c-6 -23.333 -9 -35.333 -9 -36c0 -6.66699 20 -18 60 -34c20 -14.667 30 -32.334 30 -53.001v-1c0 -60.667 -44.667 -101 -134 -121c-10 -2.66699 -22 -4 -36 -4h-26c-61.333 0 -104.666 24.667 -129.999 74
c-4 11.333 -6 22 -6 32v3c0 9.33301 8.66699 22 26 38h4c1.33301 -1.33301 5.66602 -12 12.999 -32c24 -35.333 56.333 -53 97 -53c36.667 0 63.667 18.333 81 55l2 9c0 14.667 -21 28 -63 40c-20 12 -30 26.667 -30 44c4 50 16.667 75 38 75h23z" />
    <glyph glyph-name="Egrave" unicode="&#xc8;" horiz-adv-x="1498" 
d="M1219 1703l26.998 0.000976562c137.333 0 206 -37.667 206 -113c0 -22.667 -19.667 -67.334 -59 -134.001c-109.333 -190.667 -164 -357 -164 -499v-20c0 -13.333 -8 -23 -24 -29c-4.66699 -1.33301 -12.334 -2 -23.001 -2h-3c-41.333 0 -85.666 23 -132.999 69
c-12 17.333 -18 32 -18 44v30c0 134.667 51.333 297.334 154 488.001h-2c-167.333 -45.333 -317.333 -123.666 -450 -234.999c-55.333 -51.333 -91.666 -91 -108.999 -119c-54 -83.333 -81 -161.333 -81 -234c0 -63.333 26.667 -116.666 80 -159.999
c24.667 -18 55.667 -33.333 93 -46c25.333 -6.66699 56.333 -13.334 93 -20.001c30 -16 45 -43 45 -81c0 -26 -9.66699 -41.333 -29 -46c-87.333 -15.333 -183.666 -62 -288.999 -140c-28.667 -22 -66.334 -57 -113.001 -105c-68.667 -77.333 -115.667 -143 -141 -197
c-52 -96.667 -78 -185 -78 -265v-18c0 -70.667 24.667 -126.334 74 -167.001c15.333 -13.333 43.333 -26.333 84 -39c40.667 -10.667 77.334 -16 110.001 -16h5c3.33301 0 6 -0.333008 8 -1c192.667 0 396.667 130.667 612 392c81.333 104 156 213.667 224 329
c42.667 74.667 91 169.667 145 285c8 8.66699 19 13 33 13c28 0 52.667 -14 74 -42l1 -10v-4c0 -14.667 -45.333 -106.667 -136 -276c-62 -106.667 -137.333 -218.334 -226 -335.001c-49.333 -62.667 -108.666 -128 -177.999 -196c-90.667 -84.667 -169 -145 -235 -181
c-112 -62 -213 -93 -303 -93h-30c-112.667 0 -222.334 45.333 -329.001 136c-50.667 50.667 -81.334 91 -92.001 121c-28 55.333 -42 109.666 -42 162.999v26c0 139.333 67 293 201 461c62 66.667 110.333 113.667 145 141c68.667 50.667 126.334 86.667 173.001 108
c6.66699 3.33301 11 5 13 5v3c-70.667 43.333 -121.667 109 -153 197c-9.33301 35.333 -14 67.333 -14 96c0 120 59 249 177 387c62.667 66.667 111 111.334 145 134.001c56.667 41.333 106.667 73 150 95c134 66.667 261.333 100 382 100zM833.998 1977
c10.667 2.66699 18.668 3.33398 24.001 2.00098c10 3.33301 19.667 -3.66699 29 -21c23.333 -33.333 57.666 -72.333 102.999 -117c34.667 -29.333 52.334 -47 53.001 -53v-4c-2.66699 -12.667 -12.334 -21.667 -29.001 -27l-13 -3
c-8.66699 -2.66699 -18 -4.33398 -28 -5.00098c-13.333 -4 -49 10.667 -107 44c-72 49.333 -111.667 86 -119 110v5l1 9c18 28 43 46.667 75 56z" />
    <glyph glyph-name="Eacute" unicode="&#xc9;" horiz-adv-x="1498" 
d="M1219 1703l26.998 0.000976562c137.333 0 206 -37.667 206 -113c0 -22.667 -19.667 -67.334 -59 -134.001c-109.333 -190.667 -164 -357 -164 -499v-20c0 -13.333 -8 -23 -24 -29c-4.66699 -1.33301 -12.334 -2 -23.001 -2h-3c-41.333 0 -85.666 23 -132.999 69
c-12 17.333 -18 32 -18 44v30c0 134.667 51.333 297.334 154 488.001h-2c-167.333 -45.333 -317.333 -123.666 -450 -234.999c-55.333 -51.333 -91.666 -91 -108.999 -119c-54 -83.333 -81 -161.333 -81 -234c0 -63.333 26.667 -116.666 80 -159.999
c24.667 -18 55.667 -33.333 93 -46c25.333 -6.66699 56.333 -13.334 93 -20.001c30 -16 45 -43 45 -81c0 -26 -9.66699 -41.333 -29 -46c-87.333 -15.333 -183.666 -62 -288.999 -140c-28.667 -22 -66.334 -57 -113.001 -105c-68.667 -77.333 -115.667 -143 -141 -197
c-52 -96.667 -78 -185 -78 -265v-18c0 -70.667 24.667 -126.334 74 -167.001c15.333 -13.333 43.333 -26.333 84 -39c40.667 -10.667 77.334 -16 110.001 -16h5c3.33301 0 6 -0.333008 8 -1c192.667 0 396.667 130.667 612 392c81.333 104 156 213.667 224 329
c42.667 74.667 91 169.667 145 285c8 8.66699 19 13 33 13c28 0 52.667 -14 74 -42l1 -10v-4c0 -14.667 -45.333 -106.667 -136 -276c-62 -106.667 -137.333 -218.334 -226 -335.001c-49.333 -62.667 -108.666 -128 -177.999 -196c-90.667 -84.667 -169 -145 -235 -181
c-112 -62 -213 -93 -303 -93h-30c-112.667 0 -222.334 45.333 -329.001 136c-50.667 50.667 -81.334 91 -92.001 121c-28 55.333 -42 109.666 -42 162.999v26c0 139.333 67 293 201 461c62 66.667 110.333 113.667 145 141c68.667 50.667 126.334 86.667 173.001 108
c6.66699 3.33301 11 5 13 5v3c-70.667 43.333 -121.667 109 -153 197c-9.33301 35.333 -14 67.333 -14 96c0 120 59 249 177 387c62.667 66.667 111 111.334 145 134.001c56.667 41.333 106.667 73 150 95c134 66.667 261.333 100 382 100zM937.998 1954l11.002 -2
c32.667 -5.33301 59.667 -21 81 -47l3 -8v-5c-4.66699 -24.667 -39.334 -66 -104.001 -124c-53.333 -40.667 -87 -60 -101 -58c-10 0 -19.333 0.666992 -28 2l-13 2c-18 2.66699 -28.667 10.334 -32 23.001l-1 4c0 5.33301 15.333 24.666 46 57.999
c39.333 50.667 68.333 94 87 130c7.33301 18 16 26.333 26 25c5.33301 2 13.666 2 24.999 0z" />
    <glyph glyph-name="Ecircumflex" unicode="&#xca;" horiz-adv-x="1498" 
d="M1219 1703l26.998 0.000976562c137.333 0 206 -37.667 206 -113c0 -22.667 -19.667 -67.334 -59 -134.001c-109.333 -190.667 -164 -357 -164 -499v-20c0 -13.333 -8 -23 -24 -29c-4.66699 -1.33301 -12.334 -2 -23.001 -2h-3c-41.333 0 -85.666 23 -132.999 69
c-12 17.333 -18 32 -18 44v30c0 134.667 51.333 297.334 154 488.001h-2c-167.333 -45.333 -317.333 -123.666 -450 -234.999c-55.333 -51.333 -91.666 -91 -108.999 -119c-54 -83.333 -81 -161.333 -81 -234c0 -63.333 26.667 -116.666 80 -159.999
c24.667 -18 55.667 -33.333 93 -46c25.333 -6.66699 56.333 -13.334 93 -20.001c30 -16 45 -43 45 -81c0 -26 -9.66699 -41.333 -29 -46c-87.333 -15.333 -183.666 -62 -288.999 -140c-28.667 -22 -66.334 -57 -113.001 -105c-68.667 -77.333 -115.667 -143 -141 -197
c-52 -96.667 -78 -185 -78 -265v-18c0 -70.667 24.667 -126.334 74 -167.001c15.333 -13.333 43.333 -26.333 84 -39c40.667 -10.667 77.334 -16 110.001 -16h5c3.33301 0 6 -0.333008 8 -1c192.667 0 396.667 130.667 612 392c81.333 104 156 213.667 224 329
c42.667 74.667 91 169.667 145 285c8 8.66699 19 13 33 13c28 0 52.667 -14 74 -42l1 -10v-4c0 -14.667 -45.333 -106.667 -136 -276c-62 -106.667 -137.333 -218.334 -226 -335.001c-49.333 -62.667 -108.666 -128 -177.999 -196c-90.667 -84.667 -169 -145 -235 -181
c-112 -62 -213 -93 -303 -93h-30c-112.667 0 -222.334 45.333 -329.001 136c-50.667 50.667 -81.334 91 -92.001 121c-28 55.333 -42 109.666 -42 162.999v26c0 139.333 67 293 201 461c62 66.667 110.333 113.667 145 141c68.667 50.667 126.334 86.667 173.001 108
c6.66699 3.33301 11 5 13 5v3c-70.667 43.333 -121.667 109 -153 197c-9.33301 35.333 -14 67.333 -14 96c0 120 59 249 177 387c62.667 66.667 111 111.334 145 134.001c56.667 41.333 106.667 73 150 95c134 66.667 261.333 100 382 100zM979.998 2027l13.002 0.996094
c40 2.66699 67.667 -14.666 83 -51.999c82 -110.667 123 -167 123 -169l1 -10c-6 -12 -18 -18.667 -36 -20l-14 -1c-44.667 -2.66699 -76.334 22.333 -95.001 75l-48 87h-2c-6 -7.33301 -39.667 -61.333 -101 -162c-8.66699 -11.333 -21.334 -17.666 -38.001 -18.999h-10
c-46 2.66699 -69.667 13.334 -71 32.001l-1 8c62.667 89.333 119.667 163.333 171 222c6 4.66699 14.333 7.33398 25 8.00098z" />
    <glyph glyph-name="Edieresis" unicode="&#xcb;" horiz-adv-x="1498" 
d="M1219 1703l26.998 0.000976562c137.333 0 206 -37.667 206 -113c0 -22.667 -19.667 -67.334 -59 -134.001c-109.333 -190.667 -164 -357 -164 -499v-20c0 -13.333 -8 -23 -24 -29c-4.66699 -1.33301 -12.334 -2 -23.001 -2h-3c-41.333 0 -85.666 23 -132.999 69
c-12 17.333 -18 32 -18 44v30c0 134.667 51.333 297.334 154 488.001h-2c-167.333 -45.333 -317.333 -123.666 -450 -234.999c-55.333 -51.333 -91.666 -91 -108.999 -119c-54 -83.333 -81 -161.333 -81 -234c0 -63.333 26.667 -116.666 80 -159.999
c24.667 -18 55.667 -33.333 93 -46c25.333 -6.66699 56.333 -13.334 93 -20.001c30 -16 45 -43 45 -81c0 -26 -9.66699 -41.333 -29 -46c-87.333 -15.333 -183.666 -62 -288.999 -140c-28.667 -22 -66.334 -57 -113.001 -105c-68.667 -77.333 -115.667 -143 -141 -197
c-52 -96.667 -78 -185 -78 -265v-18c0 -70.667 24.667 -126.334 74 -167.001c15.333 -13.333 43.333 -26.333 84 -39c40.667 -10.667 77.334 -16 110.001 -16h5c3.33301 0 6 -0.333008 8 -1c192.667 0 396.667 130.667 612 392c81.333 104 156 213.667 224 329
c42.667 74.667 91 169.667 145 285c8 8.66699 19 13 33 13c28 0 52.667 -14 74 -42l1 -10v-4c0 -14.667 -45.333 -106.667 -136 -276c-62 -106.667 -137.333 -218.334 -226 -335.001c-49.333 -62.667 -108.666 -128 -177.999 -196c-90.667 -84.667 -169 -145 -235 -181
c-112 -62 -213 -93 -303 -93h-30c-112.667 0 -222.334 45.333 -329.001 136c-50.667 50.667 -81.334 91 -92.001 121c-28 55.333 -42 109.666 -42 162.999v26c0 139.333 67 293 201 461c62 66.667 110.333 113.667 145 141c68.667 50.667 126.334 86.667 173.001 108
c6.66699 3.33301 11 5 13 5v3c-70.667 43.333 -121.667 109 -153 197c-9.33301 35.333 -14 67.333 -14 96c0 120 59 249 177 387c62.667 66.667 111 111.334 145 134.001c56.667 41.333 106.667 73 150 95c134 66.667 261.333 100 382 100zM895.998 1955
c35.333 0 60 -21.666 74 -64.999v-24c0 -38.667 -19.667 -65 -59 -79h-26c-36.667 0 -62 22.667 -76 68v27c0 37.333 24.333 61.666 73 72.999h14zM1177 1955c34.667 0 59.332 -21.666 73.999 -64.999v-24c0 -38.667 -19.667 -65 -59 -79h-26
c-37.333 0 -62.666 22.667 -75.999 68v27c0 37.333 24.333 61.666 73 72.999h14z" />
    <glyph glyph-name="Igrave" unicode="&#xcc;" horiz-adv-x="756" 
d="M880 1704l46.998 0.00390625c86 0 162.333 -15.667 229 -47c13.333 -14 20 -29.667 20 -47v-8c0 -30.667 -14.667 -48.334 -44 -53.001c-29.333 10.667 -64.333 16 -105 16c-66 0 -160.667 -9.66699 -284 -29v-2c42 -18.667 70.667 -44.334 86 -77.001l4 -15
c-233.333 -843.333 -350 -1369.33 -350 -1578c0 -50.667 7.66699 -81.334 23 -92.001h2c42.667 1.33301 68.667 2 78 2c102 0 182.333 -16.333 241 -49c16 -16 24 -36.667 24 -62c0 -24.667 -10.667 -40.334 -32 -47.001h-11c-29.333 11.333 -60 17 -92 17
c-161.333 0 -342 -35.667 -542 -107h-20c-37.333 0 -77.666 22 -120.999 66c-13.333 17.333 -20 32.333 -20 45c0 19.333 32 37 96 53c59.333 21.333 150 43 272 65c-35.333 69.333 -53 169.666 -53 300.999c0 320 103 806.667 309 1460h-2
c-86.667 -19.333 -163.667 -40.666 -231 -63.999h-7c-55.333 0 -105.666 28.667 -150.999 86c-2.66699 11.333 -4 18.333 -4 21v8c0 17.333 28 32.333 84 45c215.333 61.333 400 92 554 92zM663.998 2015c10.667 4 18.667 5.33203 24 3.99902
c9.33301 4 19.666 -2 30.999 -18c26 -31.333 63.333 -67.666 112 -108.999c37.333 -26 56.333 -41.667 57 -47l1 -4c-1.33301 -13.333 -10.333 -23 -27 -29l-12 -5c-8.66699 -3.33301 -18 -5.66602 -28 -6.99902c-12.667 -5.33301 -49.667 6 -111 34
c-75.333 43.333 -117.666 76.666 -126.999 99.999l-1 5l1 9c15.333 30 38.333 50.667 69 62z" />
    <glyph glyph-name="Iacute" unicode="&#xcd;" horiz-adv-x="756" 
d="M880 1704l46.998 0.00390625c86 0 162.333 -15.667 229 -47c13.333 -14 20 -29.667 20 -47v-8c0 -30.667 -14.667 -48.334 -44 -53.001c-29.333 10.667 -64.333 16 -105 16c-66 0 -160.667 -9.66699 -284 -29v-2c42 -18.667 70.667 -44.334 86 -77.001l4 -15
c-233.333 -843.333 -350 -1369.33 -350 -1578c0 -50.667 7.66699 -81.334 23 -92.001h2c42.667 1.33301 68.667 2 78 2c102 0 182.333 -16.333 241 -49c16 -16 24 -36.667 24 -62c0 -24.667 -10.667 -40.334 -32 -47.001h-11c-29.333 11.333 -60 17 -92 17
c-161.333 0 -342 -35.667 -542 -107h-20c-37.333 0 -77.666 22 -120.999 66c-13.333 17.333 -20 32.333 -20 45c0 19.333 32 37 96 53c59.333 21.333 150 43 272 65c-35.333 69.333 -53 169.666 -53 300.999c0 320 103 806.667 309 1460h-2
c-86.667 -19.333 -163.667 -40.666 -231 -63.999h-7c-55.333 0 -105.666 28.667 -150.999 86c-2.66699 11.333 -4 18.333 -4 21v8c0 17.333 28 32.333 84 45c215.333 61.333 400 92 554 92zM819.998 1994l11 -4.00391c31.333 -11.333 55 -31.666 71 -60.999l1 -8l-1 -6
c-8.66699 -23.333 -50 -57.666 -124 -102.999c-60 -30 -96.667 -42.667 -110 -38c-10 1.33301 -19 3.33301 -27 6l-13 5c-16.667 6 -26 15.333 -28 28l1 4c0.666992 5.33301 19.334 22 56.001 50c47.333 42 83.666 79 108.999 111c10 16.667 20 23.334 30 20.001
c5.33301 0.666992 13.333 -0.666016 24 -3.99902z" />
    <glyph glyph-name="Icircumflex" unicode="&#xce;" horiz-adv-x="756" 
d="M880 1704l46.998 0.00390625c86 0 162.333 -15.667 229 -47c13.333 -14 20 -29.667 20 -47v-8c0 -30.667 -14.667 -48.334 -44 -53.001c-29.333 10.667 -64.333 16 -105 16c-66 0 -160.667 -9.66699 -284 -29v-2c42 -18.667 70.667 -44.334 86 -77.001l4 -15
c-233.333 -843.333 -350 -1369.33 -350 -1578c0 -50.667 7.66699 -81.334 23 -92.001h2c42.667 1.33301 68.667 2 78 2c102 0 182.333 -16.333 241 -49c16 -16 24 -36.667 24 -62c0 -24.667 -10.667 -40.334 -32 -47.001h-11c-29.333 11.333 -60 17 -92 17
c-161.333 0 -342 -35.667 -542 -107h-20c-37.333 0 -77.666 22 -120.999 66c-13.333 17.333 -20 32.333 -20 45c0 19.333 32 37 96 53c59.333 21.333 150 43 272 65c-35.333 69.333 -53 169.666 -53 300.999c0 320 103 806.667 309 1460h-2
c-86.667 -19.333 -163.667 -40.666 -231 -63.999h-7c-55.333 0 -105.666 28.667 -150.999 86c-2.66699 11.333 -4 18.333 -4 21v8c0 17.333 28 32.333 84 45c215.333 61.333 400 92 554 92zM795.998 2057l14.002 -1c40 -3.33301 64.667 -24.666 74 -63.999
c65.333 -121.333 97.666 -183 96.999 -185v-10c-8 -10.667 -21 -15.334 -39 -14.001l-14 1c-44.667 3.33301 -72.334 32.333 -83.001 87l-34 94h-2c-7.33301 -6 -48.666 -54.667 -123.999 -146c-10.667 -9.33301 -24.334 -13.333 -41.001 -12h-10
c-44.667 10 -66.334 24.333 -65.001 43v8c75.333 78.667 142.333 143.667 201 195c6.66699 3.33301 15.334 4.66602 26.001 4z" />
    <glyph glyph-name="Idieresis" unicode="&#xcf;" horiz-adv-x="756" 
d="M880 1704l46.998 0.00390625c86 0 162.333 -15.667 229 -47c13.333 -14 20 -29.667 20 -47v-8c0 -30.667 -14.667 -48.334 -44 -53.001c-29.333 10.667 -64.333 16 -105 16c-66 0 -160.667 -9.66699 -284 -29v-2c42 -18.667 70.667 -44.334 86 -77.001l4 -15
c-233.333 -843.333 -350 -1369.33 -350 -1578c0 -50.667 7.66699 -81.334 23 -92.001h2c42.667 1.33301 68.667 2 78 2c102 0 182.333 -16.333 241 -49c16 -16 24 -36.667 24 -62c0 -24.667 -10.667 -40.334 -32 -47.001h-11c-29.333 11.333 -60 17 -92 17
c-161.333 0 -342 -35.667 -542 -107h-20c-37.333 0 -77.666 22 -120.999 66c-13.333 17.333 -20 32.333 -20 45c0 19.333 32 37 96 53c59.333 21.333 150 43 272 65c-35.333 69.333 -53 169.666 -53 300.999c0 320 103 806.667 309 1460h-2
c-86.667 -19.333 -163.667 -40.666 -231 -63.999h-7c-55.333 0 -105.666 28.667 -150.999 86c-2.66699 11.333 -4 18.333 -4 21v8c0 17.333 28 32.333 84 45c215.333 61.333 400 92 554 92zM649.998 1984c35.333 0 60 -21.666 74 -64.999v-24c0 -38.667 -19.667 -65 -59 -79
h-26c-36.667 0 -62 22.667 -76 68v27c0 37.333 24.333 61.666 73 72.999h14zM930.998 1984c34.667 0 59.332 -21.666 73.999 -64.999v-24c0 -38.667 -19.667 -65 -59 -79h-26c-37.333 0 -62.666 22.667 -75.999 68v27c0 37.333 24.333 61.666 73 72.999h14z" />
    <glyph glyph-name="Eth" unicode="&#xd0;" horiz-adv-x="1870" 
d="M1097 1699l51.9951 0.000976562c168.667 0 329.667 -58.667 483 -176c131.333 -116.667 197 -255.667 197 -417v-47c0 -188 -75.333 -410.333 -226 -667c-72 -116.667 -177 -250.334 -315 -401.001c-137.333 -140 -237 -229.333 -299 -268
c-180 -129.333 -336.333 -194 -469 -194h-21c-123.333 0 -218 51.667 -284 155c-15.333 29.333 -23 61.666 -23 96.999v10c0 186 154.667 451 464 795c10.667 0 23.667 43 39 129c63.333 250.667 114.333 439.667 153 567c14 14 28 21 42 21h15
c62 0 109.333 -23.667 142 -71l3 -16c0 -6 -34.333 -122.333 -103 -349c196.667 163.333 332.334 250 407.001 260c32 0 55.667 -20 71 -60v-13c-2 -5.33301 -38.667 -25.666 -110 -60.999c-101.333 -64 -212.666 -148 -333.999 -252
c-70 -64.667 -105 -100.334 -105 -107.001l-181 -625c-14 -19.333 -33 -29 -57 -29h-14c-39.333 0 -64.666 16.667 -75.999 50v5c0 11.333 21 114.666 63 309.999c-60.667 -72.667 -115.667 -155 -165 -247c-59.333 -114.667 -89 -213.334 -89 -296.001
c6.66699 -91.333 23.334 -137 50.001 -137c28 -3.33301 49 -5 63 -5c209.333 0 468 186.333 776 559c191.333 248.667 312 460.334 362 635.001c30 105.333 45 199.666 45 282.999v11c0 183.333 -78.667 308.333 -236 375c-52 22.667 -111.333 34 -178 34h-21
c-217.333 0 -445 -87.333 -683 -262c-106.667 -88.667 -186 -171.667 -238 -249c-42.667 -63.333 -77.667 -124.666 -105 -183.999c-10.667 -10.667 -22.334 -16 -35.001 -16h-13c-46.667 0 -92 27.333 -136 82c-5.33301 8.66699 -8 17.334 -8 26.001v8
c27.333 72.667 84.333 164.334 171 275.001c108.667 116 183 185 223 207c94.667 69.333 187.334 123 278.001 161c160.667 62.667 302.334 94 425.001 94zM486.995 590.001l278 80c30.667 8.66699 57.334 2.33398 80.001 -18.999l4 -16
c5.33301 -18 -26.334 -36.667 -95.001 -56l-256 -73c-8.66699 -2.66699 -20 -7.33398 -34 -14.001c-42 -12 -72 -1 -90 33l-1 3c-5.33301 18 32.667 38.667 114 62z" />
    <glyph glyph-name="Ntilde" unicode="&#xd1;" horiz-adv-x="1450" 
d="M1295 1671c47.333 0 71.0029 -36.6641 71.0029 -109.997c0 -15.333 -23.667 -200 -71 -554c-26.667 -244.667 -40 -450.334 -40 -617.001c0 -388.667 52.667 -639 158 -751v-12c0 -32.667 -38 -56.334 -114 -71.001c-10.667 -2.66699 -21.334 -4 -32.001 -4
c-101.333 0 -166 151.667 -194 455c0 25.333 -1.33301 72.666 -4 141.999c0 319.333 45 732 135 1238c12.667 38 19 78.667 19 122l-15 8c-84 0 -249 -251.667 -495 -755c-160.667 -325.333 -338.334 -727.333 -533.001 -1206c-24.667 -21.333 -57.667 -32 -99 -32h-8
c-36 0 -61 12 -75 36c55.333 159.333 113.333 427 174 803c63.333 398.667 95 696.334 95 893.001c0 52 44.667 82.333 134 91h28c39.333 -6.66699 59 -18.334 59 -35.001c0 -156.667 -34.333 -460 -103 -910v-4h4c161.333 343.333 326 648 494 914
c163.333 239.333 300.666 359 411.999 359zM817.003 1885h10.998c42.667 0 97.334 -24.333 164.001 -73h14c16.667 0 32.667 19.667 48 59c12.667 9.33301 28.667 14 48 14c32 -6.66699 48 -19.667 48 -39c-28.667 -83.333 -72 -125 -130 -125h-20
c-40.667 0 -85 20.667 -133 62c-10 0 -27.667 -22.667 -53 -68c-13.333 -7.33301 -30.333 -11 -51 -11c-58.667 8.66699 -88 24.667 -88 48c0 24.667 21.667 59.667 65 105c24.667 18.667 50.334 28 77.001 28z" />
    <glyph glyph-name="Ograve" unicode="&#xd2;" horiz-adv-x="1485" 
d="M787 1698h32.002c118.667 0 241.667 -53.667 369 -161c128.667 -135.333 193 -311.666 193 -528.999v-53c0 -250.667 -73.333 -535.334 -220 -854.001c-51.333 -107.333 -120.333 -216.666 -207 -327.999c-141.333 -160 -267.333 -240 -378 -240h-41
c-162.667 0 -292.334 84 -389.001 252c-54.667 118.667 -82 248.334 -82 389.001v61c0 211.333 53.667 448.333 161 711c172 355.333 371 533 597 533c53.333 0 101 -29.333 143 -88c4 -6.66699 6 -12.667 6 -18v-17c0 -16 -38 -26.667 -114 -32
c-124 -41.333 -229.333 -127.333 -316 -258c-64 -90.667 -128.333 -228 -193 -412c-56.667 -196.667 -85 -370.334 -85 -521.001v-29c0 -198 42 -333.667 126 -407c20 -12 39.667 -18 59 -18h11c140.667 0 296.667 149.333 468 448c170 335.333 255 642.666 255 921.999v40
c0 163.333 -39 294.333 -117 393c-48 48.667 -102.667 73 -164 73h-6c-124.667 0 -280.667 -79 -468 -237c-114 -118 -182.333 -208.667 -205 -272c-20.667 -58.667 -38 -88 -52 -88h-15c-58.667 0 -108.334 29.333 -149.001 88c-4 6 -6 11.667 -6 17v9
c14 74 70.667 170.667 170 290c117.333 118 199 187 245 207c139.333 86 263.333 129 372 129zM807.002 1963c10.667 4 18.667 5.33301 24 4c10 4 20.333 -2.33301 31 -19c25.333 -31.333 62 -68 110 -110c36.667 -27.333 55.334 -43.666 56.001 -48.999v-4
c-1.33301 -13.333 -10.333 -23 -27 -29l-12 -5c-8.66699 -2.66699 -18 -4.66699 -28 -6c-12.667 -4.66699 -49.334 7.66602 -110.001 36.999c-74.667 44.667 -116.667 78.334 -126 101.001v6l1 9c16 29.333 39.333 49.666 70 60.999z" />
    <glyph glyph-name="Oacute" unicode="&#xd3;" horiz-adv-x="1485" 
d="M787 1698h32.002c118.667 0 241.667 -53.667 369 -161c128.667 -135.333 193 -311.666 193 -528.999v-53c0 -250.667 -73.333 -535.334 -220 -854.001c-51.333 -107.333 -120.333 -216.666 -207 -327.999c-141.333 -160 -267.333 -240 -378 -240h-41
c-162.667 0 -292.334 84 -389.001 252c-54.667 118.667 -82 248.334 -82 389.001v61c0 211.333 53.667 448.333 161 711c172 355.333 371 533 597 533c53.333 0 101 -29.333 143 -88c4 -6.66699 6 -12.667 6 -18v-17c0 -16 -38 -26.667 -114 -32
c-124 -41.333 -229.333 -127.333 -316 -258c-64 -90.667 -128.333 -228 -193 -412c-56.667 -196.667 -85 -370.334 -85 -521.001v-29c0 -198 42 -333.667 126 -407c20 -12 39.667 -18 59 -18h11c140.667 0 296.667 149.333 468 448c170 335.333 255 642.666 255 921.999v40
c0 163.333 -39 294.333 -117 393c-48 48.667 -102.667 73 -164 73h-6c-124.667 0 -280.667 -79 -468 -237c-114 -118 -182.333 -208.667 -205 -272c-20.667 -58.667 -38 -88 -52 -88h-15c-58.667 0 -108.334 29.333 -149.001 88c-4 6 -6 11.667 -6 17v9
c14 74 70.667 170.667 170 290c117.333 118 199 187 245 207c139.333 86 263.333 129 372 129zM946.002 1963l11 -4c30.667 -11.333 54 -31.666 70 -60.999l1 -9v-6c-9.33301 -22.667 -51.333 -56.334 -126 -101.001c-60 -29.333 -96.667 -41.666 -110 -36.999
c-10 1.33301 -19 3.33301 -27 6l-13 5c-16.667 6 -25.667 15.667 -27 29v4c0.666992 5.33301 19.667 21.666 57 48.999c47.333 42 84 78.667 110 110c10.667 16.667 20.667 23 30 19c5.33301 1.33301 13.333 0 24 -4z" />
    <glyph glyph-name="Ocircumflex" unicode="&#xd4;" horiz-adv-x="1485" 
d="M787 1698h32.002c118.667 0 241.667 -53.667 369 -161c128.667 -135.333 193 -311.666 193 -528.999v-53c0 -250.667 -73.333 -535.334 -220 -854.001c-51.333 -107.333 -120.333 -216.666 -207 -327.999c-141.333 -160 -267.333 -240 -378 -240h-41
c-162.667 0 -292.334 84 -389.001 252c-54.667 118.667 -82 248.334 -82 389.001v61c0 211.333 53.667 448.333 161 711c172 355.333 371 533 597 533c53.333 0 101 -29.333 143 -88c4 -6.66699 6 -12.667 6 -18v-17c0 -16 -38 -26.667 -114 -32
c-124 -41.333 -229.333 -127.333 -316 -258c-64 -90.667 -128.333 -228 -193 -412c-56.667 -196.667 -85 -370.334 -85 -521.001v-29c0 -198 42 -333.667 126 -407c20 -12 39.667 -18 59 -18h11c140.667 0 296.667 149.333 468 448c170 335.333 255 642.666 255 921.999v40
c0 163.333 -39 294.333 -117 393c-48 48.667 -102.667 73 -164 73h-6c-124.667 0 -280.667 -79 -468 -237c-114 -118 -182.333 -208.667 -205 -272c-20.667 -58.667 -38 -88 -52 -88h-15c-58.667 0 -108.334 29.333 -149.001 88c-4 6 -6 11.667 -6 17v9
c14 74 70.667 170.667 170 290c117.333 118 199 187 245 207c139.333 86 263.333 129 372 129zM901.002 2004l14 -0.999023c40 -2.66699 64.667 -23.334 74 -62.001c66 -122 99 -183.667 99 -185l-1 -10c-8 -11.333 -21 -16.333 -39 -15l-14 1
c-44 3.33301 -72 32.333 -84 87l-34 94h-2c-7.33301 -6.66699 -48.333 -55.667 -123 -147c-10.667 -9.33301 -24.334 -13.333 -41.001 -12h-10c-44.667 10 -66.334 24.333 -65.001 43v8c74.667 79.333 141.334 144.333 200.001 195c6.66699 4 15.334 5.33301 26.001 4z" />
    <glyph glyph-name="Otilde" unicode="&#xd5;" horiz-adv-x="1485" 
d="M787 1698h32.002c118.667 0 241.667 -53.667 369 -161c128.667 -135.333 193 -311.666 193 -528.999v-53c0 -250.667 -73.333 -535.334 -220 -854.001c-51.333 -107.333 -120.333 -216.666 -207 -327.999c-141.333 -160 -267.333 -240 -378 -240h-41
c-162.667 0 -292.334 84 -389.001 252c-54.667 118.667 -82 248.334 -82 389.001v61c0 211.333 53.667 448.333 161 711c172 355.333 371 533 597 533c53.333 0 101 -29.333 143 -88c4 -6.66699 6 -12.667 6 -18v-17c0 -16 -38 -26.667 -114 -32
c-124 -41.333 -229.333 -127.333 -316 -258c-64 -90.667 -128.333 -228 -193 -412c-56.667 -196.667 -85 -370.334 -85 -521.001v-29c0 -198 42 -333.667 126 -407c20 -12 39.667 -18 59 -18h11c140.667 0 296.667 149.333 468 448c170 335.333 255 642.666 255 921.999v40
c0 163.333 -39 294.333 -117 393c-48 48.667 -102.667 73 -164 73h-6c-124.667 0 -280.667 -79 -468 -237c-114 -118 -182.333 -208.667 -205 -272c-20.667 -58.667 -38 -88 -52 -88h-15c-58.667 0 -108.334 29.333 -149.001 88c-4 6 -6 11.667 -6 17v9
c14 74 70.667 170.667 170 290c117.333 118 199 187 245 207c139.333 86 263.333 129 372 129zM740.002 1966h10.998c42.667 0 97.334 -24.333 164.001 -73h14c16.667 0 32.667 19.667 48 59c12.667 9.33301 28.667 14 48 14c32 -6.66699 48 -19.667 48 -39
c-28.667 -83.333 -72 -125 -130 -125h-20c-40.667 0 -85 20.667 -133 62c-10 0 -27.667 -22.667 -53 -68c-13.333 -7.33301 -30.333 -11 -51 -11c-58.667 8.66699 -88 24.667 -88 48c0 24.667 21.667 59.667 65 105c24.667 18.667 50.334 28 77.001 28z" />
    <glyph glyph-name="Odieresis" unicode="&#xd6;" horiz-adv-x="1485" 
d="M787 1698h32.002c118.667 0 241.667 -53.667 369 -161c128.667 -135.333 193 -311.666 193 -528.999v-53c0 -250.667 -73.333 -535.334 -220 -854.001c-51.333 -107.333 -120.333 -216.666 -207 -327.999c-141.333 -160 -267.333 -240 -378 -240h-41
c-162.667 0 -292.334 84 -389.001 252c-54.667 118.667 -82 248.334 -82 389.001v61c0 211.333 53.667 448.333 161 711c172 355.333 371 533 597 533c53.333 0 101 -29.333 143 -88c4 -6.66699 6 -12.667 6 -18v-17c0 -16 -38 -26.667 -114 -32
c-124 -41.333 -229.333 -127.333 -316 -258c-64 -90.667 -128.333 -228 -193 -412c-56.667 -196.667 -85 -370.334 -85 -521.001v-29c0 -198 42 -333.667 126 -407c20 -12 39.667 -18 59 -18h11c140.667 0 296.667 149.333 468 448c170 335.333 255 642.666 255 921.999v40
c0 163.333 -39 294.333 -117 393c-48 48.667 -102.667 73 -164 73h-6c-124.667 0 -280.667 -79 -468 -237c-114 -118 -182.333 -208.667 -205 -272c-20.667 -58.667 -38 -88 -52 -88h-15c-58.667 0 -108.334 29.333 -149.001 88c-4 6 -6 11.667 -6 17v9
c14 74 70.667 170.667 170 290c117.333 118 199 187 245 207c139.333 86 263.333 129 372 129zM759.002 1955c35.333 0 60 -21.666 74 -64.999v-24c0 -38.667 -19.667 -65 -59 -79h-26c-36.667 0 -62 22.667 -76 68v27c0 37.333 24.333 61.666 73 72.999h14zM1040 1955
c34.667 0 59.332 -21.666 73.999 -64.999v-24c0 -38.667 -19.667 -65 -59 -79h-26c-37.333 0 -62.666 22.667 -75.999 68v27c0 37.333 24.333 61.666 73 72.999h14z" />
    <glyph glyph-name="multiply" unicode="&#xd7;" horiz-adv-x="693" 
d="M167 860l15.002 -0.00195312c45.333 0 72.333 -18.667 81 -56c0 -11.333 15.333 -55.666 46 -132.999h4c74 94.667 152.333 154.667 235 180c5.33301 0 13.666 1 24.999 3c52 -6.66699 78 -21.334 78 -44.001v-6c-2 -6 -30 -20.333 -84 -43
c-70.667 -53.333 -135.667 -120.666 -195 -201.999v-3c39.333 -74.667 84.666 -149 135.999 -223v-13c0 -11.333 -16.667 -18.333 -50 -21c-47.333 0 -86.666 33 -117.999 99l-40 59c-65.333 -109.333 -107.666 -185 -126.999 -227c-10.667 -6 -21 -9 -31 -9h-25
c-24.667 0 -46.334 11.333 -65.001 34v6c0 26 61 130.667 183 314c-70 132.667 -105 220.334 -105 263.001v3c7.33301 12.667 19.666 19 36.999 19z" />
    <glyph glyph-name="Oslash" unicode="&#xd8;" horiz-adv-x="1485" 
d="M787 1698h32.002c118.667 0 241.667 -53.667 369 -161c128.667 -135.333 193 -311.666 193 -528.999v-53c0 -250.667 -73.333 -535.334 -220 -854.001c-51.333 -107.333 -120.333 -216.666 -207 -327.999c-141.333 -160 -267.333 -240 -378 -240h-41
c-162.667 0 -292.334 84 -389.001 252c-54.667 118.667 -82 248.334 -82 389.001v61c0 211.333 53.667 448.333 161 711c172 355.333 371 533 597 533c53.333 0 101 -29.333 143 -88c4 -6.66699 6 -12.667 6 -18v-17c0 -16 -38 -26.667 -114 -32
c-124 -41.333 -229.333 -127.333 -316 -258c-64 -90.667 -128.333 -228 -193 -412c-56.667 -196.667 -85 -370.334 -85 -521.001v-29c0 -198 42 -333.667 126 -407c20 -12 39.667 -18 59 -18h11c140.667 0 296.667 149.333 468 448c170 335.333 255 642.666 255 921.999v40
c0 163.333 -39 294.333 -117 393c-48 48.667 -102.667 73 -164 73h-6c-124.667 0 -280.667 -79 -468 -237c-114 -118 -182.333 -208.667 -205 -272c-20.667 -58.667 -38 -88 -52 -88h-15c-58.667 0 -108.334 29.333 -149.001 88c-4 6 -6 11.667 -6 17v9
c14 74 70.667 170.667 170 290c117.333 118 199 187 245 207c139.333 86 263.333 129 372 129zM1278 1806l18.001 -8c30 -19.333 40.333 -41 31 -65c-232 -358.667 -562.667 -1094.67 -992 -2208l-67 -174c-2.66699 -8 -14.667 -14.667 -36 -20l-43 17
c-28 11.333 36.333 221 193 629l157 408c376.667 976.667 597.667 1452 663 1426c5.33301 14.667 30.666 13 75.999 -5z" />
    <glyph glyph-name="Ugrave" unicode="&#xd9;" horiz-adv-x="1322" 
d="M370 1702l31.999 1.00098c84.667 2.66699 143.667 -19.666 177 -66.999l1 -16c0 -8.66699 -38 -129 -114 -361c-184 -584 -271.667 -1002.33 -263 -1255c4 -116 31 -196.333 81 -241c23.333 -18.667 50.666 -27.334 81.999 -26.001l16 1
c197.333 6 429.333 403.333 696 1192c22 68 57.333 185.333 106 352c23.333 30.667 48.333 46.667 75 48c60 -15.333 90.667 -37.333 92 -66c0 -11.333 -41.667 -190 -125 -536c-82 -383.333 -119.667 -678.333 -113 -885c4.66699 -124.667 28.334 -217.334 71.001 -278.001
v-8c0 -5.33301 -2.66699 -8 -8 -8l-20 -1c-64.667 -2 -118 55.667 -160 173c-21.333 67.333 -33.666 147 -36.999 239c-2 72.667 1.33301 143 10 211v4h-5c-178.667 -363.333 -355 -547.666 -529 -552.999l-17 -1c-180.667 -6 -302.667 90 -366 288
c-21.333 70.667 -33.333 147.667 -36 231l-3 73c-10.667 327.333 88.333 817.666 297 1471c17.333 11.333 37.333 17.333 60 18zM906.999 1963c10.667 4 18.667 5.33301 24 4c10 4 20.333 -2.33301 31 -19c25.333 -31.333 62 -68 110 -110
c36.667 -27.333 55.334 -43.666 56.001 -48.999v-4c-1.33301 -13.333 -10.333 -23 -27 -29l-12 -5c-8.66699 -2.66699 -18 -4.66699 -28 -6c-12.667 -4.66699 -49.334 7.66602 -110.001 36.999c-74.667 44.667 -116.667 78.334 -126 101.001v6l1 9
c16 29.333 39.333 49.666 70 60.999z" />
    <glyph glyph-name="Uacute" unicode="&#xda;" horiz-adv-x="1322" 
d="M370 1702l31.999 1.00098c84.667 2.66699 143.667 -19.666 177 -66.999l1 -16c0 -8.66699 -38 -129 -114 -361c-184 -584 -271.667 -1002.33 -263 -1255c4 -116 31 -196.333 81 -241c23.333 -18.667 50.666 -27.334 81.999 -26.001l16 1
c197.333 6 429.333 403.333 696 1192c22 68 57.333 185.333 106 352c23.333 30.667 48.333 46.667 75 48c60 -15.333 90.667 -37.333 92 -66c0 -11.333 -41.667 -190 -125 -536c-82 -383.333 -119.667 -678.333 -113 -885c4.66699 -124.667 28.334 -217.334 71.001 -278.001
v-8c0 -5.33301 -2.66699 -8 -8 -8l-20 -1c-64.667 -2 -118 55.667 -160 173c-21.333 67.333 -33.666 147 -36.999 239c-2 72.667 1.33301 143 10 211v4h-5c-178.667 -363.333 -355 -547.666 -529 -552.999l-17 -1c-180.667 -6 -302.667 90 -366 288
c-21.333 70.667 -33.333 147.667 -36 231l-3 73c-10.667 327.333 88.333 817.666 297 1471c17.333 11.333 37.333 17.333 60 18zM1026 1963l11 -4c30.667 -11.333 54 -31.666 70 -60.999l1 -9v-6c-9.33301 -22.667 -51.333 -56.334 -126 -101.001
c-60 -29.333 -96.667 -41.666 -110 -36.999c-10 1.33301 -19 3.33301 -27 6l-13 5c-16.667 6 -25.667 15.667 -27 29v4c0.666992 5.33301 19.667 21.666 57 48.999c47.333 42 84 78.667 110 110c10.667 16.667 20.667 23 30 19c5.33301 1.33301 13.333 0 24 -4z" />
    <glyph glyph-name="Ucircumflex" unicode="&#xdb;" horiz-adv-x="1322" 
d="M370 1702l31.999 1.00098c84.667 2.66699 143.667 -19.666 177 -66.999l1 -16c0 -8.66699 -38 -129 -114 -361c-184 -584 -271.667 -1002.33 -263 -1255c4 -116 31 -196.333 81 -241c23.333 -18.667 50.666 -27.334 81.999 -26.001l16 1
c197.333 6 429.333 403.333 696 1192c22 68 57.333 185.333 106 352c23.333 30.667 48.333 46.667 75 48c60 -15.333 90.667 -37.333 92 -66c0 -11.333 -41.667 -190 -125 -536c-82 -383.333 -119.667 -678.333 -113 -885c4.66699 -124.667 28.334 -217.334 71.001 -278.001
v-8c0 -5.33301 -2.66699 -8 -8 -8l-20 -1c-64.667 -2 -118 55.667 -160 173c-21.333 67.333 -33.666 147 -36.999 239c-2 72.667 1.33301 143 10 211v4h-5c-178.667 -363.333 -355 -547.666 -529 -552.999l-17 -1c-180.667 -6 -302.667 90 -366 288
c-21.333 70.667 -33.333 147.667 -36 231l-3 73c-10.667 327.333 88.333 817.666 297 1471c17.333 11.333 37.333 17.333 60 18zM991.999 1990l14 -0.999023c40 -2.66699 64.667 -23.334 74 -62.001c66 -122 99 -183.667 99 -185l-1 -10c-8 -11.333 -21 -16.333 -39 -15
l-14 1c-44 3.33301 -72 32.333 -84 87l-34 94h-2c-7.33301 -6.66699 -48.333 -55.667 -123 -147c-10.667 -9.33301 -24.334 -13.333 -41.001 -12h-10c-44.667 10 -66.334 24.333 -65.001 43v8c74.667 79.333 141.334 144.333 200.001 195c6.66699 4 15.334 5.33301 26.001 4
z" />
    <glyph glyph-name="Udieresis" unicode="&#xdc;" horiz-adv-x="1322" 
d="M370 1702l31.999 1.00098c84.667 2.66699 143.667 -19.666 177 -66.999l1 -16c0 -8.66699 -38 -129 -114 -361c-184 -584 -271.667 -1002.33 -263 -1255c4 -116 31 -196.333 81 -241c23.333 -18.667 50.666 -27.334 81.999 -26.001l16 1
c197.333 6 429.333 403.333 696 1192c22 68 57.333 185.333 106 352c23.333 30.667 48.333 46.667 75 48c60 -15.333 90.667 -37.333 92 -66c0 -11.333 -41.667 -190 -125 -536c-82 -383.333 -119.667 -678.333 -113 -885c4.66699 -124.667 28.334 -217.334 71.001 -278.001
v-8c0 -5.33301 -2.66699 -8 -8 -8l-20 -1c-64.667 -2 -118 55.667 -160 173c-21.333 67.333 -33.666 147 -36.999 239c-2 72.667 1.33301 143 10 211v4h-5c-178.667 -363.333 -355 -547.666 -529 -552.999l-17 -1c-180.667 -6 -302.667 90 -366 288
c-21.333 70.667 -33.333 147.667 -36 231l-3 73c-10.667 327.333 88.333 817.666 297 1471c17.333 11.333 37.333 17.333 60 18z" />
    <glyph glyph-name="Yacute" unicode="&#xdd;" horiz-adv-x="1449" 
d="M1210 1214v-9h5v9h-5zM1301 1709c82 0 129.332 -29.999 141.999 -89.999c6 -26.667 9 -61.334 9 -104.001v-95c0 -351.333 -104 -756.333 -312 -1215c-86 -178.667 -199.667 -339.667 -341 -483c-108.667 -106.667 -223.667 -172.667 -345 -198
c-12 -3.33301 -24.667 -5 -38 -5h-38c-52 0 -88 12.667 -108 38v9c2.66699 12 62.334 31 179.001 57c203.333 84.667 378.333 294.334 525 629.001c70.667 157.333 138.667 383 204 677c22 119.333 36 210.666 42 273.999v9h-4c-300 -712.667 -566.667 -1069 -800 -1069h-4
c-209.333 0 -340.333 112 -393 336c-12.667 61.333 -19 119.666 -19 174.999v71c0 308 86.667 601.333 260 880c21.333 38 56 57 104 57c94.667 -11.333 142 -36.666 142 -75.999c-5.33301 -18.667 -29 -62.667 -71 -132c-138.667 -354 -208 -653.667 -208 -899v-29
c0 -173.333 42.667 -260 128 -260c154 0 412.333 440 775 1320c33.333 82 84 123 152 123h19z" />
    <glyph glyph-name="Thorn" unicode="&#xde;" horiz-adv-x="1313" 
d="M596 1431l12.9971 -0.00292969c40 0 78.333 -23.667 115 -71c3.33301 -10.667 5 -19 5 -25l-33 -104c46.667 8.66699 86.667 13 120 13h31c132.667 0 243 -48.667 331 -146c36.667 -54 55 -106 55 -156v-33c0 -118 -77.667 -261.667 -233 -431
c-169.333 -161.333 -320.333 -242 -453 -242c-33.333 0 -68.333 11.667 -105 35c-17.333 -102 -30.666 -182.667 -39.999 -242c-14.667 -19.333 -33 -29 -55 -29c-46 6 -69 20 -69 42c-1.33301 0 -2 3 -2 9c35.333 262.667 80.333 521.334 135 776.001c2 0 8 26.667 18 80
c-138 -135.333 -207 -297 -207 -485c1.33301 -8 2 -14 2 -18c-3.33301 -20.667 -12.666 -31 -27.999 -31h-16c-37.333 0 -73.666 20.667 -108.999 62c-7.33301 10.667 -11 20.334 -11 29.001v49c0 160 59.333 310.333 178 451c77.333 80.667 140.333 133.334 189 158.001
c44 24.667 66 38 66 40c47.333 174.667 75 262 83 262c5.33301 4.66699 12 7 20 7zM450.997 312.997h2.00098c136 0 294.667 115 476 345c94.667 134 142 247.333 142 340v9c0 1.33301 0.666992 2 2 2c0 50 -20 84.667 -60 104c-23.333 7.33301 -53 11 -89 11h-6
c-86.667 0 -179.334 -23.667 -278.001 -71c-68.667 -222 -131.667 -468.667 -189 -740z" />
    <glyph glyph-name="germandbls" unicode="&#xdf;" horiz-adv-x="1032" 
d="M626 1435c115.333 0 203.664 -50.6689 264.997 -152.002c26.667 -50.667 40 -105.334 40 -164.001c0 -117.333 -45.333 -228.666 -136 -333.999l-46 -44c32.667 -11.333 81.667 -48.666 147 -111.999c56.667 -74.667 85 -145 85 -211v-26c0 -100 -43 -193 -129 -279
c-86 -72 -173.333 -108 -262 -108h-28c-92 0 -166 41.667 -222 125c-26 44.667 -39 99 -39 163c0 56.667 13.667 91.667 41 105c24.667 22 47.334 33 68.001 33c6.66699 0 12.667 -3.66699 18 -11c-7.33301 -36 -11 -71 -11 -105c0 -79.333 27.667 -134.333 83 -165
c14 -7.33301 30.333 -11 49 -11c68.667 0 139.667 46 213 138c39.333 64.667 59 128.334 59 191.001c0 90 -42.333 151 -127 183l-114 26c-51.333 28 -77 56 -77 84c0 14 18.333 24.667 55 32c86 47.333 151.667 131 197 251c19.333 48.667 29 94 29 136
c0 59.333 -21.333 99 -64 119c-11.333 4 -24.333 6.66699 -39 8c-180.667 0 -309 -226 -385 -678c-23.333 -128.667 -49.666 -317 -78.999 -565c-11.333 -12.667 -22.333 -19 -33 -19h-17c-40 0 -73 16.667 -99 50c-3.33301 5.33301 -5 11.333 -5 18
c44 415.333 90.333 706 139 872c36.667 116.667 75.334 208.667 116.001 276c77.333 116 180 174 308 174z" />
    <glyph glyph-name="agrave" unicode="&#xe0;" 
d="M411 819l19.998 0.00195312c56 -8.66699 84 -25.334 84 -50.001v-2c-68 -176.667 -102 -319.667 -102 -429v-13c0 -20.667 3 -42 9 -64h11c31.333 29.333 66.333 79.333 105 150c60.667 116 93.334 176.667 98.001 182c10.667 4.66699 19 7 25 7
c20 -6.66699 30 -13.334 30 -20.001v-9c-125.333 -266 -228.666 -399 -309.999 -399h-11c-48 0 -83 36.333 -105 109c-4.66699 20.667 -7 39.667 -7 57v16h-2c-68.667 -98.667 -122.667 -148 -162 -148c-72.667 0 -122.667 28 -150 84c-9.33301 23.333 -14 46.333 -14 69v20
c0 88 31 187.667 93 299c55.333 86.667 122.333 130 201 130c36.667 0 74 -14.667 112 -44c1.33301 0 2 1 2 3c16.667 34.667 41 52 73 52zM84.998 350.002l0.000976562 -14c0 -26 6.66699 -39 20 -39c30 18 56.667 49.333 80 94c31.333 47.333 72.333 118 123 212
c-10.667 71.333 -27.334 107 -50.001 107c-42.667 0 -96.667 -99.667 -162 -299c-7.33301 -28 -11 -48.333 -11 -61zM194.999 1075c9.33301 4 16.6641 5.33496 21.9971 4.00195c9.33301 4 19 -1.66699 29 -17c24 -29.333 58.333 -63.333 103 -102
c34.667 -24.667 52.334 -39.667 53.001 -45l1 -4c-1.33301 -12 -9.66602 -20.667 -24.999 -26l-12 -5c-8 -2.66699 -16.667 -4.66699 -26 -6c-12 -4.66699 -46.333 6.33301 -103 33c-69.333 41.333 -108.333 72.666 -117 93.999l-1 5l1 8
c14.667 27.333 36.334 46.666 65.001 57.999z" />
    <glyph glyph-name="aacute" unicode="&#xe1;" 
d="M411 819l19.998 0.00195312c56 -8.66699 84 -25.334 84 -50.001v-2c-68 -176.667 -102 -319.667 -102 -429v-13c0 -20.667 3 -42 9 -64h11c31.333 29.333 66.333 79.333 105 150c60.667 116 93.334 176.667 98.001 182c10.667 4.66699 19 7 25 7
c20 -6.66699 30 -13.334 30 -20.001v-9c-125.333 -266 -228.666 -399 -309.999 -399h-11c-48 0 -83 36.333 -105 109c-4.66699 20.667 -7 39.667 -7 57v16h-2c-68.667 -98.667 -122.667 -148 -162 -148c-72.667 0 -122.667 28 -150 84c-9.33301 23.333 -14 46.333 -14 69v20
c0 88 31 187.667 93 299c55.333 86.667 122.333 130 201 130c36.667 0 74 -14.667 112 -44c1.33301 0 2 1 2 3c16.667 34.667 41 52 73 52zM84.998 350.002l0.000976562 -14c0 -26 6.66699 -39 20 -39c30 18 56.667 49.333 80 94c31.333 47.333 72.333 118 123 212
c-10.667 71.333 -27.334 107 -50.001 107c-42.667 0 -96.667 -99.667 -162 -299c-7.33301 -28 -11 -48.333 -11 -61zM326.999 1075l9.99609 -3.00195c28.667 -11.333 50.334 -30.666 65.001 -57.999l1 -8l-1 -5c-8.66699 -21.333 -48 -52.666 -118 -93.999
c-56.667 -26.667 -91 -37.667 -103 -33c-9.33301 1.33301 -17.666 3.33301 -24.999 6l-12 5c-15.333 5.33301 -23.666 14 -24.999 26v4c0.666992 5.33301 18.334 20.333 53.001 45c45.333 38.667 80 72.667 104 102c10 15.333 19.333 21 28 17c5.33301 1.33301 13 0 23 -4z
" />
    <glyph glyph-name="acircumflex" unicode="&#xe2;" 
d="M411 819l19.998 0.00195312c56 -8.66699 84 -25.334 84 -50.001v-2c-68 -176.667 -102 -319.667 -102 -429v-13c0 -20.667 3 -42 9 -64h11c31.333 29.333 66.333 79.333 105 150c60.667 116 93.334 176.667 98.001 182c10.667 4.66699 19 7 25 7
c20 -6.66699 30 -13.334 30 -20.001v-9c-125.333 -266 -228.666 -399 -309.999 -399h-11c-48 0 -83 36.333 -105 109c-4.66699 20.667 -7 39.667 -7 57v16h-2c-68.667 -98.667 -122.667 -148 -162 -148c-72.667 0 -122.667 28 -150 84c-9.33301 23.333 -14 46.333 -14 69v20
c0 88 31 187.667 93 299c55.333 86.667 122.333 130 201 130c36.667 0 74 -14.667 112 -44c1.33301 0 2 1 2 3c16.667 34.667 41 52 73 52zM84.998 350.002l0.000976562 -14c0 -26 6.66699 -39 20 -39c30 18 56.667 49.333 80 94c31.333 47.333 72.333 118 123 212
c-10.667 71.333 -27.334 107 -50.001 107c-42.667 0 -96.667 -99.667 -162 -299c-7.33301 -28 -11 -48.333 -11 -61zM291.999 1112c40 -2 66.332 -23.668 78.999 -65.001c50.667 -87.333 76.667 -134.333 78 -141v-8c-8 -12 -21 -17.667 -39 -17l-16 1c-42 2 -69 26 -81 72
c-2 1.33301 -9 19.333 -21 54h-4c-53.333 -76 -86 -113.667 -98 -113c-4.66699 -2 -11.667 -2.66699 -21 -2h-6c-36 2 -60 15.333 -72 40v6c0.666992 6.66699 36.334 46 107.001 118c31.333 38.667 56 57.334 74 56.001z" />
    <glyph glyph-name="atilde" unicode="&#xe3;" 
d="M411 819l19.998 0.00195312c56 -8.66699 84 -25.334 84 -50.001v-2c-68 -176.667 -102 -319.667 -102 -429v-13c0 -20.667 3 -42 9 -64h11c31.333 29.333 66.333 79.333 105 150c60.667 116 93.334 176.667 98.001 182c10.667 4.66699 19 7 25 7
c20 -6.66699 30 -13.334 30 -20.001v-9c-125.333 -266 -228.666 -399 -309.999 -399h-11c-48 0 -83 36.333 -105 109c-4.66699 20.667 -7 39.667 -7 57v16h-2c-68.667 -98.667 -122.667 -148 -162 -148c-72.667 0 -122.667 28 -150 84c-9.33301 23.333 -14 46.333 -14 69v20
c0 88 31 187.667 93 299c55.333 86.667 122.333 130 201 130c36.667 0 74 -14.667 112 -44c1.33301 0 2 1 2 3c16.667 34.667 41 52 73 52zM84.998 350.002l0.000976562 -14c0 -26 6.66699 -39 20 -39c30 18 56.667 49.333 80 94c31.333 47.333 72.333 118 123 212
c-10.667 71.333 -27.334 107 -50.001 107c-42.667 0 -96.667 -99.667 -162 -299c-7.33301 -28 -11 -48.333 -11 -61zM199.999 1049l10.001 0.000976562c38 0 87 -22 147 -66h12c15.333 0 29.666 18 42.999 54c11.333 8 26 12 44 12c28.667 -6 43 -17.667 43 -35
c-26 -74.667 -65 -112 -117 -112h-18c-36 0 -75.667 18.667 -119 56c-8.66699 0 -24.667 -20.333 -48 -61c-12 -6.66699 -27 -10 -45 -10c-52.667 7.33301 -79 21.666 -79 42.999c0 22 19.333 53.333 58 94c22 16.667 45 25 69 25z" />
    <glyph glyph-name="adieresis" unicode="&#xe4;" 
d="M411 819l19.998 0.00195312c56 -8.66699 84 -25.334 84 -50.001v-2c-68 -176.667 -102 -319.667 -102 -429v-13c0 -20.667 3 -42 9 -64h11c31.333 29.333 66.333 79.333 105 150c60.667 116 93.334 176.667 98.001 182c10.667 4.66699 19 7 25 7
c20 -6.66699 30 -13.334 30 -20.001v-9c-125.333 -266 -228.666 -399 -309.999 -399h-11c-48 0 -83 36.333 -105 109c-4.66699 20.667 -7 39.667 -7 57v16h-2c-68.667 -98.667 -122.667 -148 -162 -148c-72.667 0 -122.667 28 -150 84c-9.33301 23.333 -14 46.333 -14 69v20
c0 88 31 187.667 93 299c55.333 86.667 122.333 130 201 130c36.667 0 74 -14.667 112 -44c1.33301 0 2 1 2 3c16.667 34.667 41 52 73 52zM84.998 350.002l0.000976562 -14c0 -26 6.66699 -39 20 -39c30 18 56.667 49.333 80 94c31.333 47.333 72.333 118 123 212
c-10.667 71.333 -27.334 107 -50.001 107c-42.667 0 -96.667 -99.667 -162 -299c-7.33301 -28 -11 -48.333 -11 -61zM150.999 1063c32 0 54.333 -20.001 67 -60.001v-22c0 -36 -18 -60.333 -54 -73h-24c-34 0 -57.333 21 -70 63v24c0 34.667 22.667 57.334 68 68.001h13z
M379.999 1063c32 0 54.667 -20.001 68 -60.001v-22c0 -36 -18.333 -60.333 -55 -73h-24c-34 0 -57.333 21 -70 63v24c0 34.667 22.667 57.334 68 68.001h13z" />
    <glyph glyph-name="aring" unicode="&#xe5;" 
d="M411 819l19.998 0.00195312c56 -8.66699 84 -25.334 84 -50.001v-2c-68 -176.667 -102 -319.667 -102 -429v-13c0 -20.667 3 -42 9 -64h11c31.333 29.333 66.333 79.333 105 150c60.667 116 93.334 176.667 98.001 182c10.667 4.66699 19 7 25 7
c20 -6.66699 30 -13.334 30 -20.001v-9c-125.333 -266 -228.666 -399 -309.999 -399h-11c-48 0 -83 36.333 -105 109c-4.66699 20.667 -7 39.667 -7 57v16h-2c-68.667 -98.667 -122.667 -148 -162 -148c-72.667 0 -122.667 28 -150 84c-9.33301 23.333 -14 46.333 -14 69v20
c0 88 31 187.667 93 299c55.333 86.667 122.333 130 201 130c36.667 0 74 -14.667 112 -44c1.33301 0 2 1 2 3c16.667 34.667 41 52 73 52zM84.998 350.002l0.000976562 -14c0 -26 6.66699 -39 20 -39c30 18 56.667 49.333 80 94c31.333 47.333 72.333 118 123 212
c-10.667 71.333 -27.334 107 -50.001 107c-42.667 0 -96.667 -99.667 -162 -299c-7.33301 -28 -11 -48.333 -11 -61zM280.999 1125l8.99805 0.000976562c25.333 0 47.333 -8 66 -24c14.667 -16 22 -38 22 -66c0 -39.333 -14.667 -76.333 -44 -111
c-25.333 -25.333 -53.666 -38 -84.999 -38h-9c-40 0 -67.333 18.333 -82 55c-3.33301 8.66699 -5.33301 20.667 -6 36c0 41.333 15.333 78.666 46 111.999c24.667 24 52.334 36 83.001 36zM252.997 984.003v-6.00098c0 -18 3.66699 -32.333 11 -43
c4 -4.66699 8.33301 -7 13 -7c18.667 0 33.667 18.667 45 56c4 16.667 6 30.667 6 42v9c0 20.667 -5 35.334 -15 44.001c-4 2.66699 -8.33301 4 -13 4c-14.667 0 -27.667 -16.333 -39 -49c-5.33301 -18 -8 -34.667 -8 -50z" />
    <glyph glyph-name="ae" unicode="&#xe6;" horiz-adv-x="1031" 
d="M411 819l20.001 0.00195312c56 -8.66699 84 -25.334 84 -50.001v-2c-68 -176.667 -102 -319.667 -102 -429v-13c0 -20.667 3 -42 9 -64h11c31.333 29.333 63.666 80.666 96.999 153.999l1 -72c-18.667 -114 -68.667 -171 -150 -171h-11c-48 0 -83 36.333 -105 109
c-4.66699 20.667 -7 39.667 -7 57v16h-2c-68.667 -98.667 -122.667 -148 -162 -148c-72.667 0 -122.667 28 -150 84c-9.33301 23.333 -14 46.333 -14 69v20c0 88 31 187.667 93 299c55.333 86.667 122.333 130 201 130c36.667 0 74 -14.667 112 -44c1.33301 0 2 1 2 3
c16.667 34.667 41 52 73 52zM85.001 350.002l0.000976562 -14c0 -26 6.66699 -39 20 -39c30 18 56.667 49.333 80 94c31.333 47.333 72.333 118 123 212c-10.667 71.333 -27.334 107 -50.001 107c-42.667 0 -96.667 -99.667 -162 -299c-7.33301 -28 -11 -48.333 -11 -61z
M745.002 823.002l12.002 0.00390625c42 0 78.667 -16.333 110 -49c16 -22 24 -50 24 -84c0 -76.667 -29 -143.334 -87 -200.001c-28 -25.333 -56.333 -44.333 -85 -57c-23.333 -10 -49 -18.333 -77 -25c-16.667 -3.33301 -32.334 -5.33301 -47.001 -6v-32
c0 -56.667 13.333 -92.334 40 -107.001c8 -2.66699 14.667 -4 20 -4c53.333 0 138.666 71.667 255.999 215c36.667 47.333 65.667 87.666 87 120.999c19.333 20 38.666 30 57.999 30h4c10.667 -0.666992 16 -4.33398 16 -11.001v-2c0 -7.33301 -7.66699 -22.333 -23 -45
c-31.333 -52.667 -72 -111.334 -122 -176.001c-19.333 -25.333 -48.666 -58.666 -87.999 -99.999c-84.667 -82 -157.667 -123 -219 -123h-10c-55.333 0 -105 35 -149 105c-16.667 36 -25 74.667 -25 116v19c0 99.333 33.333 195.333 100 288c64.667 84.667 133 127 205 127z
M613.004 479.006l5.00098 -1.00098h3c67.333 0 112 31 134 93c7.33301 24.667 11 48.334 11 71.001c-2.66699 43.333 -10.334 65 -23.001 65h-1c-22.667 0 -63 -68.333 -121 -205z" />
    <glyph glyph-name="ccedilla" unicode="&#xe7;" horiz-adv-x="528" 
d="M262 796l28.001 -0.000976562c71.333 0 107 -24.667 107 -74c-6.66699 -30 -21.667 -81.667 -45 -155c0 -30 -20 -45 -60 -45c-52.667 3.33301 -84 19 -94 47v4c4 25.333 11.667 55.333 23 90h-2c-50.667 -50.667 -86.334 -99.667 -107.001 -147
c-28.667 -59.333 -43 -112.666 -43 -159.999v-16c4 -58 21.667 -93.667 53 -107c8 -1.33301 14.333 -2 19 -2h4c75.333 0 200 125 374 375c13.333 9.33301 25 14 35 14h6c14 -2 21 -8.33301 21 -19v-6c0 -8.66699 -51.333 -80.667 -154 -216
c-111.333 -138 -210 -207 -296 -207h-13c-88 0 -148.667 37.333 -182 112c-10.667 23.333 -16 51.333 -16 84v17c0 90.667 43.667 190 131 298c74 75.333 144.333 113 211 113zM180.001 228.999c35.333 -5.33301 53.002 -16.002 53.002 -32.002
c-5.33301 -20 -8 -30.333 -8 -31c0 -6 17.667 -16 53 -30c18 -13.333 27 -29 27 -47v-2c0 -53.333 -39.667 -89 -119 -107c-8.66699 -2 -19 -3 -31 -3h-24c-54 0 -92.333 21.667 -115 65c-3.33301 10.667 -5 20 -5 28v4c0 8 7.66699 19 23 33h4
c1.33301 -1.33301 5 -10.666 11 -27.999c21.333 -31.333 49.666 -47 84.999 -47c32.667 0 56.667 16 72 48l2 9c0 12.667 -18.333 24.334 -55 35.001c-18 10 -27 22.667 -27 38c3.33301 44.667 14.666 67 33.999 67h20z" />
    <glyph glyph-name="egrave" unicode="&#xe8;" horiz-adv-x="500" 
d="M238 809l12.002 0.000976562c41.333 0 77.333 -16 108 -48c16 -21.333 24 -49 24 -83c0 -74.667 -28.667 -139.667 -86 -195c-26.667 -24.667 -54.334 -43.334 -83.001 -56.001c-23.333 -10 -48.333 -18 -75 -24c-16.667 -3.33301 -32 -5.33301 -46 -6v-31
c0 -55.333 13 -90.333 39 -105c8 -2.66699 14.667 -4 20 -4c52 0 135.333 70.333 250 211c36 46 64.333 85.333 85 118c19.333 20 38 30 56 30h4c10.667 -1.33301 16 -5.33301 16 -12v-2c0 -6.66699 -7.33301 -21.334 -22 -44.001
c-30.667 -51.333 -70.334 -108.666 -119.001 -171.999c-19.333 -24.667 -48.333 -57 -87 -97c-82 -80.667 -153.333 -121 -214 -121h-9c-54.667 0 -103.334 34.333 -146.001 103c-16.667 34.667 -25 72.667 -25 114v18c0 97.333 32.667 191 98 281
c62.667 83.333 129.334 125 200.001 125zM109.002 472.001h5.00098h3c66 0 109.667 30.333 131 91c7.33301 24 11 47 11 69c-2.66699 42 -10 63 -22 63h-1c-22.667 0 -62.334 -66.667 -119.001 -200zM165.003 1075c9.33301 4 16.6641 5.33496 21.9971 4.00195
c9.33301 4 19 -1.66699 29 -17c24 -29.333 58.333 -63.333 103 -102c34.667 -24.667 52.334 -39.667 53.001 -45l1 -4c-1.33301 -12 -9.66602 -20.667 -24.999 -26l-12 -5c-8 -2.66699 -16.667 -4.66699 -26 -6c-12 -4.66699 -46.333 6.33301 -103 33
c-69.333 41.333 -108.333 72.666 -117 93.999l-1 5l1 8c14.667 27.333 36.334 46.666 65.001 57.999z" />
    <glyph glyph-name="eacute" unicode="&#xe9;" horiz-adv-x="500" 
d="M238 809l12.002 0.000976562c41.333 0 77.333 -16 108 -48c16 -21.333 24 -49 24 -83c0 -74.667 -28.667 -139.667 -86 -195c-26.667 -24.667 -54.334 -43.334 -83.001 -56.001c-23.333 -10 -48.333 -18 -75 -24c-16.667 -3.33301 -32 -5.33301 -46 -6v-31
c0 -55.333 13 -90.333 39 -105c8 -2.66699 14.667 -4 20 -4c52 0 135.333 70.333 250 211c36 46 64.333 85.333 85 118c19.333 20 38 30 56 30h4c10.667 -1.33301 16 -5.33301 16 -12v-2c0 -6.66699 -7.33301 -21.334 -22 -44.001
c-30.667 -51.333 -70.334 -108.666 -119.001 -171.999c-19.333 -24.667 -48.333 -57 -87 -97c-82 -80.667 -153.333 -121 -214 -121h-9c-54.667 0 -103.334 34.333 -146.001 103c-16.667 34.667 -25 72.667 -25 114v18c0 97.333 32.667 191 98 281
c62.667 83.333 129.334 125 200.001 125zM109.002 472.001h5.00098h3c66 0 109.667 30.333 131 91c7.33301 24 11 47 11 69c-2.66699 42 -10 63 -22 63h-1c-22.667 0 -62.334 -66.667 -119.001 -200zM277.003 1075l9.99609 -3.00195
c28.667 -11.333 50.334 -30.666 65.001 -57.999l1 -8l-1 -5c-8.66699 -21.333 -48 -52.666 -118 -93.999c-56.667 -26.667 -91 -37.667 -103 -33c-9.33301 1.33301 -17.666 3.33301 -24.999 6l-12 5c-15.333 5.33301 -23.666 14 -24.999 26v4
c0.666992 5.33301 18.334 20.333 53.001 45c45.333 38.667 80 72.667 104 102c10 15.333 19.333 21 28 17c5.33301 1.33301 13 0 23 -4z" />
    <glyph glyph-name="ecircumflex" unicode="&#xea;" horiz-adv-x="500" 
d="M238 809l12.002 0.000976562c41.333 0 77.333 -16 108 -48c16 -21.333 24 -49 24 -83c0 -74.667 -28.667 -139.667 -86 -195c-26.667 -24.667 -54.334 -43.334 -83.001 -56.001c-23.333 -10 -48.333 -18 -75 -24c-16.667 -3.33301 -32 -5.33301 -46 -6v-31
c0 -55.333 13 -90.333 39 -105c8 -2.66699 14.667 -4 20 -4c52 0 135.333 70.333 250 211c36 46 64.333 85.333 85 118c19.333 20 38 30 56 30h4c10.667 -1.33301 16 -5.33301 16 -12v-2c0 -6.66699 -7.33301 -21.334 -22 -44.001
c-30.667 -51.333 -70.334 -108.666 -119.001 -171.999c-19.333 -24.667 -48.333 -57 -87 -97c-82 -80.667 -153.333 -121 -214 -121h-9c-54.667 0 -103.334 34.333 -146.001 103c-16.667 34.667 -25 72.667 -25 114v18c0 97.333 32.667 191 98 281
c62.667 83.333 129.334 125 200.001 125zM109.002 472.001h5.00098h3c66 0 109.667 30.333 131 91c7.33301 24 11 47 11 69c-2.66699 42 -10 63 -22 63h-1c-22.667 0 -62.334 -66.667 -119.001 -200zM243.003 1091c40 -2 66.332 -23.668 78.999 -65.001
c50.667 -87.333 76.667 -134.333 78 -141v-8c-8 -12 -21 -17.667 -39 -17l-16 1c-42 2 -69 26 -81 72c-2 1.33301 -9 19.333 -21 54h-4c-53.333 -76 -86 -113.667 -98 -113c-4.66699 -2 -11.667 -2.66699 -21 -2h-6c-36 2 -60 15.333 -72 40v6
c0.666992 6.66699 36.334 46 107.001 118c31.333 38.667 56 57.334 74 56.001z" />
    <glyph glyph-name="edieresis" unicode="&#xeb;" horiz-adv-x="500" 
d="M238 809l12.002 0.000976562c41.333 0 77.333 -16 108 -48c16 -21.333 24 -49 24 -83c0 -74.667 -28.667 -139.667 -86 -195c-26.667 -24.667 -54.334 -43.334 -83.001 -56.001c-23.333 -10 -48.333 -18 -75 -24c-16.667 -3.33301 -32 -5.33301 -46 -6v-31
c0 -55.333 13 -90.333 39 -105c8 -2.66699 14.667 -4 20 -4c52 0 135.333 70.333 250 211c36 46 64.333 85.333 85 118c19.333 20 38 30 56 30h4c10.667 -1.33301 16 -5.33301 16 -12v-2c0 -6.66699 -7.33301 -21.334 -22 -44.001
c-30.667 -51.333 -70.334 -108.666 -119.001 -171.999c-19.333 -24.667 -48.333 -57 -87 -97c-82 -80.667 -153.333 -121 -214 -121h-9c-54.667 0 -103.334 34.333 -146.001 103c-16.667 34.667 -25 72.667 -25 114v18c0 97.333 32.667 191 98 281
c62.667 83.333 129.334 125 200.001 125zM109.002 472.001h5.00098h3c66 0 109.667 30.333 131 91c7.33301 24 11 47 11 69c-2.66699 42 -10 63 -22 63h-1c-22.667 0 -62.334 -66.667 -119.001 -200zM131.003 1043c32 0 54.333 -20.001 67 -60.001v-22
c0 -36 -18 -60.333 -54 -73h-24c-34 0 -57.333 21 -70 63v24c0 34.667 22.667 57.334 68 68.001h13zM360.003 1043c32 0 54.667 -20.001 68 -60.001v-22c0 -36 -18.333 -60.333 -55 -73h-24c-34 0 -57.333 21 -70 63v24c0 34.667 22.667 57.334 68 68.001h13z" />
    <glyph glyph-name="igrave" unicode="&#xec;" horiz-adv-x="412" 
d="M98 751l11.9961 -0.00292969c34.667 -1.33301 63.334 -15 86.001 -41c2.66699 -5.33301 4 -9.66602 4 -12.999v-3c-45.333 -132 -69.333 -243 -72 -333c-1.33301 -35.333 2 -68.666 10 -99.999c50 12.667 109.333 75.667 178 189c22 37.333 51 90.666 87 159.999
c12.667 14 26.334 20.667 41.001 20h4c17.333 -3.33301 26 -11.666 26 -24.999v-8c-38 -84.667 -88.667 -172 -152 -262c-77.333 -99.333 -146.666 -148 -207.999 -146l-14 1c-35.333 0.666992 -70.333 21.334 -105 62.001c-22 34.667 -32.333 78.667 -31 132l1 24
c2.66699 84 29.334 192.333 80.001 325c11.333 12.667 29 18.667 53 18zM134.996 1065c9.33301 4 16.6641 5.33496 21.9971 4.00195c9.33301 4 19 -1.66699 29 -17c24 -29.333 58.333 -63.333 103 -102c34.667 -24.667 52.334 -39.667 53.001 -45l1 -4
c-1.33301 -12 -9.66602 -20.667 -24.999 -26l-12 -5c-8 -2.66699 -16.667 -4.66699 -26 -6c-12 -4.66699 -46.333 6.33301 -103 33c-69.333 41.333 -108.333 72.666 -117 93.999l-1 5l1 8c14.667 27.333 36.334 46.666 65.001 57.999z" />
    <glyph glyph-name="iacute" unicode="&#xed;" horiz-adv-x="412" 
d="M98 751l11.9961 -0.00292969c34.667 -1.33301 63.334 -15 86.001 -41c2.66699 -5.33301 4 -9.66602 4 -12.999v-3c-45.333 -132 -69.333 -243 -72 -333c-1.33301 -35.333 2 -68.666 10 -99.999c50 12.667 109.333 75.667 178 189c22 37.333 51 90.666 87 159.999
c12.667 14 26.334 20.667 41.001 20h4c17.333 -3.33301 26 -11.666 26 -24.999v-8c-38 -84.667 -88.667 -172 -152 -262c-77.333 -99.333 -146.666 -148 -207.999 -146l-14 1c-35.333 0.666992 -70.333 21.334 -105 62.001c-22 34.667 -32.333 78.667 -31 132l1 24
c2.66699 84 29.334 192.333 80.001 325c11.333 12.667 29 18.667 53 18zM186.996 1045l9.99609 -3.00195c28.667 -11.333 50.334 -30.666 65.001 -57.999l1 -8l-1 -5c-8.66699 -21.333 -48 -52.666 -118 -93.999c-56.667 -26.667 -91 -37.667 -103 -33
c-9.33301 1.33301 -17.666 3.33301 -24.999 6l-12 5c-15.333 5.33301 -23.666 14 -24.999 26v4c0.666992 5.33301 18.334 20.333 53.001 45c45.333 38.667 80 72.667 104 102c10 15.333 19.333 21 28 17c5.33301 1.33301 13 0 23 -4z" />
    <glyph glyph-name="icircumflex" unicode="&#xee;" horiz-adv-x="412" 
d="M98 751l11.9961 -0.00292969c34.667 -1.33301 63.334 -15 86.001 -41c2.66699 -5.33301 4 -9.66602 4 -12.999v-3c-45.333 -132 -69.333 -243 -72 -333c-1.33301 -35.333 2 -68.666 10 -99.999c50 12.667 109.333 75.667 178 189c22 37.333 51 90.666 87 159.999
c12.667 14 26.334 20.667 41.001 20h4c17.333 -3.33301 26 -11.666 26 -24.999v-8c-38 -84.667 -88.667 -172 -152 -262c-77.333 -99.333 -146.666 -148 -207.999 -146l-14 1c-35.333 0.666992 -70.333 21.334 -105 62.001c-22 34.667 -32.333 78.667 -31 132l1 24
c2.66699 84 29.334 192.333 80.001 325c11.333 12.667 29 18.667 53 18zM177.996 1069c40 -2 66.332 -23.668 78.999 -65.001c50.667 -87.333 76.667 -134.333 78 -141v-8c-8 -12 -21 -17.667 -39 -17l-16 1c-42 2 -69 26 -81 72c-2 1.33301 -9 19.333 -21 54h-4
c-53.333 -76 -86 -113.667 -98 -113c-4.66699 -2 -11.667 -2.66699 -21 -2h-6c-36 2 -60 15.333 -72 40v6c0.666992 6.66699 36.334 46 107.001 118c31.333 38.667 56 57.334 74 56.001z" />
    <glyph glyph-name="idieresis" unicode="&#xef;" horiz-adv-x="412" 
d="M98 751l11.9961 -0.00292969c34.667 -1.33301 63.334 -15 86.001 -41c2.66699 -5.33301 4 -9.66602 4 -12.999v-3c-45.333 -132 -69.333 -243 -72 -333c-1.33301 -35.333 2 -68.666 10 -99.999c50 12.667 109.333 75.667 178 189c22 37.333 51 90.666 87 159.999
c12.667 14 26.334 20.667 41.001 20h4c17.333 -3.33301 26 -11.666 26 -24.999v-8c-38 -84.667 -88.667 -172 -152 -262c-77.333 -99.333 -146.666 -148 -207.999 -146l-14 1c-35.333 0.666992 -70.333 21.334 -105 62.001c-22 34.667 -32.333 78.667 -31 132l1 24
c2.66699 84 29.334 192.333 80.001 325c11.333 12.667 29 18.667 53 18zM60.9961 1043c32 0 54.333 -20.001 67 -60.001v-22c0 -36 -18 -60.333 -54 -73h-24c-34 0 -57.333 21 -70 63v24c0 34.667 22.667 57.334 68 68.001h13zM289.996 1043c32 0 54.667 -20.001 68 -60.001
v-22c0 -36 -18.333 -60.333 -55 -73h-24c-34 0 -57.333 21 -70 63v24c0 34.667 22.667 57.334 68 68.001h13z" />
    <glyph glyph-name="eth" unicode="&#xf0;" horiz-adv-x="620" 
d="M604 1225c42.667 0 73.335 -15 92.002 -45v-8c-1.33301 -6 -12.333 -22 -33 -48c-30.667 -41.333 -69.667 -139.333 -117 -294c-14.667 -46 -24 -82.333 -28 -109c-16.667 -42 -37 -132 -61 -270c-12.667 -77.333 -19 -144.333 -19 -201v-12
c0 -106.667 24.667 -176.667 74 -210c8 -11.333 12 -20.333 12 -27c-5.33301 -4.66699 -10 -7 -14 -7h-12c-30.667 0 -67 16 -109 48c-49.333 51.333 -74 144 -74 278v58c-40 -54.667 -77 -102 -111 -142c-45.333 -48.667 -79.333 -73 -102 -73
c-88.667 0 -145.667 38 -171 114c-6.66699 27.333 -10 50.666 -10 69.999c0 106 32.333 218.333 97 337c61.333 96.667 134.666 145 219.999 145c47.333 0 92 -19 134 -57c25.333 110 55.333 206.667 90 290c29.333 64.667 58.333 113.334 87 146.001
c11.333 11.333 29.666 17 54.999 17zM58.001 286c0 -26 6.66699 -39.002 20 -39.002c34 0 86.333 60.333 157 181c46 92.667 71.667 164.334 77 215.001c-26.667 60.667 -42.667 91.334 -48 92.001c-40 -14 -86.667 -78.333 -140 -193c-44 -112.667 -66 -198 -66 -256z
M350.001 945.998h289c32 0 55.667 -13.333 71 -40v-16c0 -18.667 -35.667 -28 -107 -28h-266c-9.33301 0 -21.333 -1.33301 -36 -4c-44 0 -70 18.667 -78 56v4c0 18.667 42.333 28 127 28z" />
    <glyph glyph-name="ntilde" unicode="&#xf1;" horiz-adv-x="659" 
d="M407 812h12c28 0 51.333 -9.33301 70 -28c4.66699 -6 7 -14.667 7 -26c0 -24 -21.333 -120.333 -64 -289c-18 -71.333 -30.333 -137.333 -37 -198c0.666992 -2 1.33398 -3 2.00098 -3c9.33301 5.33301 23.333 21 42 47c94 139.333 162.333 237 205 293
c12.667 11.333 26 17 40 17c17.333 -3.33301 26 -10 26 -20v-5c0 -8.66699 -21 -40.334 -63 -95.001c-78.667 -117.333 -139.334 -205 -182.001 -263c-34.667 -40 -63.667 -60 -87 -60h-9c-31.333 0 -58.333 19 -81 57c-12 27.333 -18 56.333 -18 87v24
c0 62 19.667 162.667 59 302v2h-1c-91.333 -132 -170.333 -257 -237 -375c-26 -52.667 -41.667 -81 -47 -85c-8.66699 -4 -17.334 -6 -26.001 -6c-42.667 0 -71.667 15.667 -87 47c-1.33301 8.66699 -2 14.334 -2 17.001v11c8.66699 70 25.334 160 50.001 270
c21.333 102 37.333 169.333 48 202c10 12.667 27.333 19 52 19c39.333 0 69 -12.667 89 -38l3 -8v-4c-21.333 -76 -35 -128 -41 -156h2c34 56.667 74.667 114 122 172c56 61.333 107 92 153 92zM240 1049l10.001 0.000976562c38 0 87 -22 147 -66h12
c15.333 0 29.666 18 42.999 54c11.333 8 26 12 44 12c28.667 -6 43 -17.667 43 -35c-26 -74.667 -65 -112 -117 -112h-18c-36 0 -75.667 18.667 -119 56c-8.66699 0 -24.667 -20.333 -48 -61c-12 -6.66699 -27 -10 -45 -10c-52.667 7.33301 -79 21.666 -79 42.999
c0 22 19.333 53.333 58 94c22 16.667 45 25 69 25z" />
    <glyph glyph-name="ograve" unicode="&#xf2;" horiz-adv-x="545" 
d="M188 796l11 -0.00195312c76 0 129.333 -29.667 160 -89c12.667 -28 19 -60.667 19 -98v-4c0 -42 -8 -91.333 -24 -148h1c51.333 20 88 38.333 110 55c8.66699 4.66699 24.667 18.667 48 42c14 20.667 22.667 31.334 26 32.001l4 1c14 0 29 -8.66699 45 -26v-4
c-30.667 -39.333 -64.667 -70.666 -102 -93.999c-41.333 -27.333 -87.333 -49.666 -138 -66.999c-13.333 -2.66699 -20 -7.66699 -20 -15c-15.333 -30.667 -38.333 -63.334 -69 -98.001c-58 -58 -114.667 -87 -170 -87h-11c-42 0 -78.667 21.333 -110 64
c-25.333 44.667 -38 90 -38 136v15c0 59.333 17.333 113.333 52 162c0 30 10 66 30 108c28.667 50.667 68.667 86 120 106c21.333 6 40 9 56 9zM112 610.998c30.667 -12 46 -25.332 46 -39.999v-2c0 -8.66699 -9 -18.334 -27 -29.001c-12 -12.667 -20 -23.334 -24 -32.001
c18.667 -52.667 56 -79 112 -79c26.667 72.667 40 134.667 40 186v16c0 38 -9 70.667 -27 98c-2.66699 2 -5.66699 3.66699 -9 5c-19.333 0 -44.333 -17 -75 -51c-14 -19.333 -25 -38 -33 -56c-2 -7.33301 -3 -12.666 -3 -15.999zM78 406.999
c0 -3.33301 -0.332031 -10.333 -0.999023 -21c0 -43.333 8.66699 -78 26 -104c5.33301 -4 10.666 -6 15.999 -6c18.667 0 43.667 31 75 93c-40 5.33301 -73 15 -99 29l-16 9h-1zM195.001 1075c9.33301 4 16.6641 5.33496 21.9971 4.00195c9.33301 4 19 -1.66699 29 -17
c24 -29.333 58.333 -63.333 103 -102c34.667 -24.667 52.334 -39.667 53.001 -45l1 -4c-1.33301 -12 -9.66602 -20.667 -24.999 -26l-12 -5c-8 -2.66699 -16.667 -4.66699 -26 -6c-12 -4.66699 -46.333 6.33301 -103 33c-69.333 41.333 -108.333 72.666 -117 93.999l-1 5
l1 8c14.667 27.333 36.334 46.666 65.001 57.999z" />
    </font>
</defs>
</svg>
